Gentium-Italic.ufo
<glyph name="NumSgn" format="2">
  <advance width="823"/>
  <unicode hex="0023"/>
  <outline>
    <contour>
      <point x="930" y="936" type="curve"/>
      <point x="911" y="961" type="line"/>
      <point x="229" y="961" type="line"/>
      <point x="215" y="934"/>
      <point x="199" y="899"/>
      <point x="188" y="870" type="curve"/>
      <point x="207" y="846" type="line"/>
      <point x="889" y="846" type="line"/>
      <point x="901" y="868"/>
      <point x="920" y="907"/>
    </contour>
    <contour>
      <point x="885" y="1270" type="line"/>
      <point x="862" y="1292" type="line"/>
      <point x="834" y="1280"/>
      <point x="803" y="1272"/>
      <point x="774" y="1251" type="curve"/>
      <point x="367" y="147" type="line"/>
      <point x="387" y="127" type="line"/>
      <point x="422" y="139"/>
      <point x="453" y="152"/>
      <point x="477" y="170" type="curve"/>
    </contour>
    <contour>
      <point x="606" y="1270" type="line"/>
      <point x="584" y="1292" type="line"/>
      <point x="555" y="1280"/>
      <point x="524" y="1272"/>
      <point x="496" y="1251" type="curve"/>
      <point x="86" y="147" type="line"/>
      <point x="109" y="127" type="line"/>
      <point x="143" y="139"/>
      <point x="174" y="152"/>
      <point x="199" y="170" type="curve"/>
    </contour>
    <contour>
      <point x="797" y="563" type="curve"/>
      <point x="778" y="590" type="line"/>
      <point x="96" y="590" type="line"/>
      <point x="82" y="563"/>
      <point x="66" y="526"/>
      <point x="55" y="500" type="curve"/>
      <point x="74" y="475" type="line"/>
      <point x="758" y="475" type="line"/>
      <point x="770" y="498"/>
      <point x="786" y="537"/>
    </contour>
  </outline>
</glyph>
<glyph name="DollarSgn" format="2">
  <advance width="823"/>
  <unicode hex="0024"/>
  <outline>
    <contour>
      <point x="564" y="1344" type="line"/>
      <point x="542" y="1366" type="line"/>
      <point x="507" y="1355"/>
      <point x="519" y="1359"/>
      <point x="484" y="1338" type="curve"/>
      <point x="274" y="-147" type="line"/>
      <point x="294" y="-168" type="line"/>
      <point x="326" y="-160"/>
      <point x="331" y="-158"/>
      <point x="355" y="-138" type="curve"/>
    </contour>
    <contour>
      <point x="793" y="1144" type="curve"/>
      <point x="732" y="1190"/>
      <point x="645" y="1231"/>
      <point x="549" y="1231" type="curve" smooth="yes"/>
      <point x="304" y="1231"/>
      <point x="133" y="1054"/>
      <point x="133" y="885" type="curve" smooth="yes"/>
      <point x="133" y="794"/>
      <point x="187" y="691"/>
      <point x="355" y="611" type="curve" smooth="yes"/>
      <point x="547" y="520"/>
      <point x="614" y="447"/>
      <point x="614" y="343" type="curve" smooth="yes"/>
      <point x="614" y="201"/>
      <point x="482" y="90"/>
      <point x="328" y="90" type="curve" smooth="yes"/>
      <point x="176" y="90"/>
      <point x="118" y="241"/>
      <point x="89" y="241" type="curve" smooth="yes"/>
      <point x="53" y="241"/>
      <point x="-16" y="139"/>
      <point x="-16" y="108" type="curve" smooth="yes"/>
      <point x="-16" y="41"/>
      <point x="166" y="-31"/>
      <point x="262" y="-31" type="curve" smooth="yes"/>
      <point x="515" y="-31"/>
      <point x="739" y="180"/>
      <point x="739" y="418" type="curve" smooth="yes"/>
      <point x="739" y="561"/>
      <point x="657" y="641"/>
      <point x="454" y="744" type="curve" smooth="yes"/>
      <point x="284" y="830"/>
      <point x="249" y="893"/>
      <point x="249" y="950" type="curve" smooth="yes"/>
      <point x="249" y="1034"/>
      <point x="337" y="1133"/>
      <point x="472" y="1133" type="curve" smooth="yes"/>
      <point x="547" y="1133"/>
      <point x="625" y="1077"/>
      <point x="668" y="1016" type="curve"/>
      <point x="696" y="1011" type="line"/>
      <point x="721" y="1026"/>
      <point x="809" y="1133"/>
    </contour>
  </outline>
</glyph>
<glyph name="Solidus" format="2">
  <advance width="819"/>
  <unicode hex="002F"/>
  <outline>
    <contour>
      <point x="944" y="1577" type="line"/>
      <point x="913" y="1599" type="line"/>
      <point x="874" y="1589"/>
      <point x="829" y="1573"/>
      <point x="793" y="1550" type="curve"/>
      <point x="-111" y="-311" type="line"/>
      <point x="-82" y="-336" type="line"/>
      <point x="-49" y="-326"/>
      <point x="16" y="-303"/>
      <point x="43" y="-285" type="curve"/>
    </contour>
  </outline>
</glyph>
<glyph name="GTSgn" format="2">
  <advance width="840"/>
  <unicode hex="003E"/>
  <outline>
    <contour>
      <point x="763" y="651" type="line"/>
      <point x="194" y="899" type="line"/>
      <point x="153" y="874"/>
      <point x="143" y="864"/>
      <point x="112" y="838" type="curve"/>
      <point x="123" y="801" type="line"/>
      <point x="607" y="591" type="line"/>
      <point x="67" y="383" type="line"/>
      <point x="55" y="358"/>
      <point x="41" y="307"/>
      <point x="30" y="281" type="curve"/>
      <point x="49" y="256" type="line"/>
      <point x="747" y="530" type="line"/>
      <point x="761" y="555"/>
      <point x="776" y="596"/>
      <point x="785" y="625" type="curve"/>
    </contour>
  </outline>
</glyph>
<glyph name="LtnCapC" format="2">
  <advance width="995"/>
  <unicode hex="0043"/>
  <anchor x="465" y="0" name="H"/>
  <anchor x="491" y="-100" name="L"/>
  <anchor x="686" y="1320" name="U"/>
  <outline>
    <contour>
      <point x="1016" y="1190" type="curve" smooth="yes"/>
      <point x="957" y="1245"/>
      <point x="864" y="1290"/>
      <point x="733" y="1290" type="curve" smooth="yes"/>
      <point x="608" y="1290"/>
      <point x="494" y="1243"/>
      <point x="397" y="1167" type="curve" smooth="yes"/>
      <point x="172" y="989"/>
      <point x="76" y="711"/>
      <point x="76" y="459" type="curve" smooth="yes"/>
      <point x="76" y="150"/>
      <point x="256" y="-27"/>
      <point x="457" y="-27" type="curve" smooth="yes"/>
      <point x="582" y="-27"/>
      <point x="717" y="29"/>
      <point x="897" y="211" type="curve"/>
      <point x="892" y="224"/>
      <point x="878" y="247"/>
      <point x="868" y="256" type="curve"/>
      <point x="719" y="137"/>
      <point x="618" y="96"/>
      <point x="543" y="96" type="curve" smooth="yes"/>
      <point x="403" y="96"/>
      <point x="227" y="225"/>
      <point x="227" y="516" type="curve" smooth="yes"/>
      <point x="227" y="684"/>
      <point x="293" y="969"/>
      <point x="461" y="1100" type="curve" smooth="yes"/>
      <point x="514" y="1141"/>
      <point x="588" y="1169"/>
      <point x="641" y="1169" type="curve" smooth="yes"/>
      <point x="750" y="1169"/>
      <point x="827" y="1124"/>
      <point x="881" y="1065" type="curve"/>
      <point x="911" y="1057" type="line"/>
      <point x="946" y="1087"/>
      <point x="1027" y="1179"/>
    </contour>
  </outline>
</glyph>
<glyph name="LtnCapN" format="2">
  <advance width="1239"/>
  <unicode hex="004E"/>
  <anchor x="940" y="0" name="H"/>
  <anchor x="542" y="-100" name="L"/>
  <anchor x="737" y="1320" name="U"/>
  <outline>
    <contour>
      <point x="1294" y="1260" type="line"/>
      <point x="930" y="1260" type="line"/>
      <point x="924" y="1217" type="line"/>
      <point x="1018" y="1202"/>
      <point x="1049" y="1171"/>
      <point x="1047" y="1155" type="curve" smooth="yes"/>
      <point x="924" y="258" type="line"/>
      <point x="440" y="1182" type="line" smooth="yes"/>
      <point x="401" y="1257"/>
      <point x="399" y="1260"/>
      <point x="342" y="1260" type="curve" smooth="yes"/>
      <point x="164" y="1260" type="line"/>
      <point x="158" y="1217" type="line"/>
      <point x="215" y="1207"/>
      <point x="255" y="1194"/>
      <point x="289" y="1154" type="curve"/>
      <point x="143" y="104" type="line" smooth="yes"/>
      <point x="141" y="86"/>
      <point x="96" y="55"/>
      <point x="6" y="43" type="curve"/>
      <point x="0" y="0" type="line"/>
      <point x="365" y="0" type="line"/>
      <point x="371" y="43" type="line"/>
      <point x="281" y="57"/>
      <point x="248" y="87"/>
      <point x="250" y="104" type="curve" smooth="yes"/>
      <point x="373" y="1004" type="line"/>
      <point x="870" y="45" type="line" smooth="yes"/>
      <point x="901" y="-14"/>
      <point x="932" y="-23"/>
      <point x="989" y="-31" type="curve"/>
      <point x="1153" y="1155" type="line" smooth="yes"/>
      <point x="1156" y="1179"/>
      <point x="1200" y="1204"/>
      <point x="1288" y="1217" type="curve"/>
    </contour>
  </outline>
</glyph>
<glyph name="LtnCapP" format="2">
  <advance width="965"/>
  <unicode hex="0050"/>
  <anchor x="397" y="-100" name="L"/>
  <anchor x="592" y="1320" name="U"/>
  <outline>
    <contour>
      <point x="975" y="942" type="curve"/>
      <point x="975" y="1171"/>
      <point x="815" y="1290"/>
      <point x="559" y="1290" type="curve" smooth="yes"/>
      <point x="377" y="1290"/>
      <point x="252" y="1266"/>
      <point x="141" y="1225" type="curve"/>
      <point x="141" y="1165" type="line"/>
      <point x="281" y="1200"/>
      <point x="371" y="1206"/>
      <point x="496" y="1206" type="curve" smooth="yes"/>
      <point x="676" y="1206"/>
      <point x="831" y="1128"/>
      <point x="831" y="905" type="curve" smooth="yes"/>
      <point x="831" y="731"/>
      <point x="709" y="610"/>
      <point x="532" y="610" type="curve" smooth="yes"/>
      <point x="489" y="610"/>
      <point x="444" y="625"/>
      <point x="399" y="643" type="curve"/>
      <point x="410" y="569" type="line"/>
      <point x="446" y="549"/>
      <point x="502" y="535"/>
      <point x="553" y="535" type="curve" smooth="yes"/>
      <point x="786" y="535"/>
      <point x="975" y="715"/>
    </contour>
    <contour>
      <point x="451" y="1260" type="line"/>
      <point x="305" y="1260" type="line"/>
      <point x="147" y="104" type="line" smooth="yes"/>
      <point x="145" y="86"/>
      <point x="90" y="61"/>
      <point x="6" y="43" type="curve"/>
      <point x="0" y="0" type="line"/>
      <point x="438" y="0" type="line"/>
      <point x="444" y="43" type="line"/>
      <point x="319" y="66"/>
      <point x="291" y="88"/>
      <point x="293" y="104" type="curve" smooth="yes"/>
    </contour>
  </outline>
</glyph>
<glyph name="LtnSmD" format="2">
  <advance width="969"/>
  <unicode hex="0064"/>
  <anchor x="388" y="0" name="H"/>
  <anchor x="374" y="-100" name="L"/>
  <anchor x="962" y="870" name="R"/>
  <anchor x="604" y="1640" name="U"/>
  <outline>
    <contour>
      <point x="924" y="68" type="curve"/>
      <point x="911" y="104" type="line"/>
      <point x="864" y="84"/>
      <point x="829" y="78"/>
      <point x="795" y="78" type="curve" smooth="yes"/>
      <point x="764" y="78"/>
      <point x="750" y="145"/>
      <point x="750" y="299" type="curve" smooth="yes"/>
      <point x="750" y="479"/>
      <point x="913" y="1231"/>
      <point x="913" y="1438" type="curve" smooth="yes"/>
      <point x="913" y="1499"/>
      <point x="895" y="1520"/>
      <point x="858" y="1520" type="curve" smooth="yes"/>
      <point x="825" y="1520"/>
      <point x="702" y="1475"/>
      <point x="590" y="1425" type="curve"/>
      <point x="602" y="1386" type="line"/>
      <point x="638" y="1398"/>
      <point x="692" y="1413"/>
      <point x="709" y="1413" type="curve" smooth="yes"/>
      <point x="733" y="1413"/>
      <point x="754" y="1407"/>
      <point x="754" y="1346" type="curve" smooth="yes"/>
      <point x="754" y="1159"/>
      <point x="608" y="422"/>
      <point x="608" y="299" type="curve" smooth="yes"/>
      <point x="608" y="39"/>
      <point x="645" y="-41"/>
      <point x="696" y="-41" type="curve" smooth="yes"/>
      <point x="741" y="-41"/>
      <point x="811" y="-8"/>
    </contour>
    <contour>
      <point x="813" y="811" type="line"/>
      <point x="736" y="811"/>
      <point x="668" y="936"/>
      <point x="592" y="936" type="curve" smooth="yes"/>
      <point x="510" y="936"/>
      <point x="405" y="890"/>
      <point x="332" y="842" type="curve" smooth="yes"/>
      <point x="142" y="717"/>
      <point x="53" y="526"/>
      <point x="53" y="315" type="curve" smooth="yes"/>
      <point x="53" y="66"/>
      <point x="186" y="-41"/>
      <point x="276" y="-41" type="curve" smooth="yes"/>
      <point x="393" y="-41"/>
      <point x="520" y="115"/>
      <point x="610" y="285" type="curve"/>
      <point x="641" y="463" type="line"/>
      <point x="539" y="260"/>
      <point x="424" y="96"/>
      <point x="346" y="96" type="curve" smooth="yes"/>
      <point x="268" y="96"/>
      <point x="190" y="207"/>
      <point x="190" y="379" type="curve" smooth="yes"/>
      <point x="190" y="537"/>
      <point x="307" y="831"/>
      <point x="489" y="831" type="curve" smooth="yes"/>
      <point x="616" y="831"/>
      <point x="696" y="659"/>
      <point x="745" y="659" type="curve"/>
    </contour>
  </outline>
</glyph>
<glyph name="LtnSmE" format="2">
  <advance width="805"/>
  <unicode hex="0065"/>
  <anchor x="358" y="0" name="H"/>
  <anchor x="344" y="-100" name="L"/>
  <anchor x="408" y="0" name="O"/>
  <anchor x="884" y="870" name="R"/>
  <anchor x="510" y="1000" name="U"/>
  <outline>
    <contour>
      <point x="750" y="760" type="curve"/>
      <point x="750" y="846"/>
      <point x="696" y="936"/>
      <point x="582" y="936" type="curve" smooth="yes"/>
      <point x="500" y="936"/>
      <point x="404" y="894"/>
      <point x="342" y="846" type="curve" smooth="yes"/>
      <point x="166" y="710"/>
      <point x="63" y="512"/>
      <point x="63" y="303" type="curve" smooth="yes"/>
      <point x="63" y="51"/>
      <point x="217" y="-41"/>
      <point x="305" y="-41" type="curve" smooth="yes"/>
      <point x="401" y="-41"/>
      <point x="508" y="-10"/>
      <point x="727" y="180" type="curve"/>
      <point x="723" y="190"/>
      <point x="711" y="213"/>
      <point x="696" y="221" type="curve"/>
      <point x="535" y="92"/>
      <point x="434" y="76"/>
      <point x="377" y="76" type="curve" smooth="yes"/>
      <point x="299" y="76"/>
      <point x="205" y="203"/>
      <point x="205" y="377" type="curve" smooth="yes"/>
      <point x="205" y="524"/>
      <point x="297" y="698"/>
      <point x="391" y="782" type="curve" smooth="yes"/>
      <point x="430" y="817"/>
      <point x="477" y="831"/>
      <point x="498" y="831" type="curve" smooth="yes"/>
      <point x="543" y="831"/>
      <point x="590" y="799"/>
      <point x="590" y="715" type="curve" smooth="yes"/>
      <point x="590" y="616"/>
      <point x="553" y="530"/>
      <point x="143" y="381" type="curve"/>
      <point x="150" y="307" type="line"/>
      <point x="686" y="496"/>
      <point x="750" y="643"/>
    </contour>
  </outline>
</glyph>
<glyph name="LtnSmF" format="2">
  <advance width="559"/>
  <unicode hex="0066"/>
  <anchor x="-50" y="-450" name="H"/>
  <anchor x="420" y="-100" name="L"/>
  <anchor x="580" y="1640" name="U"/>
  <outline>
    <contour>
      <point x="653" y="877" type="curve"/>
      <point x="633" y="905" type="line"/>
      <point x="154" y="905" type="line"/>
      <point x="53" y="846" type="line"/>
      <point x="68" y="815" type="line"/>
      <point x="373" y="815" type="line" smooth="yes"/>
      <point x="473" y="815"/>
      <point x="512" y="807"/>
      <point x="526" y="770" type="curve"/>
      <point x="553" y="784"/>
      <point x="627" y="840"/>
    </contour>
    <contour>
      <point x="903" y="1403" type="curve"/>
      <point x="862" y="1417"/>
      <point x="791" y="1520"/>
      <point x="674" y="1520" type="curve" smooth="yes"/>
      <point x="592" y="1520"/>
      <point x="530" y="1479"/>
      <point x="459" y="1427" type="curve" smooth="yes"/>
      <point x="289" y="1300"/>
      <point x="254" y="1116"/>
      <point x="229" y="899" type="curve" smooth="yes"/>
      <point x="141" y="139" type="line" smooth="yes"/>
      <point x="116" y="-80"/>
      <point x="33" y="-348"/>
      <point x="-100" y="-422" type="curve"/>
      <point x="-74" y="-485" type="line"/>
      <point x="123" y="-365"/>
      <point x="261" y="-100"/>
      <point x="295" y="193" type="curve" smooth="yes"/>
      <point x="383" y="952" type="line" smooth="yes"/>
      <point x="403" y="1122"/>
      <point x="446" y="1417"/>
      <point x="596" y="1417" type="curve" smooth="yes"/>
      <point x="672" y="1417"/>
      <point x="702" y="1305"/>
      <point x="737" y="1305" type="curve" smooth="yes"/>
      <point x="770" y="1305"/>
      <point x="846" y="1362"/>
    </contour>
  </outline>
</glyph>
<glyph name="LtnSmV" format="2">
  <advance width="913"/>
  <unicode hex="0076"/>
  <anchor x="400" y="0" name="H"/>
  <anchor x="375" y="-100" name="L"/>
  <anchor x="382" y="0" name="O"/>
  <anchor x="526" y="1000" name="U"/>
  <outline>
    <contour>
      <point x="893" y="852" type="curve"/>
      <point x="893" y="915"/>
      <point x="866" y="936"/>
      <point x="819" y="936" type="curve" smooth="yes"/>
      <point x="774" y="936"/>
      <point x="670" y="897"/>
      <point x="594" y="858" type="curve"/>
      <point x="612" y="823" type="line"/>
      <point x="641" y="834"/>
      <point x="670" y="838"/>
      <point x="692" y="838" type="curve" smooth="yes"/>
      <point x="729" y="838"/>
      <point x="754" y="823"/>
      <point x="754" y="797" type="curve" smooth="yes"/>
      <point x="754" y="729"/>
      <point x="653" y="471"/>
      <point x="455" y="150" type="curve"/>
      <point x="455" y="201"/>
      <point x="369" y="707"/>
      <point x="340" y="809" type="curve" smooth="yes"/>
      <point x="313" y="903"/>
      <point x="299" y="936"/>
      <point x="260" y="936" type="curve" smooth="yes"/>
      <point x="227" y="936"/>
      <point x="128" y="891"/>
      <point x="16" y="840" type="curve"/>
      <point x="29" y="803" type="line"/>
      <point x="58" y="812"/>
      <point x="108" y="827"/>
      <point x="127" y="827" type="curve" smooth="yes"/>
      <point x="150" y="827"/>
      <point x="179" y="817"/>
      <point x="199" y="745" type="curve" smooth="yes"/>
      <point x="232" y="623"/>
      <point x="303" y="215"/>
      <point x="330" y="-10" type="curve"/>
      <point x="362" y="-41" type="line"/>
      <point x="389" y="-30"/>
      <point x="434" y="-10"/>
      <point x="457" y="2" type="curve"/>
      <point x="784" y="528"/>
      <point x="893" y="766"/>
    </contour>
  </outline>
</glyph>
<glyph name="VertLine" format="2">
  <advance width="525"/>
  <unicode hex="007C"/>
  <outline>
    <contour>
      <point x="495" y="1578" type="line"/>
      <point x="465" y="1600" type="line"/>
      <point x="426" y="1590"/>
      <point x="389" y="1574"/>
      <point x="352" y="1551" type="curve"/>
      <point x="70" y="-475" type="line"/>
      <point x="99" y="-500" type="line"/>
      <point x="131" y="-490"/>
      <point x="187" y="-467"/>
      <point x="213" y="-449" type="curve"/>
    </contour>
  </outline>
</glyph>
<glyph name="InvExclamationMrk" format="2">
  <advance width="410"/>
  <unicode hex="00A1"/>
  <outline>
    <contour>
      <point x="242" y="528" type="line"/>
      <point x="217" y="549" type="line"/>
      <point x="186" y="539"/>
      <point x="170" y="528"/>
      <point x="143" y="510" type="curve"/>
      <point x="-51" y="-512" type="line"/>
      <point x="-14" y="-537" type="line"/>
      <point x="39" y="-522"/>
      <point x="117" y="-469"/>
      <point x="158" y="-442" type="curve"/>
    </contour>
    <contour>
      <point x="111" y="748" type="curve"/>
      <point x="111" y="692"/>
      <point x="143" y="653"/>
      <point x="195" y="653" type="curve" smooth="yes"/>
      <point x="279" y="653"/>
      <point x="344" y="754"/>
      <point x="344" y="831" type="curve" smooth="yes"/>
      <point x="344" y="891"/>
      <point x="311" y="930"/>
      <point x="258" y="930" type="curve" smooth="yes"/>
      <point x="170" y="930"/>
      <point x="111" y="829"/>
    </contour>
  </outline>
</glyph>
<glyph name="YenSgn" format="2">
  <advance width="823"/>
  <unicode hex="00A5"/>
  <outline>
    <contour>
      <point x="977" y="1221" type="line"/>
      <point x="665" y="1221" type="line"/>
      <point x="660" y="1179" type="line"/>
      <point x="738" y="1167"/>
      <point x="764" y="1150"/>
      <point x="743" y="1115" type="curve" smooth="yes"/>
      <point x="475" y="657" type="line"/>
      <point x="449" y="786"/>
      <point x="344" y="1070"/>
      <point x="267" y="1199" type="curve" smooth="yes"/>
      <point x="253" y="1223"/>
      <point x="237" y="1236"/>
      <point x="223" y="1236" type="curve" smooth="yes"/>
      <point x="179" y="1236"/>
      <point x="84" y="1214"/>
      <point x="22" y="1197" type="curve"/>
      <point x="30" y="1155" type="line"/>
      <point x="111" y="1167"/>
      <point x="136" y="1157"/>
      <point x="159" y="1119" type="curve" smooth="yes"/>
      <point x="237" y="989"/>
      <point x="335" y="723"/>
      <point x="378" y="534" type="curve"/>
      <point x="375" y="511" type="line"/>
      <point x="162" y="511" type="line"/>
      <point x="154" y="490"/>
      <point x="145" y="468"/>
      <point x="137" y="447" type="curve"/>
      <point x="151" y="422" type="line"/>
      <point x="364" y="422" type="line"/>
      <point x="326" y="111" type="line" smooth="yes"/>
      <point x="324" y="93"/>
      <point x="287" y="66"/>
      <point x="188" y="42" type="curve"/>
      <point x="182" y="0" type="line"/>
      <point x="569" y="0" type="line"/>
      <point x="574" y="42" type="line"/>
      <point x="479" y="66"/>
      <point x="450" y="95"/>
      <point x="452" y="111" type="curve" smooth="yes"/>
      <point x="490" y="422" type="line"/>
      <point x="700" y="422" type="line"/>
      <point x="728" y="488" type="line"/>
      <point x="711" y="511" type="line"/>
      <point x="501" y="511" type="line"/>
      <point x="502" y="524" type="line"/>
      <point x="841" y="1115" type="line" smooth="yes"/>
      <point x="860" y="1149"/>
      <point x="899" y="1163"/>
      <point x="972" y="1179" type="curve"/>
    </contour>
  </outline>
</glyph>
<glyph name="Macron" format="2">
  <advance width="801"/>
  <unicode hex="00AF"/>
  <outline>
    <contour>
      <point x="834" y="1258" type="curve"/>
      <point x="815" y="1283" type="line"/>
      <point x="268" y="1283" type="line"/>
      <point x="253" y="1256"/>
      <point x="229" y="1208"/>
      <point x="219" y="1181" type="curve"/>
      <point x="235" y="1157" type="line"/>
      <point x="784" y="1157" type="line"/>
      <point x="797" y="1179"/>
      <point x="825" y="1229"/>
    </contour>
  </outline>
</glyph>
<glyph name="DegreeSgn" format="2">
  <advance width="628"/>
  <unicode hex="00B0"/>
  <outline>
    <contour>
      <point x="614" y="1073" type="curve" smooth="yes"/>
      <point x="614" y="1163"/>
      <point x="551" y="1235"/>
      <point x="466" y="1235" type="curve" smooth="yes"/>
      <point x="350" y="1235"/>
      <point x="178" y="1093"/>
      <point x="178" y="918" type="curve" smooth="yes"/>
      <point x="178" y="829"/>
      <point x="237" y="759"/>
      <point x="326" y="759" type="curve" smooth="yes"/>
      <point x="426" y="759"/>
      <point x="614" y="885"/>
    </contour>
    <contour>
      <point x="362" y="851" type="curve" smooth="yes"/>
      <point x="311" y="851"/>
      <point x="284" y="904"/>
      <point x="284" y="966" type="curve" smooth="yes"/>
      <point x="284" y="1062"/>
      <point x="358" y="1142"/>
      <point x="429" y="1142" type="curve" smooth="yes"/>
      <point x="480" y="1142"/>
      <point x="509" y="1092"/>
      <point x="509" y="1028" type="curve" smooth="yes"/>
      <point x="509" y="953"/>
      <point x="455" y="851"/>
    </contour>
  </outline>
</glyph>
<glyph name="PlusMinusSgn" format="2">
  <advance width="770"/>
  <unicode hex="00B1"/>
  <outline>
    <contour>
      <point x="517" y="972" type="line"/>
      <point x="495" y="995" type="line"/>
      <point x="469" y="988"/>
      <point x="420" y="974"/>
      <point x="398" y="966" type="curve"/>
      <point x="314" y="362" type="line"/>
      <point x="335" y="340" type="line"/>
      <point x="362" y="346"/>
      <point x="409" y="358"/>
      <point x="433" y="371" type="curve"/>
    </contour>
    <contour>
      <point x="672" y="256" type="curve"/>
      <point x="654" y="280" type="line"/>
      <point x="68" y="280" type="line"/>
      <point x="54" y="254"/>
      <point x="37" y="216"/>
      <point x="27" y="189" type="curve"/>
      <point x="46" y="165" type="line"/>
      <point x="633" y="165" type="line"/>
      <point x="645" y="187"/>
      <point x="664" y="229"/>
    </contour>
    <contour>
      <point x="734" y="701" type="curve"/>
      <point x="716" y="725" type="line"/>
      <point x="130" y="725" type="line"/>
      <point x="116" y="699"/>
      <point x="99" y="661"/>
      <point x="89" y="634" type="curve"/>
      <point x="108" y="610" type="line"/>
      <point x="695" y="610" type="line"/>
      <point x="707" y="632"/>
      <point x="726" y="674"/>
    </contour>
  </outline>
</glyph>
<glyph name="PilcrowSgn" format="2">
  <advance width="1020"/>
  <unicode hex="00B6"/>
  <outline>
    <contour>
      <point x="1040" y="1260" type="line"/>
      <point x="975" y="1260" type="line"/>
      <point x="975" y="1260"/>
      <point x="680" y="1290"/>
      <point x="571" y="1290" type="curve" smooth="yes"/>
      <point x="322" y="1290"/>
      <point x="125" y="1130"/>
      <point x="92" y="903" type="curve"/>
      <point x="57" y="653"/>
      <point x="229" y="526"/>
      <point x="461" y="526" type="curve" smooth="yes"/>
      <point x="495" y="526"/>
      <point x="521" y="528"/>
      <point x="544" y="532" type="curve"/>
      <point x="449" y="-145" type="line"/>
      <point x="444" y="-164"/>
      <point x="391" y="-188"/>
      <point x="305" y="-207" type="curve"/>
      <point x="299" y="-250" type="line"/>
      <point x="829" y="-250" type="line"/>
      <point x="836" y="-207" type="line"/>
      <point x="748" y="-188"/>
      <point x="707" y="-162"/>
      <point x="709" y="-145" type="curve" smooth="yes"/>
      <point x="891" y="1155" type="line"/>
      <point x="893" y="1174"/>
      <point x="948" y="1198"/>
      <point x="1034" y="1217" type="curve"/>
    </contour>
    <contour>
      <point x="512" y="610" type="line"/>
      <point x="297" y="610"/>
      <point x="229" y="793"/>
      <point x="252" y="938" type="curve"/>
      <point x="272" y="1087"/>
      <point x="393" y="1206"/>
      <point x="543" y="1206" type="curve" smooth="yes"/>
      <point x="569" y="1206"/>
      <point x="601" y="1204"/>
      <point x="638" y="1200" type="curve"/>
      <point x="555" y="610" type="line"/>
    </contour>
    <contour>
      <point x="799" y="1160" type="curve"/>
      <point x="614" y="-145" type="line" smooth="yes"/>
      <point x="612" y="-160"/>
      <point x="588" y="-172"/>
      <point x="573" y="-176" type="curve"/>
      <point x="561" y="-172"/>
      <point x="541" y="-160"/>
      <point x="543" y="-145" type="curve" smooth="yes"/>
      <point x="727" y="1182" type="line"/>
      <point x="750" y="1176"/>
      <point x="775" y="1169"/>
    </contour>
  </outline>
</glyph>
<glyph name="MiddleDot" format="2">
  <advance width="410"/>
  <unicode hex="00B7"/>
  <outline>
    <contour>
      <point x="336" y="678" type="curve"/>
      <point x="336" y="733"/>
      <point x="304" y="772"/>
      <point x="254" y="772" type="curve" smooth="yes"/>
      <point x="170" y="772"/>
      <point x="105" y="672"/>
      <point x="105" y="596" type="curve" smooth="yes"/>
      <point x="105" y="537"/>
      <point x="136" y="498"/>
      <point x="189" y="498" type="curve" smooth="yes"/>
      <point x="279" y="498"/>
      <point x="336" y="598"/>
    </contour>
  </outline>
</glyph>
<glyph name="Cedilla" format="2">
  <advance width="324"/>
  <unicode hex="00B8"/>
  <anchor x="24" y="-600" name="L"/>
  <outline>
    <contour>
      <point x="220" y="-221" type="curve"/>
      <point x="220" y="-156"/>
      <point x="173" y="-115"/>
      <point x="105" y="-113" type="curve"/>
      <point x="115" y="-80"/>
      <point x="131" y="-5"/>
      <point x="142" y="50" type="curve"/>
      <point x="74" y="52" type="line"/>
      <point x="60" y="-23"/>
      <point x="37" y="-115"/>
      <point x="0" y="-215" type="curve"/>
      <point x="62" y="-213"/>
      <point x="93" y="-233"/>
      <point x="93" y="-268" type="curve" smooth="yes"/>
      <point x="93" y="-332"/>
      <point x="13" y="-401"/>
      <point x="-126" y="-336" type="curve"/>
      <point x="-124" y="-375" type="line"/>
      <point x="37" y="-469"/>
      <point x="220" y="-362"/>
    </contour>
  </outline>
</glyph>
<glyph name="RtPtngDblAngQuotMrk" format="2">
  <advance width="882"/>
  <unicode hex="00BB"/>
  <outline>
    <contour>
      <point x="478" y="485" type="curve"/>
      <point x="214" y="889" type="line"/>
      <point x="172" y="860" type="line"/>
      <point x="171" y="860"/>
      <point x="324" y="448"/>
      <point x="321" y="450" type="curve"/>
      <point x="60" y="36" type="line"/>
      <point x="94" y="7" type="line"/>
      <point x="470" y="414" type="line"/>
      <point x="470" y="414"/>
      <point x="479" y="482"/>
    </contour>
    <contour>
      <point x="806" y="485" type="curve"/>
      <point x="542" y="889" type="line"/>
      <point x="500" y="860" type="line"/>
      <point x="499" y="860"/>
      <point x="652" y="448"/>
      <point x="649" y="450" type="curve"/>
      <point x="388" y="36" type="line"/>
      <point x="422" y="7" type="line"/>
      <point x="798" y="414" type="line"/>
      <point x="798" y="414"/>
      <point x="807" y="482"/>
    </contour>
  </outline>
</glyph>
<glyph name="VulgFracThreeQuarters" format="2">
  <advance width="1110"/>
  <unicode hex="00BE"/>
  <outline>
    <contour>
      <point x="1090" y="1207" type="line"/>
      <point x="1071" y="1235" type="line"/>
      <point x="1044" y="1229"/>
      <point x="1011" y="1214"/>
      <point x="987" y="1203" type="curve"/>
      <point x="128" y="0" type="line"/>
      <point x="146" y="-30" type="line"/>
      <point x="180" y="-21"/>
      <point x="205" y="-12"/>
      <point x="235" y="3" type="curve"/>
    </contour>
    <contour>
      <point x="534" y="821" type="curve" smooth="yes"/>
      <point x="545" y="898"/>
      <point x="495" y="964"/>
      <point x="419" y="973" type="curve"/>
      <point x="488" y="995"/>
      <point x="536" y="1049"/>
      <point x="543" y="1097" type="curve" smooth="yes"/>
      <point x="552" y="1162"/>
      <point x="515" y="1230"/>
      <point x="411" y="1230" type="curve" smooth="yes"/>
      <point x="305" y="1230"/>
      <point x="201" y="1154"/>
      <point x="193" y="1101" type="curve"/>
      <point x="205" y="1085" type="line"/>
      <point x="234" y="1088"/>
      <point x="269" y="1093"/>
      <point x="293" y="1105" type="curve"/>
      <point x="291" y="1148"/>
      <point x="324" y="1177"/>
      <point x="375" y="1177" type="curve" smooth="yes"/>
      <point x="436" y="1177"/>
      <point x="454" y="1133"/>
      <point x="448" y="1089" type="curve" smooth="yes"/>
      <point x="442" y="1049"/>
      <point x="420" y="998"/>
      <point x="296" y="966" type="curve"/>
      <point x="297" y="929" type="line"/>
      <point x="319" y="933"/>
      <point x="313" y="933"/>
      <point x="332" y="933" type="curve" smooth="yes"/>
      <point x="390" y="933"/>
      <point x="450" y="901"/>
      <point x="437" y="805" type="curve" smooth="yes"/>
      <point x="425" y="723"/>
      <point x="367" y="680"/>
      <point x="288" y="680" type="curve" smooth="yes"/>
      <point x="238" y="680"/>
      <point x="196" y="692"/>
      <point x="141" y="735" type="curve"/>
      <point x="119" y="702" type="line"/>
      <point x="172" y="647"/>
      <point x="233" y="623"/>
      <point x="294" y="623" type="curve" smooth="yes"/>
      <point x="425" y="623"/>
      <point x="519" y="713"/>
    </contour>
    <contour>
      <point x="992" y="210" type="curve"/>
      <point x="980" y="226" type="line"/>
      <point x="925" y="226" type="line"/>
      <point x="975" y="581" type="line"/>
      <point x="960" y="598" type="line"/>
      <point x="937" y="588"/>
      <point x="901" y="575"/>
      <point x="872" y="563" type="curve"/>
      <point x="565" y="180" type="line"/>
      <point x="580" y="164" type="line"/>
      <point x="832" y="164" type="line"/>
      <point x="817" y="63" type="line"/>
      <point x="816" y="52"/>
      <point x="802" y="42"/>
      <point x="713" y="29" type="curve"/>
      <point x="709" y="0" type="line"/>
      <point x="957" y="0" type="line"/>
      <point x="961" y="29" type="line"/>
      <point x="906" y="41"/>
      <point x="900" y="48"/>
      <point x="902" y="58" type="curve" smooth="yes"/>
      <point x="917" y="164" type="line"/>
      <point x="945" y="164" type="line"/>
      <point x="961" y="175"/>
      <point x="974" y="190"/>
    </contour>
    <contour>
      <point x="840" y="226" type="line"/>
      <point x="658" y="226" type="line"/>
      <point x="878" y="491" type="line"/>
    </contour>
  </outline>
</glyph>
<glyph name="LtnCapAe" format="2">
  <advance width="1464"/>
  <unicode hex="00C6"/>
  <anchor x="721" y="-100" name="L"/>
  <anchor x="986" y="1320" name="U"/>
  <outline>
    <contour>
      <point x="1380" y="244" type="curve"/>
      <point x="1343" y="262" type="line"/>
      <point x="1270" y="106"/>
      <point x="1229" y="90"/>
      <point x="1118" y="90" type="curve" smooth="yes"/>
      <point x="1004" y="90" type="line" smooth="yes"/>
      <point x="844" y="90"/>
      <point x="823" y="115"/>
      <point x="827" y="154" type="curve"/>
      <point x="897" y="655" type="line"/>
      <point x="1024" y="655" type="line" smooth="yes"/>
      <point x="1124" y="655"/>
      <point x="1163" y="639"/>
      <point x="1194" y="600" type="curve"/>
      <point x="1223" y="621"/>
      <point x="1266" y="670"/>
      <point x="1292" y="707" type="curve"/>
      <point x="1272" y="735" type="line"/>
      <point x="907" y="735" type="line"/>
      <point x="967" y="1169" type="line"/>
      <point x="1294" y="1169" type="line" smooth="yes"/>
      <point x="1341" y="1169"/>
      <point x="1358" y="1133"/>
      <point x="1348" y="1010" type="curve"/>
      <point x="1389" y="1010" type="line"/>
      <point x="1411" y="1061"/>
      <point x="1442" y="1167"/>
      <point x="1454" y="1235" type="curve"/>
      <point x="1432" y="1260" type="line"/>
      <point x="479" y="1260" type="line"/>
      <point x="473" y="1217" type="line"/>
      <point x="588" y="1192"/>
      <point x="657" y="1178"/>
      <point x="635" y="1133" type="curve" smooth="yes"/>
      <point x="121" y="111" type="line" smooth="yes"/>
      <point x="102" y="72"/>
      <point x="53" y="59"/>
      <point x="-29" y="43" type="curve"/>
      <point x="-35" y="0" type="line"/>
      <point x="340" y="0" type="line"/>
      <point x="344" y="43" type="line"/>
      <point x="250" y="55"/>
      <point x="217" y="72"/>
      <point x="238" y="111" type="curve" smooth="yes"/>
      <point x="510" y="655" type="line"/>
      <point x="752" y="655" type="line"/>
      <point x="678" y="104" type="line" smooth="yes"/>
      <point x="676" y="86"/>
      <point x="623" y="61"/>
      <point x="539" y="43" type="curve"/>
      <point x="532" y="0" type="line"/>
      <point x="1309" y="0" type="line"/>
      <point x="1325" y="39"/>
      <point x="1354" y="129"/>
    </contour>
    <contour>
      <point x="764" y="735" type="line"/>
      <point x="551" y="735" type="line"/>
      <point x="745" y="1130" type="line" smooth="yes"/>
      <point x="768" y="1178"/>
      <point x="823" y="1176"/>
      <point x="819" y="1147" type="curve" smooth="yes"/>
    </contour>
  </outline>
</glyph>
<glyph name="LtnSmEth" format="2">
  <advance width="885"/>
  <unicode hex="00F0"/>
  <anchor x="365" y="-100" name="L"/>
  <anchor x="598" y="1580" name="U"/>
  <outline>
    <contour>
      <point x="913" y="1290" type="line"/>
      <point x="911" y="1325" type="line"/>
      <point x="883" y="1337"/>
      <point x="887" y="1337"/>
      <point x="834" y="1348" type="curve"/>
      <point x="276" y="1096" type="line"/>
      <point x="281" y="1061" type="line"/>
      <point x="317" y="1047"/>
      <point x="315" y="1047"/>
      <point x="358" y="1040" type="curve"/>
    </contour>
    <contour>
      <point x="844" y="707" type="curve"/>
      <point x="844" y="961"/>
      <point x="739" y="1200"/>
      <point x="481" y="1409" type="curve"/>
      <point x="293" y="1337" type="line"/>
      <point x="293" y="1296" type="line"/>
      <point x="424" y="1317"/>
      <point x="496" y="1235"/>
      <point x="565" y="1147" type="curve" smooth="yes"/>
      <point x="655" y="1030"/>
      <point x="711" y="899"/>
      <point x="711" y="717" type="curve" smooth="yes"/>
      <point x="711" y="457"/>
      <point x="629" y="68"/>
      <point x="395" y="68" type="curve" smooth="yes"/>
      <point x="287" y="68"/>
      <point x="193" y="215"/>
      <point x="193" y="397" type="curve" smooth="yes"/>
      <point x="193" y="569"/>
      <point x="285" y="825"/>
      <point x="463" y="825" type="curve" smooth="yes"/>
      <point x="590" y="825"/>
      <point x="731" y="662"/>
      <point x="705" y="457" type="curve"/>
      <point x="760" y="649" type="line"/>
      <point x="766" y="770"/>
      <point x="625" y="936"/>
      <point x="504" y="936" type="curve" smooth="yes"/>
      <point x="262" y="936"/>
      <point x="53" y="635"/>
      <point x="53" y="324" type="curve" smooth="yes"/>
      <point x="53" y="113"/>
      <point x="164" y="-41"/>
      <point x="362" y="-41" type="curve" smooth="yes"/>
      <point x="600" y="-41"/>
      <point x="844" y="285"/>
    </contour>
  </outline>
</glyph>
<glyph name="LtnSmDCaron" format="2">
  <advance width="1120"/>
  <unicode hex="010F"/>
  <anchor x="700" y="0" name="H"/>
  <anchor x="374" y="-100" name="L"/>
  <anchor x="455" y="1000" name="U"/>
  <outline>
    <component base="LtnSmD"/>
    <contour>
      <point x="1005" y="1051" type="curve"/>
      <point x="1104" y="1193"/>
      <point x="1190" y="1367"/>
      <point x="1225" y="1496" type="curve"/>
      <point x="1216" y="1512"/>
      <point x="1204" y="1524"/>
      <point x="1191" y="1534" type="curve"/>
      <point x="1163" y="1530"/>
      <point x="1080" y="1505"/>
      <point x="1049" y="1490" type="curve"/>
      <point x="1052" y="1390"/>
      <point x="1025" y="1233"/>
      <point x="933" y="1035" type="curve"/>
      <point x="959" y="1037"/>
      <point x="984" y="1043"/>
    </contour>
  </outline>
</glyph>
<glyph name="LtnCapHStrk" format="2">
  <advance width="1235"/>
  <unicode hex="0126"/>
  <anchor x="542" y="-100" name="L"/>
  <anchor x="737" y="1320" name="U"/>
  <outline>
    <contour>
      <point x="1286" y="1260" type="line"/>
      <point x="874" y="1260" type="line"/>
      <point x="870" y="1217" type="line"/>
      <point x="954" y="1198"/>
      <point x="995" y="1171"/>
      <point x="993" y="1155" type="curve" smooth="yes"/>
      <point x="848" y="104" type="line" smooth="yes"/>
      <point x="846" y="86"/>
      <point x="793" y="61"/>
      <point x="709" y="43" type="curve"/>
      <point x="702" y="0" type="line"/>
      <point x="1112" y="0" type="line"/>
      <point x="1118" y="43" type="line"/>
      <point x="1032" y="61"/>
      <point x="991" y="88"/>
      <point x="993" y="104" type="curve" smooth="yes"/>
      <point x="1139" y="1155" type="line" smooth="yes"/>
      <point x="1141" y="1174"/>
      <point x="1196" y="1198"/>
      <point x="1280" y="1217" type="curve"/>
    </contour>
    <contour>
      <point x="948" y="705" type="line"/>
      <point x="348" y="705" type="line"/>
      <point x="334" y="615" type="line"/>
      <point x="936" y="615" type="line"/>
    </contour>
    <contour>
      <point x="584" y="1260" type="line"/>
      <point x="174" y="1260" type="line"/>
      <point x="168" y="1217" type="line"/>
      <point x="254" y="1198"/>
      <point x="295" y="1171"/>
      <point x="293" y="1155" type="curve" smooth="yes"/>
      <point x="147" y="104" type="line" smooth="yes"/>
      <point x="145" y="86"/>
      <point x="90" y="61"/>
      <point x="6" y="43" type="curve"/>
      <point x="0" y="0" type="line"/>
      <point x="410" y="0" type="line"/>
      <point x="416" y="43" type="line"/>
      <point x="332" y="61"/>
      <point x="289" y="88"/>
      <point x="293" y="104" type="curve"/>
      <point x="436" y="1155" type="line"/>
      <point x="440" y="1174"/>
      <point x="494" y="1198"/>
      <point x="578" y="1217" type="curve"/>
    </contour>
    <contour>
      <point x="1243" y="957" type="line"/>
      <point x="1224" y="980" type="line"/>
      <point x="156" y="980" type="line"/>
      <point x="146" y="959"/>
      <point x="136" y="935"/>
      <point x="128" y="915" type="curve"/>
      <point x="144" y="890" type="line"/>
      <point x="1214" y="890" type="line"/>
    </contour>
  </outline>
</glyph>
<glyph name="LtnCapLCaron" format="2">
  <advance width="918"/>
  <unicode hex="013D"/>
  <anchor x="402" y="0" name="H"/>
  <anchor x="393" y="-100" name="L"/>
  <anchor x="557" y="1320" name="U"/>
  <outline>
    <component base="LtnCapL"/>
    <contour>
      <point x="695" y="1051" type="curve"/>
      <point x="794" y="1193"/>
      <point x="880" y="1367"/>
      <point x="915" y="1496" type="curve"/>
      <point x="906" y="1512"/>
      <point x="894" y="1524"/>
      <point x="881" y="1534" type="curve"/>
      <point x="853" y="1530"/>
      <point x="770" y="1505"/>
      <point x="739" y="1490" type="curve"/>
      <point x="742" y="1390"/>
      <point x="715" y="1233"/>
      <point x="623" y="1035" type="curve"/>
      <point x="649" y="1037"/>
      <point x="674" y="1043"/>
    </contour>
  </outline>
</glyph>
<glyph name="LtnCapEng" format="2">
  <advance width="1146"/>
  <unicode hex="014A"/>
  <anchor x="473" y="-600" name="L"/>
  <anchor x="736" y="1320" name="U"/>
  <outline>
    <contour>
      <point x="1106" y="1042" type="curve"/>
      <point x="1106" y="1235"/>
      <point x="1001" y="1290"/>
      <point x="911" y="1290" type="curve" smooth="yes"/>
      <point x="782" y="1290"/>
      <point x="571" y="1192"/>
      <point x="403" y="920" type="curve"/>
      <point x="424" y="1008"/>
      <point x="434" y="1139"/>
      <point x="434" y="1184" type="curve" smooth="yes"/>
      <point x="434" y="1247"/>
      <point x="426" y="1290"/>
      <point x="393" y="1290" type="curve" smooth="yes"/>
      <point x="356" y="1290"/>
      <point x="246" y="1260"/>
      <point x="106" y="1208" type="curve"/>
      <point x="117" y="1153" type="line"/>
      <point x="268" y="1194"/>
      <point x="299" y="1194"/>
      <point x="276" y="1038" type="curve" smooth="yes"/>
      <point x="147" y="104" type="line" smooth="yes"/>
      <point x="145" y="86"/>
      <point x="90" y="61"/>
      <point x="6" y="43" type="curve"/>
      <point x="0" y="0" type="line"/>
      <point x="410" y="0" type="line"/>
      <point x="416" y="43" type="line"/>
      <point x="332" y="61"/>
      <point x="289" y="88"/>
      <point x="293" y="104" type="curve"/>
      <point x="358" y="586" type="line" smooth="yes"/>
      <point x="408" y="954"/>
      <point x="725" y="1151"/>
      <point x="834" y="1151" type="curve" smooth="yes"/>
      <point x="903" y="1151"/>
      <point x="950" y="1106"/>
      <point x="950" y="975" type="curve" smooth="yes"/>
      <point x="950" y="936"/>
      <point x="948" y="893"/>
      <point x="940" y="842" type="curve"/>
      <point x="848" y="160" type="line" smooth="yes"/>
      <point x="803" y="-170"/>
      <point x="702" y="-328"/>
      <point x="528" y="-328" type="curve" smooth="yes"/>
      <point x="418" y="-328"/>
      <point x="383" y="-215"/>
      <point x="358" y="-215" type="curve" smooth="yes"/>
      <point x="315" y="-215"/>
      <point x="219" y="-305"/>
      <point x="219" y="-326" type="curve" smooth="yes"/>
      <point x="219" y="-365"/>
      <point x="317" y="-444"/>
      <point x="434" y="-444" type="curve" smooth="yes"/>
      <point x="522" y="-444"/>
      <point x="641" y="-403"/>
      <point x="705" y="-352" type="curve" smooth="yes"/>
      <point x="840" y="-246"/>
      <point x="963" y="-63"/>
      <point x="999" y="213" type="curve" smooth="yes"/>
      <point x="1100" y="950" type="line" smooth="yes"/>
      <point x="1104" y="985"/>
      <point x="1106" y="1016"/>
    </contour>
  </outline>
</glyph>
<glyph name="LtnSmTCaron" format="2">
  <advance width="649"/>
  <unicode hex="0165"/>
  <anchor x="253" y="0" name="H"/>
  <anchor x="239" y="-100" name="L"/>
  <anchor x="424" y="1230" name="U"/>
  <outline>
    <component base="LtnSmT"/>
    <contour>
      <point x="535" y="1051" type="curve"/>
      <point x="634" y="1193"/>
      <point x="720" y="1367"/>
      <point x="755" y="1496" type="curve"/>
      <point x="746" y="1512"/>
      <point x="734" y="1524"/>
      <point x="721" y="1534" type="curve"/>
      <point x="693" y="1530"/>
      <point x="610" y="1505"/>
      <point x="579" y="1490" type="curve"/>
      <point x="582" y="1390"/>
      <point x="555" y="1233"/>
      <point x="463" y="1035" type="curve"/>
      <point x="489" y="1037"/>
      <point x="514" y="1043"/>
    </contour>
  </outline>
</glyph>
<glyph name="LtnCapBHook" format="2">
  <advance width="1221"/>
  <unicode hex="0181"/>
  <anchor x="583" y="-100" name="L"/>
  <anchor x="778" y="1320" name="U"/>
  <outline>
    <contour>
      <point x="1141" y="410" type="curve"/>
      <point x="1141" y="569"/>
      <point x="1049" y="692"/>
      <point x="914" y="723" type="curve"/>
      <point x="1041" y="774"/>
      <point x="1135" y="901"/>
      <point x="1135" y="1040" type="curve" smooth="yes"/>
      <point x="1135" y="1196"/>
      <point x="1020" y="1290"/>
      <point x="705" y="1290" type="curve" smooth="yes"/>
      <point x="334" y="1290"/>
      <point x="146" y="1176"/>
      <point x="123" y="1003" type="curve" smooth="yes"/>
      <point x="113" y="930"/>
      <point x="138" y="877"/>
      <point x="179" y="856" type="curve"/>
      <point x="230" y="867"/>
      <point x="314" y="914"/>
      <point x="323" y="930" type="curve"/>
      <point x="288" y="949"/>
      <point x="269" y="988"/>
      <point x="275" y="1036" type="curve" smooth="yes"/>
      <point x="299" y="1208"/>
      <point x="566" y="1206"/>
      <point x="688" y="1206" type="curve" smooth="yes"/>
      <point x="890" y="1206"/>
      <point x="979" y="1151"/>
      <point x="979" y="987" type="curve" smooth="yes"/>
      <point x="979" y="774"/>
      <point x="805" y="725"/>
      <point x="617" y="725" type="curve" smooth="yes"/>
      <point x="526" y="725" type="line"/>
      <point x="522" y="627" type="line"/>
      <point x="582" y="637"/>
      <point x="645" y="649"/>
      <point x="725" y="649" type="curve" smooth="yes"/>
      <point x="912" y="649"/>
      <point x="985" y="508"/>
      <point x="985" y="375" type="curve" smooth="yes"/>
      <point x="985" y="213"/>
      <point x="869" y="53"/>
      <point x="694" y="53" type="curve" smooth="yes"/>
      <point x="629" y="53"/>
      <point x="537" y="63"/>
      <point x="490" y="98" type="curve"/>
      <point x="273" y="0" type="line"/>
      <point x="273" y="0"/>
      <point x="561" y="-31"/>
      <point x="668" y="-31" type="curve" smooth="yes"/>
      <point x="922" y="-31"/>
      <point x="1141" y="150"/>
    </contour>
    <contour>
      <point x="658" y="1260" type="line"/>
      <point x="512" y="1260" type="line"/>
      <point x="354" y="104" type="line" smooth="yes"/>
      <point x="352" y="86"/>
      <point x="297" y="61"/>
      <point x="213" y="43" type="curve"/>
      <point x="207" y="0" type="line"/>
      <point x="617" y="0" type="line"/>
      <point x="623" y="43" type="line"/>
      <point x="539" y="61"/>
      <point x="496" y="88"/>
      <point x="500" y="104" type="curve"/>
    </contour>
  </outline>
</glyph>
<glyph name="LtnSmTnSix" format="2">
  <advance width="956"/>
  <unicode hex="0185"/>
  <anchor x="435" y="-100" name="L"/>
  <anchor x="670" y="1640" name="U"/>
  <outline>
    <contour>
      <point x="262" y="1244" type="line"/>
      <point x="213" y="917"/>
      <point x="123" y="314"/>
      <point x="123" y="217" type="curve" smooth="yes"/>
      <point x="123" y="96"/>
      <point x="279" y="-41"/>
      <point x="362" y="-41" type="curve" smooth="yes"/>
      <point x="530" y="-41"/>
      <point x="663" y="67"/>
      <point x="752" y="188" type="curve" smooth="yes"/>
      <point x="849" y="321"/>
      <point x="885" y="469"/>
      <point x="885" y="610" type="curve" smooth="yes"/>
      <point x="885" y="821"/>
      <point x="807" y="936"/>
      <point x="702" y="936" type="curve" smooth="yes"/>
      <point x="618" y="936"/>
      <point x="451" y="853"/>
      <point x="313" y="615" type="curve"/>
      <point x="313" y="617" type="line"/>
      <point x="453" y="1487" type="line"/>
      <point x="446" y="1498"/>
      <point x="435" y="1509"/>
      <point x="425" y="1517" type="curve"/>
      <point x="380" y="1491"/>
      <point x="339" y="1461"/>
      <point x="300" y="1427" type="curve"/>
      <point x="25" y="1081" type="line"/>
      <point x="35" y="1069"/>
      <point x="40" y="1063"/>
      <point x="49" y="1054" type="curve"/>
      <point x="83" y="1069"/>
      <point x="147" y="1107"/>
      <point x="179" y="1139" type="curve"/>
    </contour>
    <contour>
      <point x="604" y="803" type="curve" smooth="yes"/>
      <point x="668" y="803"/>
      <point x="741" y="715"/>
      <point x="741" y="530" type="curve" smooth="yes"/>
      <point x="741" y="440"/>
      <point x="728" y="326"/>
      <point x="668" y="229" type="curve" smooth="yes"/>
      <point x="626" y="161"/>
      <point x="555" y="86"/>
      <point x="459" y="86" type="curve" smooth="yes"/>
      <point x="367" y="86"/>
      <point x="276" y="186"/>
      <point x="276" y="256" type="curve" smooth="yes"/>
      <point x="276" y="295"/>
      <point x="283" y="371"/>
      <point x="294" y="465" type="curve"/>
      <point x="394" y="660"/>
      <point x="553" y="803"/>
    </contour>
  </outline>
</glyph>
<glyph name="LtnCapOpnO" format="2">
  <advance width="1012"/>
  <unicode hex="0186"/>
  <anchor x="442" y="-100" name="L"/>
  <anchor x="637" y="1320" name="U"/>
  <outline>
    <contour>
      <point x="981" y="784" type="curve"/>
      <point x="981" y="1104"/>
      <point x="807" y="1290"/>
      <point x="608" y="1290" type="curve" smooth="yes"/>
      <point x="485" y="1290"/>
      <point x="365" y="1260"/>
      <point x="180" y="1081" type="curve"/>
      <point x="184" y="1073"/>
      <point x="195" y="1042"/>
      <point x="207" y="1036" type="curve"/>
      <point x="367" y="1149"/>
      <point x="465" y="1174"/>
      <point x="528" y="1174" type="curve" smooth="yes"/>
      <point x="680" y="1174"/>
      <point x="840" y="1010"/>
      <point x="840" y="733" type="curve" smooth="yes"/>
      <point x="840" y="494"/>
      <point x="705" y="80"/>
      <point x="436" y="80" type="curve" smooth="yes"/>
      <point x="319" y="80"/>
      <point x="229" y="178"/>
      <point x="229" y="276" type="curve" smooth="yes"/>
      <point x="229" y="365"/>
      <point x="276" y="430"/>
      <point x="387" y="487" type="curve"/>
      <point x="375" y="537" type="line"/>
      <point x="330" y="520"/>
      <point x="190" y="463"/>
      <point x="131" y="434" type="curve"/>
      <point x="78" y="369"/>
      <point x="70" y="301"/>
      <point x="70" y="240" type="curve" smooth="yes"/>
      <point x="70" y="100"/>
      <point x="182" y="-31"/>
      <point x="381" y="-31" type="curve" smooth="yes"/>
      <point x="762" y="-31"/>
      <point x="981" y="436"/>
    </contour>
  </outline>
</glyph>
<glyph name="LtnSmCHook" format="2">
  <advance width="795"/>
  <unicode hex="0188"/>
  <anchor x="380" y="-100" name="L"/>
  <anchor x="530" y="1130" name="U"/>
  <outline>
    <contour>
      <point x="297" y="-41" type="curve" smooth="yes"/>
      <point x="393" y="-41"/>
      <point x="508" y="-10"/>
      <point x="717" y="180" type="curve"/>
      <point x="711" y="190"/>
      <point x="696" y="207"/>
      <point x="686" y="221" type="curve"/>
      <point x="543" y="104"/>
      <point x="444" y="76"/>
      <point x="395" y="76" type="curve" smooth="yes"/>
      <point x="281" y="76"/>
      <point x="199" y="186"/>
      <point x="199" y="358" type="curve" smooth="yes"/>
      <point x="199" y="545"/>
      <point x="295" y="831"/>
      <point x="477" y="831" type="curve" smooth="yes"/>
      <point x="563" y="831"/>
      <point x="621" y="721"/>
      <point x="649" y="721" type="curve" smooth="yes"/>
      <point x="684" y="721"/>
      <point x="722" y="773"/>
      <point x="779" y="814" type="curve"/>
      <point x="738" y="828"/>
      <point x="707" y="936"/>
      <point x="590" y="936" type="curve" smooth="yes"/>
      <point x="508" y="936"/>
      <point x="393" y="891"/>
      <point x="319" y="842" type="curve" smooth="yes"/>
      <point x="123" y="711"/>
      <point x="53" y="502"/>
      <point x="53" y="322" type="curve" smooth="yes"/>
      <point x="53" y="41"/>
      <point x="207" y="-41"/>
    </contour>
    <contour>
      <point x="725" y="807" type="line"/>
      <point x="763" y="1084"/>
      <point x="784" y="1230"/>
      <point x="865" y="1230" type="curve" smooth="yes"/>
      <point x="939" y="1230"/>
      <point x="962" y="1118"/>
      <point x="997" y="1118" type="curve" smooth="yes"/>
      <point x="1029" y="1118"/>
      <point x="1104" y="1175"/>
      <point x="1161" y="1216" type="curve"/>
      <point x="1120" y="1230"/>
      <point x="1060" y="1333"/>
      <point x="943" y="1333" type="curve" smooth="yes"/>
      <point x="874" y="1333"/>
      <point x="812" y="1296"/>
      <point x="748" y="1241" type="curve" smooth="yes"/>
      <point x="677" y="1180"/>
      <point x="655" y="1117"/>
      <point x="624" y="878" type="curve"/>
    </contour>
  </outline>
</glyph>
<glyph name="LtnSmTrndDelta" format="2">
  <advance width="879"/>
  <unicode hex="018D"/>
  <anchor x="257" y="-600" name="L"/>
  <anchor x="477" y="1000" name="U"/>
  <outline>
    <contour>
      <point x="-100" y="-372" type="curve"/>
      <point x="-90" y="-391"/>
      <point x="-89" y="-402"/>
      <point x="-82" y="-408" type="curve"/>
      <point x="-54" y="-388"/>
      <point x="-5" y="-370"/>
      <point x="46" y="-370" type="curve" smooth="yes"/>
      <point x="149" y="-370"/>
      <point x="250" y="-503"/>
      <point x="410" y="-503" type="curve" smooth="yes"/>
      <point x="526" y="-503"/>
      <point x="654" y="-381"/>
      <point x="671" y="-260" type="curve" smooth="yes"/>
      <point x="718" y="85"/>
      <point x="128" y="8"/>
      <point x="198" y="525" type="curve" smooth="yes"/>
      <point x="221" y="695"/>
      <point x="330" y="818"/>
      <point x="433" y="818" type="curve" smooth="yes"/>
      <point x="591" y="818"/>
      <point x="677" y="623"/>
      <point x="651" y="426" type="curve" smooth="yes"/>
      <point x="625" y="240"/>
      <point x="520" y="89"/>
      <point x="347" y="16" type="curve"/>
      <point x="345" y="12"/>
      <point x="345" y="6"/>
      <point x="344" y="0" type="curve" smooth="yes"/>
      <point x="341" y="-19"/>
      <point x="357" y="-38"/>
      <point x="364" y="-55" type="curve"/>
      <point x="588" y="29"/>
      <point x="758" y="214"/>
      <point x="795" y="481" type="curve" smooth="yes"/>
      <point x="826" y="715"/>
      <point x="739" y="936"/>
      <point x="498" y="936" type="curve" smooth="yes"/>
      <point x="306" y="936"/>
      <point x="84" y="699"/>
      <point x="52" y="457" type="curve" smooth="yes"/>
      <point x="-18" y="-54"/>
      <point x="592" y="-50"/>
      <point x="557" y="-307" type="curve" smooth="yes"/>
      <point x="548" y="-371"/>
      <point x="488" y="-414"/>
      <point x="445" y="-414" type="curve" smooth="yes"/>
      <point x="340" y="-414"/>
      <point x="165" y="-205"/>
      <point x="123" y="-205" type="curve" smooth="yes"/>
      <point x="100" y="-205"/>
      <point x="-10" y="-283"/>
    </contour>
  </outline>
</glyph>
<glyph name="LtnCapOpnE" format="2">
  <advance width="938"/>
  <unicode hex="0190"/>
  <anchor x="397" y="-100" name="L"/>
  <anchor x="592" y="1320" name="U"/>
  <outline>
    <contour>
      <point x="946" y="1186" type="curve"/>
      <point x="881" y="1257"/>
      <point x="770" y="1290"/>
      <point x="641" y="1290" type="curve" smooth="yes"/>
      <point x="545" y="1290"/>
      <point x="446" y="1259"/>
      <point x="361" y="1202" type="curve" smooth="yes"/>
      <point x="240" y="1120"/>
      <point x="168" y="1019"/>
      <point x="168" y="876" type="curve" smooth="yes"/>
      <point x="168" y="770"/>
      <point x="244" y="694"/>
      <point x="338" y="655" type="curve"/>
      <point x="203" y="593"/>
      <point x="53" y="448"/>
      <point x="53" y="270" type="curve" smooth="yes"/>
      <point x="53" y="120"/>
      <point x="147" y="-31"/>
      <point x="350" y="-31" type="curve" smooth="yes"/>
      <point x="535" y="-31"/>
      <point x="633" y="10"/>
      <point x="840" y="213" type="curve"/>
      <point x="809" y="258" type="line"/>
      <point x="616" y="123"/>
      <point x="565" y="100"/>
      <point x="446" y="100" type="curve" smooth="yes"/>
      <point x="305" y="100"/>
      <point x="203" y="177"/>
      <point x="203" y="331" type="curve" smooth="yes"/>
      <point x="203" y="540"/>
      <point x="459" y="627"/>
      <point x="618" y="631" type="curve"/>
      <point x="629" y="702" type="line"/>
      <point x="381" y="713"/>
      <point x="297" y="827"/>
      <point x="297" y="927" type="curve" smooth="yes"/>
      <point x="297" y="1069"/>
      <point x="422" y="1171"/>
      <point x="568" y="1171" type="curve" smooth="yes"/>
      <point x="674" y="1171"/>
      <point x="735" y="1135"/>
      <point x="801" y="1063" type="curve"/>
      <point x="838" y="1055" type="line"/>
      <point x="875" y="1092"/>
      <point x="922" y="1141"/>
    </contour>
  </outline>
</glyph>
<glyph name="LtnSmFHook" format="2">
  <advance width="559"/>
  <unicode hex="0192"/>
  <anchor x="103" y="-600" name="L"/>
  <anchor x="410" y="1640" name="U"/>
  <outline>
    <contour>
      <point x="653" y="877" type="curve"/>
      <point x="633" y="905" type="line"/>
      <point x="154" y="905" type="line"/>
      <point x="53" y="846" type="line"/>
      <point x="68" y="815" type="line"/>
      <point x="373" y="815" type="line" smooth="yes"/>
      <point x="473" y="815"/>
      <point x="512" y="807"/>
      <point x="526" y="770" type="curve"/>
      <point x="553" y="784"/>
      <point x="627" y="840"/>
    </contour>
    <contour>
      <point x="903" y="1403" type="curve"/>
      <point x="862" y="1417"/>
      <point x="791" y="1520"/>
      <point x="674" y="1520" type="curve" smooth="yes"/>
      <point x="592" y="1520"/>
      <point x="530" y="1479"/>
      <point x="459" y="1427" type="curve" smooth="yes"/>
      <point x="289" y="1300"/>
      <point x="260" y="1116"/>
      <point x="229" y="899" type="curve" smooth="yes"/>
      <point x="203" y="700"/>
      <point x="174" y="227"/>
      <point x="129" y="12" type="curve" smooth="yes"/>
      <point x="78" y="-236"/>
      <point x="2" y="-383"/>
      <point x="-115" y="-383" type="curve" smooth="yes"/>
      <point x="-232" y="-383"/>
      <point x="-268" y="-301"/>
      <point x="-291" y="-301" type="curve" smooth="yes"/>
      <point x="-318" y="-301"/>
      <point x="-397" y="-389"/>
      <point x="-397" y="-424" type="curve" smooth="yes"/>
      <point x="-397" y="-451"/>
      <point x="-297" y="-500"/>
      <point x="-221" y="-500" type="curve" smooth="yes"/>
      <point x="-176" y="-500"/>
      <point x="-70" y="-484"/>
      <point x="2" y="-424" type="curve" smooth="yes"/>
      <point x="151" y="-301"/>
      <point x="225" y="-207"/>
      <point x="280" y="67" type="curve" smooth="yes"/>
      <point x="311" y="227"/>
      <point x="356" y="733"/>
      <point x="383" y="952" type="curve"/>
      <point x="401" y="1122"/>
      <point x="446" y="1417"/>
      <point x="596" y="1417" type="curve" smooth="yes"/>
      <point x="672" y="1417"/>
      <point x="702" y="1305"/>
      <point x="737" y="1305" type="curve" smooth="yes"/>
      <point x="770" y="1305"/>
      <point x="846" y="1362"/>
    </contour>
  </outline>
</glyph>
<glyph name="LtnSmLambdaStrk" format="2">
  <advance width="968"/>
  <unicode hex="019B"/>
  <anchor x="396" y="-100" name="L"/>
  <anchor x="714" y="1320" name="U"/>
  <outline>
    <contour>
      <point x="567" y="801" type="curve"/>
      <point x="565" y="821"/>
      <point x="557" y="1002"/>
      <point x="534" y="1027" type="curve"/>
      <point x="428" y="743"/>
      <point x="222" y="312"/>
      <point x="-50" y="-8" type="curve"/>
      <point x="-27" y="-41" type="line"/>
      <point x="20" y="-26"/>
      <point x="90" y="-16"/>
      <point x="139" y="-10" type="curve"/>
      <point x="277" y="320"/>
      <point x="409" y="546"/>
    </contour>
    <contour>
      <point x="889" y="1194" type="curve"/>
      <point x="871" y="1221" type="line"/>
      <point x="265" y="986" type="line"/>
      <point x="224" y="936"/>
      <point x="226" y="931"/>
      <point x="210" y="899" type="curve"/>
      <point x="223" y="875" type="line"/>
      <point x="833" y="1113" type="line"/>
      <point x="866" y="1151"/>
      <point x="863" y="1154"/>
    </contour>
    <contour>
      <point x="943" y="72" type="curve"/>
      <point x="930" y="109" type="line"/>
      <point x="881" y="84"/>
      <point x="846" y="76"/>
      <point x="815" y="76" type="curve" smooth="yes"/>
      <point x="745" y="76"/>
      <point x="685" y="441"/>
      <point x="647" y="795" type="curve" smooth="yes"/>
      <point x="598" y="1254"/>
      <point x="570" y="1450"/>
      <point x="498" y="1450" type="curve" smooth="yes"/>
      <point x="470" y="1450"/>
      <point x="286" y="1387"/>
      <point x="214" y="1354" type="curve"/>
      <point x="228" y="1315" type="line"/>
      <point x="260" y="1324"/>
      <point x="335" y="1341"/>
      <point x="353" y="1341" type="curve" smooth="yes"/>
      <point x="416" y="1341"/>
      <point x="466" y="1187"/>
      <point x="511" y="752" type="curve" smooth="yes"/>
      <point x="550" y="376"/>
      <point x="597" y="-41"/>
      <point x="694" y="-41" type="curve" smooth="yes"/>
      <point x="746" y="-41"/>
      <point x="828" y="-8"/>
    </contour>
  </outline>
</glyph>
<glyph name="LtnCapTrndM" format="2">
  <advance width="1808"/>
  <unicode hex="019C"/>
  <anchor x="831" y="-100" name="L"/>
  <anchor x="1025" y="1320" name="U"/>
  <outline>
    <contour>
      <point x="176" y="1260" type="line"/>
      <point x="170" y="1217" type="line"/>
      <point x="254" y="1197"/>
      <point x="294" y="1173"/>
      <point x="291" y="1155" type="curve" smooth="yes"/>
      <point x="178" y="324" type="line" smooth="yes"/>
      <point x="144" y="73"/>
      <point x="229" y="-30"/>
      <point x="382" y="-30" type="curve" smooth="yes"/>
      <point x="491" y="-30"/>
      <point x="654" y="69"/>
      <point x="819" y="293" type="curve"/>
      <point x="805" y="138"/>
      <point x="830" y="-30"/>
      <point x="1019" y="-30" type="curve" smooth="yes"/>
      <point x="1126" y="-30"/>
      <point x="1276" y="57"/>
      <point x="1452" y="294" type="curve"/>
      <point x="1413" y="6" type="line"/>
      <point x="1442" y="-30" type="line"/>
      <point x="1535" y="13"/>
      <point x="1568" y="22"/>
      <point x="1694" y="50" type="curve"/>
      <point x="1700" y="93" type="line"/>
      <point x="1589" y="106"/>
      <point x="1572" y="116"/>
      <point x="1588" y="234" type="curve" smooth="yes"/>
      <point x="1713" y="1155" type="line" smooth="yes"/>
      <point x="1716" y="1173"/>
      <point x="1764" y="1197"/>
      <point x="1853" y="1217" type="curve"/>
      <point x="1859" y="1260" type="line"/>
      <point x="1454" y="1260" type="line"/>
      <point x="1448" y="1217" type="line"/>
      <point x="1528" y="1198"/>
      <point x="1572" y="1173"/>
      <point x="1569" y="1155" type="curve" smooth="yes"/>
      <point x="1475" y="459" type="line"/>
      <point x="1309" y="234"/>
      <point x="1178" y="110"/>
      <point x="1078" y="110" type="curve" smooth="yes"/>
      <point x="979" y="110"/>
      <point x="945" y="199"/>
      <point x="974" y="419" type="curve" smooth="yes"/>
      <point x="1074" y="1155" type="line" smooth="yes"/>
      <point x="1077" y="1173"/>
      <point x="1125" y="1197"/>
      <point x="1214" y="1217" type="curve"/>
      <point x="1220" y="1260" type="line"/>
      <point x="815" y="1260" type="line"/>
      <point x="809" y="1217" type="line"/>
      <point x="886" y="1199"/>
      <point x="933" y="1173"/>
      <point x="930" y="1155" type="curve" smooth="yes"/>
      <point x="836" y="459" type="line"/>
      <point x="685" y="237"/>
      <point x="538" y="110"/>
      <point x="441" y="110" type="curve" smooth="yes"/>
      <point x="345" y="110"/>
      <point x="303" y="179"/>
      <point x="337" y="429" type="curve" smooth="yes"/>
      <point x="435" y="1155" type="line" smooth="yes"/>
      <point x="438" y="1173"/>
      <point x="481" y="1195"/>
      <point x="575" y="1217" type="curve"/>
      <point x="581" y="1260" type="line"/>
    </contour>
  </outline>
</glyph>
<glyph name="LtnCapNLftHook" format="2">
  <advance width="1196"/>
  <unicode hex="019D"/>
  <anchor x="448" y="-600" name="L"/>
  <anchor x="739" y="1320" name="U"/>
  <outline>
    <contour>
      <point x="291" y="1175" type="line"/>
      <point x="154" y="175" type="line" smooth="yes"/>
      <point x="106" y="-178"/>
      <point x="9" y="-257"/>
      <point x="-53" y="-257" type="curve" smooth="yes"/>
      <point x="-99" y="-257"/>
      <point x="-128" y="-249"/>
      <point x="-188" y="-200" type="curve"/>
      <point x="-223" y="-214"/>
      <point x="-303" y="-278"/>
      <point x="-306" y="-300" type="curve" smooth="yes"/>
      <point x="-309" y="-323"/>
      <point x="-241" y="-380"/>
      <point x="-168" y="-380" type="curve" smooth="yes"/>
      <point x="-121" y="-380"/>
      <point x="-16" y="-345"/>
      <point x="55" y="-288" type="curve" smooth="yes"/>
      <point x="161" y="-202"/>
      <point x="222" y="-109"/>
      <point x="270" y="247" type="curve" smooth="yes"/>
      <point x="393" y="1155" type="line"/>
    </contour>
    <contour>
      <point x="1294" y="1260" type="line"/>
      <point x="930" y="1260" type="line"/>
      <point x="924" y="1217" type="line"/>
      <point x="1018" y="1202"/>
      <point x="1049" y="1171"/>
      <point x="1047" y="1155" type="curve" smooth="yes"/>
      <point x="924" y="258" type="line"/>
      <point x="440" y="1182" type="line"/>
      <point x="401" y="1260"/>
      <point x="401" y="1260"/>
      <point x="342" y="1260" type="curve" smooth="yes"/>
      <point x="164" y="1260" type="line"/>
      <point x="158" y="1217" type="line"/>
      <point x="236" y="1204"/>
      <point x="281" y="1184"/>
      <point x="324" y="1100" type="curve" smooth="yes"/>
      <point x="506" y="748"/>
      <point x="688" y="397"/>
      <point x="870" y="45" type="curve" smooth="yes"/>
      <point x="901" y="-14"/>
      <point x="932" y="-23"/>
      <point x="989" y="-31" type="curve"/>
      <point x="1153" y="1155" type="line"/>
      <point x="1155" y="1178"/>
      <point x="1200" y="1204"/>
      <point x="1288" y="1217" type="curve"/>
    </contour>
  </outline>
</glyph>
<glyph name="LtnCapOi" format="2">
  <advance width="1460"/>
  <unicode hex="01A2"/>
  <anchor x="533" y="-100" name="L"/>
  <anchor x="851" y="1320" name="U"/>
  <outline>
    <contour>
      <point x="1016" y="1151" type="line"/>
      <point x="934" y="1245"/>
      <point x="832" y="1290"/>
      <point x="755" y="1290" type="curve" smooth="yes"/>
      <point x="459" y="1290"/>
      <point x="86" y="919"/>
      <point x="86" y="455" type="curve" smooth="yes"/>
      <point x="86" y="175"/>
      <point x="205" y="-31"/>
      <point x="421" y="-31" type="curve" smooth="yes"/>
      <point x="559" y="-31"/>
      <point x="818" y="167"/>
      <point x="904" y="430" type="curve"/>
    </contour>
    <contour>
      <point x="860" y="1082" type="curve"/>
      <point x="764" y="460" type="line"/>
      <point x="710" y="254"/>
      <point x="546" y="110"/>
      <point x="446" y="110" type="curve" smooth="yes"/>
      <point x="312" y="110"/>
      <point x="231" y="251"/>
      <point x="231" y="500" type="curve" smooth="yes"/>
      <point x="231" y="782"/>
      <point x="418" y="1165"/>
      <point x="662" y="1165" type="curve" smooth="yes"/>
      <point x="738" y="1165"/>
      <point x="806" y="1137"/>
    </contour>
    <contour>
      <point x="925" y="1055" type="line"/>
      <point x="983" y="1079"/>
      <point x="1089" y="1097"/>
      <point x="1134" y="1097" type="curve" smooth="yes"/>
      <point x="1181" y="1097"/>
      <point x="1197" y="1087"/>
      <point x="1197" y="1052" type="curve" smooth="yes"/>
      <point x="1197" y="1003"/>
      <point x="1192" y="954"/>
      <point x="1185" y="903" type="curve" smooth="yes"/>
      <point x="1023" y="-246" type="line" smooth="yes"/>
      <point x="1020" y="-264"/>
      <point x="975" y="-287"/>
      <point x="883" y="-307" type="curve"/>
      <point x="877" y="-350" type="line"/>
      <point x="1287" y="-350" type="line"/>
      <point x="1293" y="-307" type="line"/>
      <point x="1199" y="-286"/>
      <point x="1167" y="-262"/>
      <point x="1169" y="-246" type="curve" smooth="yes"/>
      <point x="1380" y="1255" type="line"/>
      <point x="1332" y="1290" type="line"/>
      <point x="1238" y="1243"/>
      <point x="1048" y="1163"/>
      <point x="904" y="1140" type="curve"/>
    </contour>
  </outline>
</glyph>
<glyph name="LtnSmOi" format="2">
  <advance width="1281"/>
  <unicode hex="01A3"/>
  <anchor x="503" y="-100" name="L"/>
  <anchor x="787" y="1000" name="U"/>
  <outline>
    <contour>
      <point x="816" y="801" type="line"/>
      <point x="739" y="899"/>
      <point x="651" y="936"/>
      <point x="552" y="936" type="curve" smooth="yes"/>
      <point x="363" y="936"/>
      <point x="53" y="666"/>
      <point x="53" y="324" type="curve" smooth="yes"/>
      <point x="53" y="105"/>
      <point x="140" y="-41"/>
      <point x="306" y="-41" type="curve" smooth="yes"/>
      <point x="486" y="-41"/>
      <point x="682" y="162"/>
      <point x="717" y="251" type="curve"/>
    </contour>
    <contour>
      <point x="673" y="745" type="curve"/>
      <point x="589" y="279" type="line" smooth="yes"/>
      <point x="575" y="204"/>
      <point x="441" y="72"/>
      <point x="364" y="72" type="curve" smooth="yes"/>
      <point x="261" y="72"/>
      <point x="197" y="201"/>
      <point x="197" y="379" type="curve" smooth="yes"/>
      <point x="197" y="619"/>
      <point x="362" y="831"/>
      <point x="495" y="831" type="curve" smooth="yes"/>
      <point x="572" y="831"/>
      <point x="640" y="790"/>
    </contour>
    <contour>
      <point x="1201" y="-387" type="curve"/>
      <point x="1186" y="-350" type="line"/>
      <point x="1131" y="-373"/>
      <point x="1092" y="-383"/>
      <point x="1061" y="-383" type="curve" smooth="yes"/>
      <point x="1037" y="-383"/>
      <point x="1016" y="-372"/>
      <point x="1016" y="-277" type="curve" smooth="yes"/>
      <point x="1016" y="-76"/>
      <point x="1180" y="583"/>
      <point x="1180" y="762" type="curve" smooth="yes"/>
      <point x="1180" y="861"/>
      <point x="1145" y="936"/>
      <point x="1061" y="936" type="curve" smooth="yes"/>
      <point x="982" y="936"/>
      <point x="891" y="903"/>
      <point x="739" y="785" type="curve"/>
      <point x="726" y="659" type="line"/>
      <point x="869" y="803"/>
      <point x="950" y="826"/>
      <point x="980" y="826" type="curve" smooth="yes"/>
      <point x="1008" y="826"/>
      <point x="1026" y="811"/>
      <point x="1026" y="730" type="curve" smooth="yes"/>
      <point x="1026" y="570"/>
      <point x="862" y="-175"/>
      <point x="862" y="-336" type="curve" smooth="yes"/>
      <point x="862" y="-458"/>
      <point x="898" y="-500"/>
      <point x="945" y="-500" type="curve" smooth="yes"/>
      <point x="996" y="-500"/>
      <point x="1080" y="-459"/>
    </contour>
  </outline>
</glyph>
<glyph name="LtnSmPHook" format="2">
  <advance width="965"/>
  <unicode hex="01A5"/>
  <anchor x="483" y="-100" name="L"/>
  <anchor x="657" y="1640" name="U"/>
  <outline>
    <contour>
      <point x="870" y="1216" type="curve"/>
      <point x="829" y="1230"/>
      <point x="747" y="1333"/>
      <point x="631" y="1333" type="curve" smooth="yes"/>
      <point x="547" y="1333"/>
      <point x="465" y="1293"/>
      <point x="395" y="1240" type="curve" smooth="yes"/>
      <point x="268" y="1145"/>
      <point x="235" y="1012"/>
      <point x="195" y="762" type="curve" smooth="yes"/>
      <point x="166" y="583"/>
      <point x="53" y="-142"/>
      <point x="-6" y="-471" type="curve"/>
      <point x="26" y="-500" type="line"/>
      <point x="61" y="-484"/>
      <point x="137" y="-457"/>
      <point x="176" y="-447" type="curve"/>
      <point x="162" y="-410"/>
      <point x="169" y="-269"/>
      <point x="215" y="6" type="curve"/>
      <point x="267" y="321"/>
      <point x="293" y="500"/>
      <point x="349" y="815" type="curve" smooth="yes"/>
      <point x="395" y="1076"/>
      <point x="422" y="1230"/>
      <point x="543" y="1230" type="curve" smooth="yes"/>
      <point x="616" y="1230"/>
      <point x="667" y="1118"/>
      <point x="702" y="1118" type="curve" smooth="yes"/>
      <point x="737" y="1118"/>
      <point x="813" y="1175"/>
    </contour>
    <contour>
      <point x="885" y="627" type="curve"/>
      <point x="885" y="827"/>
      <point x="799" y="936"/>
      <point x="696" y="936" type="curve" smooth="yes"/>
      <point x="612" y="936"/>
      <point x="475" y="903"/>
      <point x="283" y="584" type="curve"/>
      <point x="281" y="445" type="line"/>
      <point x="367" y="654"/>
      <point x="539" y="805"/>
      <point x="610" y="805" type="curve" smooth="yes"/>
      <point x="674" y="805"/>
      <point x="739" y="719"/>
      <point x="739" y="532" type="curve" smooth="yes"/>
      <point x="739" y="451"/>
      <point x="735" y="324"/>
      <point x="686" y="219" type="curve"/>
      <point x="655" y="147"/>
      <point x="598" y="106"/>
      <point x="526" y="106" type="curve" smooth="yes"/>
      <point x="414" y="106"/>
      <point x="295" y="246"/>
      <point x="262" y="324" type="curve"/>
      <point x="215" y="244" type="line"/>
      <point x="289" y="119"/>
      <point x="389" y="-41"/>
      <point x="492" y="-41" type="curve" smooth="yes"/>
      <point x="606" y="-41"/>
      <point x="705" y="82"/>
      <point x="766" y="188" type="curve"/>
      <point x="850" y="340"/>
      <point x="885" y="494"/>
    </contour>
  </outline>
</glyph>
<glyph name="LtnSmTnTwo" format="2">
  <advance width="775"/>
  <unicode hex="01A8"/>
  <anchor x="326" y="-100" name="L"/>
  <anchor x="477" y="1000" name="U"/>
  <outline>
    <contour>
      <point x="83" y="229" type="curve"/>
      <point x="58" y="39"/>
      <point x="205" y="-41"/>
      <point x="338" y="-41" type="curve" smooth="yes"/>
      <point x="420" y="-41"/>
      <point x="540" y="-7"/>
      <point x="627" y="51" type="curve"/>
      <point x="643" y="59"/>
      <point x="661" y="228"/>
      <point x="652" y="287" type="curve"/>
      <point x="613" y="277" type="line"/>
      <point x="592" y="166"/>
      <point x="474" y="56"/>
      <point x="352" y="56" type="curve" smooth="yes"/>
      <point x="266" y="56"/>
      <point x="195" y="120"/>
      <point x="207" y="213" type="curve" smooth="yes"/>
      <point x="221" y="318"/>
      <point x="358" y="370"/>
      <point x="476" y="427" type="curve" smooth="yes"/>
      <point x="587" y="481"/>
      <point x="687" y="554"/>
      <point x="708" y="709" type="curve" smooth="yes"/>
      <point x="730" y="873"/>
      <point x="625" y="936"/>
      <point x="481" y="936" type="curve" smooth="yes"/>
      <point x="408" y="936"/>
      <point x="253" y="896"/>
      <point x="200" y="850" type="curve" smooth="yes"/>
      <point x="183" y="835"/>
      <point x="204" y="693"/>
      <point x="216" y="673" type="curve"/>
      <point x="252" y="680" type="line"/>
      <point x="285" y="796"/>
      <point x="364" y="847"/>
      <point x="467" y="847" type="curve" smooth="yes"/>
      <point x="554" y="847"/>
      <point x="594" y="793"/>
      <point x="585" y="729" type="curve" smooth="yes"/>
      <point x="574" y="644"/>
      <point x="488" y="597"/>
      <point x="373" y="541" type="curve" smooth="yes"/>
      <point x="260" y="486"/>
      <point x="108" y="409"/>
    </contour>
  </outline>
</glyph>
<glyph name="LtnCapEsh" format="2">
  <advance width="1027"/>
  <unicode hex="01A9"/>
  <anchor x="464" y="-100" name="L"/>
  <anchor x="642" y="1320" name="U"/>
  <outline>
    <contour>
      <point x="898" y="345" type="curve"/>
      <point x="851" y="357" type="line"/>
      <point x="783" y="182"/>
      <point x="764" y="139"/>
      <point x="688" y="139" type="curve" smooth="yes"/>
      <point x="209" y="139" type="line"/>
      <point x="641" y="674" type="line"/>
      <point x="401" y="1159" type="line"/>
      <point x="823" y="1159" type="line" smooth="yes"/>
      <point x="858" y="1159"/>
      <point x="900" y="1161"/>
      <point x="917" y="963" type="curve"/>
      <point x="969" y="975" type="line"/>
      <point x="1007" y="1276" type="line"/>
      <point x="933" y="1260"/>
      <point x="881" y="1260"/>
      <point x="814" y="1260" type="curve" smooth="yes"/>
      <point x="207" y="1260" type="line"/>
      <point x="201" y="1217" type="line"/>
      <point x="494" y="635" type="line"/>
      <point x="18" y="43" type="line"/>
      <point x="41" y="0" type="line"/>
      <point x="827" y="0" type="line"/>
      <point x="842" y="72"/>
      <point x="878" y="238"/>
    </contour>
  </outline>
</glyph>
<glyph name="LtnRevEshLoop" format="2">
  <advance width="737"/>
  <unicode hex="01AA"/>
  <anchor x="356" y="-600" name="L"/>
  <anchor x="572" y="1640" name="U"/>
  <outline>
    <contour>
      <point x="149" y="1257" type="curve" smooth="yes"/>
      <point x="135" y="1153"/>
      <point x="190" y="1071"/>
      <point x="291" y="1071" type="curve"/>
      <point x="373" y="1072"/>
      <point x="462" y="1122"/>
      <point x="542" y="1249" type="curve"/>
      <point x="512" y="1309" type="line"/>
      <point x="503" y="1301"/>
      <point x="444" y="1190"/>
      <point x="355" y="1190" type="curve" smooth="yes"/>
      <point x="304" y="1190"/>
      <point x="262" y="1238"/>
      <point x="272" y="1308" type="curve" smooth="yes"/>
      <point x="280" y="1369"/>
      <point x="352" y="1427"/>
      <point x="403" y="1427" type="curve" smooth="yes"/>
      <point x="487" y="1427"/>
      <point x="518" y="1323"/>
      <point x="491" y="1124" type="curve" smooth="yes"/>
      <point x="444" y="778"/>
      <point x="347" y="339"/>
      <point x="294" y="-49" type="curve" smooth="yes"/>
      <point x="257" y="-328"/>
      <point x="295" y="-500"/>
      <point x="455" y="-500" type="curve" smooth="yes"/>
      <point x="605" y="-500"/>
      <point x="818" y="-320"/>
      <point x="808" y="-198" type="curve"/>
      <point x="790" y="-158" type="line"/>
      <point x="755" y="-165"/>
      <point x="630" y="-216"/>
      <point x="636" y="-228" type="curve" smooth="yes"/>
      <point x="680" y="-318"/>
      <point x="608" y="-407"/>
      <point x="539" y="-407" type="curve" smooth="yes"/>
      <point x="445" y="-407"/>
      <point x="401" y="-303"/>
      <point x="443" y="11" type="curve" smooth="yes"/>
      <point x="488" y="338"/>
      <point x="586" y="787"/>
      <point x="640" y="1184" type="curve" smooth="yes"/>
      <point x="664" y="1354"/>
      <point x="623" y="1520"/>
      <point x="481" y="1520" type="curve" smooth="yes"/>
      <point x="326" y="1520"/>
      <point x="164" y="1372"/>
    </contour>
  </outline>
</glyph>
<glyph name="LtnSmTHook" format="2">
  <advance width="629"/>
  <unicode hex="01AD"/>
  <anchor x="304" y="-100" name="L"/>
  <anchor x="548" y="1390" name="U"/>
  <outline>
    <contour>
      <point x="252" y="-41" type="curve" smooth="yes"/>
      <point x="311" y="-41"/>
      <point x="449" y="16"/>
      <point x="580" y="117" type="curve"/>
      <point x="563" y="154" type="line"/>
      <point x="463" y="109"/>
      <point x="399" y="90"/>
      <point x="352" y="90" type="curve" smooth="yes"/>
      <point x="315" y="90"/>
      <point x="279" y="129"/>
      <point x="279" y="211" type="curve" smooth="yes"/>
      <point x="279" y="238"/>
      <point x="283" y="305"/>
      <point x="291" y="356" type="curve" smooth="yes"/>
      <point x="382" y="946" type="line" smooth="yes"/>
      <point x="398" y="1053"/>
      <point x="431" y="1230"/>
      <point x="500" y="1230" type="curve" smooth="yes"/>
      <point x="574" y="1230"/>
      <point x="597" y="1118"/>
      <point x="632" y="1118" type="curve" smooth="yes"/>
      <point x="664" y="1118"/>
      <point x="739" y="1175"/>
      <point x="796" y="1216" type="curve"/>
      <point x="755" y="1230"/>
      <point x="695" y="1333"/>
      <point x="578" y="1333" type="curve" smooth="yes"/>
      <point x="509" y="1333"/>
      <point x="448" y="1295"/>
      <point x="383" y="1241" type="curve" smooth="yes"/>
      <point x="277" y="1153"/>
      <point x="252" y="1019"/>
      <point x="235" y="923" type="curve"/>
      <point x="141" y="332" type="line" smooth="yes"/>
      <point x="129" y="258"/>
      <point x="127" y="211"/>
      <point x="127" y="160" type="curve" smooth="yes"/>
      <point x="127" y="43"/>
      <point x="186" y="-41"/>
    </contour>
    <contour>
      <point x="518" y="770" type="curve"/>
      <point x="543" y="784"/>
      <point x="618" y="840"/>
      <point x="645" y="877" type="curve"/>
      <point x="625" y="905" type="line"/>
      <point x="160" y="905" type="line"/>
      <point x="59" y="846" type="line"/>
      <point x="74" y="815" type="line"/>
      <point x="365" y="815" type="line" smooth="yes"/>
      <point x="465" y="815"/>
      <point x="502" y="807"/>
    </contour>
  </outline>
</glyph>
<glyph name="LtnCapVHook" format="2">
  <advance width="1144"/>
  <unicode hex="01B2"/>
  <anchor x="492" y="-100" name="L"/>
  <anchor x="687" y="1320" name="U"/>
  <outline>
    <contour>
      <point x="924" y="1290" type="curve"/>
      <point x="709" y="1233" type="line"/>
      <point x="721" y="1172" type="line"/>
      <point x="951" y="1177"/>
      <point x="995" y="881"/>
      <point x="969" y="686" type="curve" smooth="yes"/>
      <point x="919" y="318"/>
      <point x="713" y="84"/>
      <point x="560" y="84" type="curve" smooth="yes"/>
      <point x="391" y="84"/>
      <point x="311" y="238"/>
      <point x="346" y="494" type="curve" smooth="yes"/>
      <point x="435" y="1155" type="line" smooth="yes"/>
      <point x="438" y="1174"/>
      <point x="491" y="1198"/>
      <point x="575" y="1217" type="curve"/>
      <point x="581" y="1260" type="line"/>
      <point x="176" y="1260" type="line"/>
      <point x="170" y="1217" type="line"/>
      <point x="253" y="1198"/>
      <point x="293" y="1171"/>
      <point x="291" y="1155" type="curve" smooth="yes"/>
      <point x="195" y="444" type="line" smooth="yes"/>
      <point x="151" y="119"/>
      <point x="298" y="-30"/>
      <point x="509" y="-30" type="curve" smooth="yes"/>
      <point x="769" y="-30"/>
      <point x="1053" y="313"/>
      <point x="1113" y="754" type="curve" smooth="yes"/>
      <point x="1144" y="986"/>
      <point x="1084" y="1260"/>
    </contour>
  </outline>
</glyph>
<glyph name="LtnCapYHook.RtHook" format="2">
  <advance width="1282"/>
  <unicode hex="01B3"/>
  <anchor x="492" y="-100" name="L"/>
  <anchor x="565" y="0" name="O"/>
  <anchor x="708" y="1320" name="U"/>
  <outline>
    <contour>
      <point x="725" y="0" type="line"/>
      <point x="730" y="43" type="line"/>
      <point x="621" y="68"/>
      <point x="589" y="98"/>
      <point x="591" y="115" type="curve" smooth="yes"/>
      <point x="650" y="541" type="line"/>
      <point x="1039" y="1215" type="line" smooth="yes"/>
      <point x="1072" y="1272"/>
      <point x="1120" y="1321"/>
      <point x="1166" y="1321" type="curve" smooth="yes"/>
      <point x="1225" y="1321"/>
      <point x="1247" y="1263"/>
      <point x="1238" y="1197" type="curve" smooth="yes"/>
      <point x="1231" y="1149"/>
      <point x="1214" y="1121"/>
      <point x="1192" y="1085" type="curve"/>
      <point x="1204" y="1056" type="line"/>
      <point x="1241" y="1067"/>
      <point x="1360" y="1109"/>
      <point x="1377" y="1143" type="curve" smooth="yes"/>
      <point x="1385" y="1159"/>
      <point x="1395" y="1195"/>
      <point x="1398" y="1221" type="curve" smooth="yes"/>
      <point x="1414" y="1338"/>
      <point x="1342" y="1440"/>
      <point x="1229" y="1440" type="curve" smooth="yes"/>
      <point x="1086" y="1440"/>
      <point x="999" y="1347"/>
      <point x="926" y="1220" type="curve" smooth="yes"/>
      <point x="614" y="680" type="line"/>
      <point x="556" y="872"/>
      <point x="467" y="1102"/>
      <point x="395" y="1231" type="curve" smooth="yes"/>
      <point x="380" y="1257"/>
      <point x="356" y="1270"/>
      <point x="330" y="1270" type="curve" smooth="yes"/>
      <point x="281" y="1270"/>
      <point x="202" y="1260"/>
      <point x="131" y="1249" type="curve"/>
      <point x="129" y="1206" type="line"/>
      <point x="228" y="1206"/>
      <point x="250" y="1180"/>
      <point x="268" y="1151" type="curve"/>
      <point x="335" y="1023"/>
      <point x="446" y="753"/>
      <point x="505" y="537" type="curve"/>
      <point x="447" y="115" type="line" smooth="yes"/>
      <point x="445" y="96"/>
      <point x="402" y="68"/>
      <point x="289" y="43" type="curve"/>
      <point x="284" y="0" type="line"/>
    </contour>
  </outline>
</glyph>
<glyph name="LtnCapEzh" format="2">
  <advance width="959"/>
  <unicode hex="01B7"/>
  <anchor x="430" y="-100" name="L"/>
  <anchor x="621" y="1320" name="U"/>
  <outline>
    <contour>
      <point x="954" y="1217" type="line"/>
      <point x="937" y="1260" type="line"/>
      <point x="425" y="1260" type="line" smooth="yes"/>
      <point x="348" y="1260"/>
      <point x="318" y="1260"/>
      <point x="269" y="1276" type="curve"/>
      <point x="201" y="975" type="line"/>
      <point x="250" y="963" type="line"/>
      <point x="291" y="1086"/>
      <point x="355" y="1160"/>
      <point x="394" y="1160" type="curve" smooth="yes"/>
      <point x="738" y="1160" type="line"/>
      <point x="298" y="661" type="line"/>
      <point x="324" y="617" type="line"/>
      <point x="530" y="726" type="line"/>
    </contour>
    <contour>
      <point x="896" y="424" type="curve"/>
      <point x="928" y="658"/>
      <point x="797" y="793"/>
      <point x="641" y="793" type="curve" smooth="yes"/>
      <point x="539" y="793"/>
      <point x="394" y="721"/>
      <point x="298" y="662" type="curve"/>
      <point x="303" y="651"/>
      <point x="317" y="625"/>
      <point x="324" y="618" type="curve"/>
      <point x="410" y="662"/>
      <point x="467" y="692"/>
      <point x="534" y="692" type="curve" smooth="yes"/>
      <point x="696" y="692"/>
      <point x="776" y="533"/>
      <point x="754" y="373" type="curve" smooth="yes"/>
      <point x="727" y="170"/>
      <point x="608" y="90"/>
      <point x="456" y="90" type="curve" smooth="yes"/>
      <point x="356" y="90"/>
      <point x="243" y="166"/>
      <point x="205" y="265" type="curve"/>
      <point x="154" y="257"/>
      <point x="67" y="168"/>
      <point x="65" y="153" type="curve" smooth="yes"/>
      <point x="59" y="108"/>
      <point x="197" y="-30"/>
      <point x="404" y="-30" type="curve" smooth="yes"/>
      <point x="633" y="-30"/>
      <point x="858" y="142"/>
    </contour>
  </outline>
</glyph>
<glyph name="LtnCapEzhRev" format="2">
  <advance width="983"/>
  <unicode hex="01B8"/>
  <anchor x="428" y="-100" name="L"/>
  <anchor x="626" y="1320" name="U"/>
  <outline>
    <contour>
      <point x="542" y="726" type="line"/>
      <point x="655" y="703" type="line"/>
      <point x="699" y="753" type="line"/>
      <point x="452" y="1160" type="line"/>
      <point x="796" y="1160" type="line" smooth="yes"/>
      <point x="834" y="1160"/>
      <point x="878" y="1086"/>
      <point x="886" y="963" type="curve"/>
      <point x="939" y="975" type="line"/>
      <point x="953" y="1276" type="line"/>
      <point x="900" y="1260"/>
      <point x="870" y="1260"/>
      <point x="792" y="1260" type="curve" smooth="yes"/>
      <point x="280" y="1260" type="line"/>
      <point x="252" y="1217" type="line"/>
    </contour>
    <contour>
      <point x="89" y="364" type="curve"/>
      <point x="53" y="102"/>
      <point x="247" y="-30"/>
      <point x="431" y="-30" type="curve" smooth="yes"/>
      <point x="676" y="-30"/>
      <point x="880" y="189"/>
      <point x="895" y="320" type="curve"/>
      <point x="888" y="330"/>
      <point x="882" y="340"/>
      <point x="875" y="350" type="curve"/>
      <point x="832" y="347"/>
      <point x="754" y="323"/>
      <point x="709" y="302" type="curve"/>
      <point x="713" y="156"/>
      <point x="620" y="90"/>
      <point x="485" y="90" type="curve" smooth="yes"/>
      <point x="368" y="90"/>
      <point x="199" y="180"/>
      <point x="230" y="413" type="curve" smooth="yes"/>
      <point x="255" y="593"/>
      <point x="397" y="687"/>
      <point x="532" y="687" type="curve" smooth="yes"/>
      <point x="560" y="687"/>
      <point x="605" y="683"/>
      <point x="635" y="664" type="curve"/>
      <point x="662" y="693"/>
      <point x="685" y="725"/>
      <point x="699" y="752" type="curve"/>
      <point x="653" y="768"/>
      <point x="607" y="783"/>
      <point x="561" y="799" type="curve"/>
      <point x="319" y="763"/>
      <point x="126" y="632"/>
    </contour>
  </outline>
</glyph>
<glyph name="LtnSmEzhRev" format="2">
  <advance width="803"/>
  <unicode hex="01B9"/>
  <anchor x="234" y="-600" name="L"/>
  <anchor x="453" y="1000" name="U"/>
  <outline>
    <contour>
      <point x="-68" y="-94" type="curve"/>
      <point x="-102" y="-351"/>
      <point x="60" y="-500"/>
      <point x="257" y="-500" type="curve" smooth="yes"/>
      <point x="442" y="-500"/>
      <point x="657" y="-315"/>
      <point x="663" y="-177" type="curve"/>
      <point x="643" y="-147" type="line"/>
      <point x="601" y="-150"/>
      <point x="542" y="-174"/>
      <point x="498" y="-194" type="curve"/>
      <point x="518" y="-323"/>
      <point x="403" y="-387"/>
      <point x="298" y="-387" type="curve" smooth="yes"/>
      <point x="176" y="-387"/>
      <point x="44" y="-274"/>
      <point x="76" y="-46" type="curve" smooth="yes"/>
      <point x="100" y="130"/>
      <point x="223" y="267"/>
      <point x="373" y="267" type="curve" smooth="yes"/>
      <point x="400" y="267"/>
      <point x="427" y="260"/>
      <point x="444" y="250" type="curve"/>
      <point x="477" y="267"/>
      <point x="526" y="318"/>
      <point x="545" y="351" type="curve"/>
      <point x="299" y="813" type="line"/>
      <point x="581" y="813" type="line" smooth="yes"/>
      <point x="620" y="813"/>
      <point x="651" y="801"/>
      <point x="658" y="680" type="curve"/>
      <point x="704" y="692" type="line"/>
      <point x="719" y="931" type="line"/>
      <point x="667" y="915"/>
      <point x="637" y="915"/>
      <point x="562" y="915" type="curve" smooth="yes"/>
      <point x="131" y="915" type="line"/>
      <point x="102" y="873" type="line"/>
      <point x="374" y="371" type="line"/>
      <point x="118" y="326"/>
      <point x="-35" y="139"/>
    </contour>
  </outline>
</glyph>
<glyph name="LtnCapTnFive" format="2">
  <advance width="925"/>
  <unicode hex="01BC"/>
  <anchor x="380" y="-100" name="L"/>
  <anchor x="575" y="1320" name="U"/>
  <outline>
    <contour>
      <point x="839" y="394" type="curve" smooth="yes"/>
      <point x="873" y="645"/>
      <point x="726" y="768"/>
      <point x="554" y="768" type="curve" smooth="yes"/>
      <point x="496" y="768"/>
      <point x="436" y="756"/>
      <point x="379" y="734" type="curve"/>
      <point x="438" y="1170" type="line"/>
      <point x="776" y="1170" type="line" smooth="yes"/>
      <point x="822" y="1170"/>
      <point x="822" y="1100"/>
      <point x="806" y="930" type="curve"/>
      <point x="849" y="930" type="line"/>
      <point x="877" y="1006"/>
      <point x="923" y="1167"/>
      <point x="936" y="1235" type="curve"/>
      <point x="912" y="1260" type="line"/>
      <point x="176" y="1260" type="line"/>
      <point x="170" y="1217" type="line"/>
      <point x="253" y="1198"/>
      <point x="294" y="1171"/>
      <point x="292" y="1155" type="curve" smooth="yes"/>
      <point x="221" y="632" type="line"/>
      <point x="228" y="621"/>
      <point x="242" y="595"/>
      <point x="249" y="588" type="curve"/>
      <point x="335" y="641"/>
      <point x="418" y="661"/>
      <point x="490" y="661" type="curve" smooth="yes"/>
      <point x="631" y="661"/>
      <point x="724" y="537"/>
      <point x="697" y="343" type="curve" smooth="yes"/>
      <point x="678" y="198"/>
      <point x="600" y="90"/>
      <point x="457" y="90" type="curve" smooth="yes"/>
      <point x="357" y="90"/>
      <point x="271" y="166"/>
      <point x="233" y="265" type="curve"/>
      <point x="182" y="257"/>
      <point x="94" y="168"/>
      <point x="92" y="153" type="curve" smooth="yes"/>
      <point x="86" y="108"/>
      <point x="198" y="-30"/>
      <point x="405" y="-30" type="curve" smooth="yes"/>
      <point x="625" y="-30"/>
      <point x="806" y="145"/>
    </contour>
  </outline>
</glyph>
<glyph name="LtnInvGlottalStopStrk" format="2">
  <advance width="780"/>
  <unicode hex="01BE"/>
  <anchor x="291" y="-100" name="L"/>
  <anchor x="480" y="1232" name="U"/>
  <outline>
    <contour>
      <point x="715" y="877" type="curve"/>
      <point x="695" y="905" type="line"/>
      <point x="160" y="905" type="line"/>
      <point x="59" y="846" type="line"/>
      <point x="74" y="815" type="line"/>
      <point x="435" y="815" type="line" smooth="yes"/>
      <point x="535" y="815"/>
      <point x="572" y="807"/>
      <point x="588" y="770" type="curve"/>
      <point x="613" y="784"/>
      <point x="688" y="840"/>
    </contour>
    <contour>
      <point x="385" y="963" type="line"/>
      <point x="406" y="1098"/>
      <point x="436" y="1151"/>
      <point x="436" y="1151" type="curve"/>
      <point x="408" y="1176" type="line"/>
      <point x="307" y="1104" type="line" smooth="yes"/>
      <point x="272" y="1077"/>
      <point x="254" y="1049"/>
      <point x="238" y="940" type="curve" smooth="yes"/>
      <point x="196" y="689" type="line" smooth="yes"/>
      <point x="178" y="583"/>
      <point x="239" y="502"/>
      <point x="380" y="436" type="curve" smooth="yes"/>
      <point x="481" y="389"/>
      <point x="573" y="326"/>
      <point x="573" y="223" type="curve" smooth="yes"/>
      <point x="573" y="131"/>
      <point x="495" y="55"/>
      <point x="401" y="55" type="curve" smooth="yes"/>
      <point x="225" y="55"/>
      <point x="194" y="223"/>
      <point x="167" y="223" type="curve" smooth="yes"/>
      <point x="139" y="223"/>
      <point x="65" y="127"/>
      <point x="65" y="98" type="curve" smooth="yes"/>
      <point x="65" y="41"/>
      <point x="196" y="-41"/>
      <point x="321" y="-41" type="curve" smooth="yes"/>
      <point x="495" y="-41"/>
      <point x="704" y="104"/>
      <point x="704" y="289" type="curve" smooth="yes"/>
      <point x="704" y="430"/>
      <point x="583" y="509"/>
      <point x="475" y="559" type="curve" smooth="yes"/>
      <point x="396" y="596"/>
      <point x="335" y="643"/>
      <point x="346" y="713" type="curve" smooth="yes"/>
    </contour>
  </outline>
</glyph>
<glyph name="LtnDentalClick" format="2">
  <advance width="461"/>
  <unicode hex="01C0"/>
  <anchor x="80" y="-600" name="L"/>
  <anchor x="376" y="1640" name="U"/>
  <outline>
    <contour>
      <point x="201" y="-439" type="curve"/>
      <point x="201" y="-203"/>
      <point x="412" y="1229"/>
      <point x="461" y="1498" type="curve"/>
      <point x="433" y="1520" type="line"/>
      <point x="397" y="1510"/>
      <point x="304" y="1481"/>
      <point x="268" y="1459" type="curve"/>
      <point x="269" y="1446"/>
      <point x="270" y="1430"/>
      <point x="270" y="1410" type="curve" smooth="yes"/>
      <point x="270" y="1067"/>
      <point x="66" y="-231"/>
      <point x="19" y="-478" type="curve"/>
      <point x="47" y="-500" type="line"/>
      <point x="78" y="-491"/>
      <point x="176" y="-460"/>
    </contour>
  </outline>
</glyph>
<glyph name="LtnAlveolarClick" format="2">
  <advance width="671"/>
  <unicode hex="01C2"/>
  <anchor x="140" y="-600" name="L"/>
  <anchor x="466" y="1640" name="U"/>
  <outline>
    <contour>
      <point x="296" y="-439" type="curve"/>
      <point x="296" y="-203"/>
      <point x="507" y="1229"/>
      <point x="556" y="1498" type="curve"/>
      <point x="528" y="1520" type="line"/>
      <point x="492" y="1510"/>
      <point x="399" y="1481"/>
      <point x="363" y="1459" type="curve"/>
      <point x="364" y="1446"/>
      <point x="365" y="1430"/>
      <point x="365" y="1410" type="curve" smooth="yes"/>
      <point x="365" y="1067"/>
      <point x="161" y="-231"/>
      <point x="114" y="-478" type="curve"/>
      <point x="142" y="-500" type="line"/>
      <point x="173" y="-491"/>
      <point x="271" y="-460"/>
    </contour>
    <contour>
      <point x="34" y="390" type="line"/>
      <point x="621" y="390" type="line"/>
      <point x="633" y="413"/>
      <point x="644" y="435"/>
      <point x="652" y="458" type="curve"/>
      <point x="633" y="480" type="line"/>
      <point x="46" y="480" type="line"/>
      <point x="34" y="462"/>
      <point x="23" y="435"/>
      <point x="15" y="415" type="curve"/>
    </contour>
    <contour>
      <point x="60" y="630" type="line"/>
      <point x="647" y="630" type="line"/>
      <point x="659" y="653"/>
      <point x="670" y="675"/>
      <point x="678" y="698" type="curve"/>
      <point x="659" y="720" type="line"/>
      <point x="72" y="720" type="line"/>
      <point x="60" y="702"/>
      <point x="49" y="675"/>
      <point x="41" y="655" type="curve"/>
    </contour>
  </outline>
</glyph>
<glyph name="LtnCapGStrk" format="2">
  <advance width="1073"/>
  <unicode hex="01E4"/>
  <anchor x="525" y="-100" name="L"/>
  <anchor x="720" y="1320" name="U"/>
  <outline>
    <contour>
      <point x="1060" y="373" type="line"/>
      <point x="1041" y="396" type="line"/>
      <point x="493" y="396" type="line"/>
      <point x="483" y="375"/>
      <point x="473" y="350"/>
      <point x="465" y="330" type="curve"/>
      <point x="481" y="305" type="line"/>
      <point x="1031" y="305" type="line"/>
    </contour>
    <contour>
      <point x="1070" y="630" type="line"/>
      <point x="609" y="630" type="line"/>
      <point x="603" y="587" type="line"/>
      <point x="804" y="556"/>
      <point x="824" y="533"/>
      <point x="820" y="505" type="curve" smooth="yes"/>
      <point x="774" y="156" type="line"/>
      <point x="727" y="122"/>
      <point x="652" y="98"/>
      <point x="580" y="98" type="curve" smooth="yes"/>
      <point x="416" y="98"/>
      <point x="225" y="231"/>
      <point x="225" y="516" type="curve" smooth="yes"/>
      <point x="225" y="702"/>
      <point x="311" y="967"/>
      <point x="446" y="1075" type="curve" smooth="yes"/>
      <point x="518" y="1133"/>
      <point x="596" y="1171"/>
      <point x="647" y="1171" type="curve" smooth="yes"/>
      <point x="768" y="1171"/>
      <point x="850" y="1147"/>
      <point x="920" y="1063" type="curve"/>
      <point x="948" y="1057" type="line"/>
      <point x="985" y="1087"/>
      <point x="1071" y="1174"/>
      <point x="1055" y="1188" type="curve"/>
      <point x="987" y="1253"/>
      <point x="872" y="1290"/>
      <point x="793" y="1290" type="curve" smooth="yes"/>
      <point x="635" y="1290"/>
      <point x="494" y="1231"/>
      <point x="381" y="1143" type="curve"/>
      <point x="201" y="999"/>
      <point x="76" y="727"/>
      <point x="76" y="473" type="curve" smooth="yes"/>
      <point x="76" y="152"/>
      <point x="281" y="-31"/>
      <point x="502" y="-31" type="curve" smooth="yes"/>
      <point x="610" y="-31"/>
      <point x="707" y="-8"/>
      <point x="909" y="154" type="curve"/>
      <point x="925" y="271"/>
      <point x="941" y="388"/>
      <point x="957" y="505" type="curve" smooth="yes"/>
      <point x="961" y="535"/>
      <point x="992" y="566"/>
      <point x="1064" y="587" type="curve"/>
    </contour>
  </outline>
</glyph>
<glyph name="LtnCapYogh" format="2">
  <advance width="929"/>
  <unicode hex="021C"/>
  <anchor x="354" y="-600" name="L"/>
  <anchor x="614" y="1320" name="U"/>
  <outline>
    <contour>
      <point x="918" y="1005" type="curve"/>
      <point x="943" y="1190"/>
      <point x="809" y="1290"/>
      <point x="635" y="1290" type="curve" smooth="yes"/>
      <point x="476" y="1290"/>
      <point x="396" y="1266"/>
      <point x="229" y="1183" type="curve" smooth="yes"/>
      <point x="209" y="1173"/>
      <point x="210" y="1022"/>
      <point x="225" y="933" type="curve"/>
      <point x="266" y="941" type="line"/>
      <point x="302" y="1102"/>
      <point x="395" y="1183"/>
      <point x="556" y="1186" type="curve" smooth="yes"/>
      <point x="683" y="1188"/>
      <point x="795" y="1106"/>
      <point x="776" y="969" type="curve" smooth="yes"/>
      <point x="753" y="798"/>
      <point x="558" y="673"/>
      <point x="263" y="539" type="curve"/>
      <point x="266" y="511"/>
      <point x="273" y="475"/>
      <point x="276" y="459" type="curve"/>
      <point x="767" y="665"/>
      <point x="895" y="832"/>
    </contour>
    <contour>
      <point x="860" y="380" type="curve" smooth="yes"/>
      <point x="886" y="568"/>
      <point x="744" y="697"/>
      <point x="513" y="627" type="curve"/>
      <point x="488" y="598"/>
      <point x="432" y="559"/>
      <point x="397" y="512" type="curve"/>
      <point x="429" y="520"/>
      <point x="464" y="523"/>
      <point x="498" y="523" type="curve" smooth="yes"/>
      <point x="598" y="523"/>
      <point x="730" y="472"/>
      <point x="709" y="320" type="curve" smooth="yes"/>
      <point x="689" y="167"/>
      <point x="525" y="-5"/>
      <point x="58" y="-172" type="curve"/>
      <point x="63" y="-198"/>
      <point x="68" y="-222"/>
      <point x="75" y="-254" type="curve"/>
      <point x="766" y="-20"/>
      <point x="839" y="225"/>
    </contour>
  </outline>
</glyph>
<glyph name="LtnSmYogh" format="2">
  <advance width="802"/>
  <unicode hex="021D"/>
  <anchor x="233" y="-600" name="L"/>
  <anchor x="453" y="1000" name="U"/>
  <outline>
    <contour>
      <point x="724" y="685" type="curve"/>
      <point x="750" y="875"/>
      <point x="606" y="936"/>
      <point x="497" y="936" type="curve" smooth="yes"/>
      <point x="364" y="936"/>
      <point x="242" y="893"/>
      <point x="107" y="814" type="curve" smooth="yes"/>
      <point x="84" y="801"/>
      <point x="96" y="670"/>
      <point x="123" y="586" type="curve"/>
      <point x="158" y="594" type="line"/>
      <point x="190" y="743"/>
      <point x="292" y="836"/>
      <point x="419" y="838" type="curve" smooth="yes"/>
      <point x="517" y="840"/>
      <point x="575" y="762"/>
      <point x="559" y="645" type="curve" smooth="yes"/>
      <point x="539" y="495"/>
      <point x="419" y="398"/>
      <point x="168" y="234" type="curve"/>
      <point x="169" y="209"/>
      <point x="175" y="180"/>
      <point x="177" y="166" type="curve"/>
      <point x="581" y="367"/>
      <point x="701" y="506"/>
    </contour>
    <contour>
      <point x="658" y="108" type="curve" smooth="yes"/>
      <point x="682" y="278"/>
      <point x="569" y="367"/>
      <point x="384" y="357" type="curve"/>
      <point x="364" y="330"/>
      <point x="310" y="264"/>
      <point x="282" y="219" type="curve"/>
      <point x="307" y="227"/>
      <point x="335" y="230"/>
      <point x="362" y="230" type="curve" smooth="yes"/>
      <point x="441" y="230"/>
      <point x="511" y="177"/>
      <point x="494" y="46" type="curve" smooth="yes"/>
      <point x="470" y="-124"/>
      <point x="261" y="-300"/>
      <point x="-37" y="-441" type="curve"/>
      <point x="-31" y="-461"/>
      <point x="-25" y="-484"/>
      <point x="-9" y="-500" type="curve"/>
      <point x="510" y="-280"/>
      <point x="634" y="-77"/>
    </contour>
  </outline>
</glyph>
<glyph name="LtnSmZSwashTail" format="2">
  <advance width="776"/>
  <unicode hex="0240"/>
  <anchor x="285" y="-600" name="L"/>
  <anchor x="487" y="1000" name="U"/>
  <outline>
    <contour>
      <point x="190" y="96" type="curve"/>
      <point x="401" y="366"/>
      <point x="557" y="649"/>
      <point x="776" y="885" type="curve"/>
      <point x="756" y="915" type="line"/>
      <point x="268" y="915" type="line" smooth="yes"/>
      <point x="221" y="915"/>
      <point x="195" y="930"/>
      <point x="170" y="936" type="curve"/>
      <point x="160" y="879"/>
      <point x="131" y="793"/>
      <point x="106" y="674" type="curve"/>
      <point x="145" y="666" type="line"/>
      <point x="184" y="778"/>
      <point x="205" y="795"/>
      <point x="268" y="795" type="curve" smooth="yes"/>
      <point x="569" y="795" type="line"/>
      <point x="453" y="657"/>
      <point x="195" y="242"/>
      <point x="-4" y="2" type="curve"/>
      <point x="18" y="-31" type="line"/>
      <point x="61" y="-16"/>
      <point x="96" y="-10"/>
      <point x="126" y="-10" type="curve" smooth="yes"/>
      <point x="355" y="-10"/>
      <point x="288" y="-400"/>
      <point x="468" y="-400" type="curve" smooth="yes"/>
      <point x="606" y="-400"/>
      <point x="693" y="-268"/>
      <point x="700" y="-169" type="curve"/>
      <point x="689" y="-130" type="line"/>
      <point x="653" y="-124"/>
      <point x="526" y="-185"/>
      <point x="531" y="-197" type="curve" smooth="yes"/>
      <point x="555" y="-253"/>
      <point x="553" y="-306"/>
      <point x="511" y="-306" type="curve" smooth="yes"/>
      <point x="395" y="-306"/>
      <point x="438" y="21"/>
      <point x="257" y="85" type="curve" smooth="yes"/>
      <point x="238" y="92"/>
      <point x="215" y="96"/>
    </contour>
  </outline>
</glyph>
<glyph name="LtnSmGlottalStop" format="2">
  <advance width="721"/>
  <unicode hex="0242"/>
  <anchor x="286" y="-100" name="L"/>
  <anchor x="440" y="1000" name="U"/>
  <outline>
    <contour>
      <point x="525" y="0" type="line"/>
      <point x="530" y="42" type="line"/>
      <point x="437" y="60"/>
      <point x="386" y="82"/>
      <point x="389" y="102" type="curve" smooth="yes"/>
      <point x="415" y="294" type="line" smooth="yes"/>
      <point x="441" y="485"/>
      <point x="669" y="483"/>
      <point x="698" y="696" type="curve" smooth="yes"/>
      <point x="716" y="830"/>
      <point x="622" y="936"/>
      <point x="476" y="936" type="curve" smooth="yes"/>
      <point x="306" y="936"/>
      <point x="104" y="819"/>
      <point x="82" y="655" type="curve" smooth="yes"/>
      <point x="80" y="645"/>
      <point x="79" y="632"/>
      <point x="79" y="622" type="curve"/>
      <point x="99" y="593" type="line"/>
      <point x="151" y="599"/>
      <point x="203" y="608"/>
      <point x="243" y="630" type="curve"/>
      <point x="241" y="649"/>
      <point x="239" y="668"/>
      <point x="241" y="687" type="curve" smooth="yes"/>
      <point x="253" y="769"/>
      <point x="309" y="842"/>
      <point x="395" y="842" type="curve" smooth="yes"/>
      <point x="491" y="842"/>
      <point x="566" y="773"/>
      <point x="550" y="652" type="curve" smooth="yes"/>
      <point x="528" y="495"/>
      <point x="298" y="480"/>
      <point x="268" y="256" type="curve" smooth="yes"/>
      <point x="247" y="102" type="line" smooth="yes"/>
      <point x="244" y="80"/>
      <point x="192" y="62"/>
      <point x="88" y="42" type="curve"/>
      <point x="83" y="0" type="line"/>
    </contour>
  </outline>
</glyph>
<glyph name="LtnSmRBar" format="2">
  <advance width="727"/>
  <unicode hex="024D"/>
  <anchor x="164" y="-100" name="L"/>
  <anchor x="461" y="1000" name="U"/>
  <outline>
    <contour>
      <point x="768" y="850" type="curve"/>
      <point x="709" y="874"/>
      <point x="682" y="936"/>
      <point x="635" y="936" type="curve" smooth="yes"/>
      <point x="549" y="936"/>
      <point x="451" y="881"/>
      <point x="322" y="618" type="curve"/>
      <point x="330" y="668"/>
      <point x="348" y="793"/>
      <point x="348" y="821" type="curve" smooth="yes"/>
      <point x="348" y="915"/>
      <point x="346" y="936"/>
      <point x="309" y="936" type="curve" smooth="yes"/>
      <point x="276" y="936"/>
      <point x="154" y="891"/>
      <point x="41" y="840" type="curve"/>
      <point x="55" y="803" type="line"/>
      <point x="55" y="803"/>
      <point x="133" y="827"/>
      <point x="158" y="827" type="curve" smooth="yes"/>
      <point x="180" y="827"/>
      <point x="199" y="821"/>
      <point x="199" y="760" type="curve" smooth="yes"/>
      <point x="199" y="639"/>
      <point x="145" y="274"/>
      <point x="86" y="-10" type="curve"/>
      <point x="119" y="-41" type="line"/>
      <point x="152" y="-23"/>
      <point x="227" y="6"/>
      <point x="262" y="25" type="curve"/>
      <point x="258" y="131"/>
      <point x="279" y="283"/>
      <point x="307" y="383" type="curve" smooth="yes"/>
      <point x="362" y="575"/>
      <point x="485" y="784"/>
      <point x="555" y="784" type="curve" smooth="yes"/>
      <point x="594" y="784"/>
      <point x="612" y="715"/>
      <point x="662" y="715" type="curve" smooth="yes"/>
      <point x="688" y="715"/>
      <point x="735" y="807"/>
    </contour>
    <contour>
      <point x="578" y="485" type="line"/>
      <point x="559" y="510" type="line"/>
      <point x="45" y="510" type="line"/>
      <point x="33" y="489"/>
      <point x="23" y="463"/>
      <point x="14" y="442" type="curve"/>
      <point x="33" y="420" type="line"/>
      <point x="547" y="420" type="line"/>
    </contour>
  </outline>
</glyph>
<glyph name="LtnSmTurnedA" format="2">
  <advance width="860"/>
  <unicode hex="0250"/>
  <anchor x="410" y="-100" name="L"/>
  <anchor x="978" y="870" name="R"/>
  <anchor x="560" y="1000" name="U"/>
  <outline>
    <contour>
      <point x="52" y="841" type="curve"/>
      <point x="66" y="800" type="line"/>
      <point x="97" y="814"/>
      <point x="135" y="829"/>
      <point x="172" y="829" type="curve" smooth="yes"/>
      <point x="211" y="829"/>
      <point x="215" y="779"/>
      <point x="206" y="652" type="curve" smooth="yes"/>
      <point x="197" y="531"/>
      <point x="132" y="299"/>
      <point x="132" y="175" type="curve" smooth="yes"/>
      <point x="132" y="54"/>
      <point x="188" y="-42"/>
      <point x="359" y="-42" type="curve" smooth="yes"/>
      <point x="490" y="-42"/>
      <point x="680" y="2"/>
      <point x="782" y="168" type="curve"/>
      <point x="774" y="205" type="line"/>
      <point x="717" y="198"/>
      <point x="618" y="166"/>
      <point x="614" y="149" type="curve" smooth="yes"/>
      <point x="598" y="80"/>
      <point x="526" y="46"/>
      <point x="442" y="46" type="curve" smooth="yes"/>
      <point x="290" y="46"/>
      <point x="272" y="122"/>
      <point x="272" y="216" type="curve" smooth="yes"/>
      <point x="272" y="337"/>
      <point x="337" y="570"/>
      <point x="353" y="715" type="curve" smooth="yes"/>
      <point x="366" y="835"/>
      <point x="372" y="936"/>
      <point x="319" y="936" type="curve" smooth="yes"/>
      <point x="280" y="936"/>
      <point x="183" y="902"/>
    </contour>
    <contour>
      <point x="208" y="316" type="line"/>
      <point x="487" y="378" type="line" smooth="yes"/>
      <point x="659" y="417"/>
      <point x="851" y="550"/>
      <point x="851" y="771" type="curve" smooth="yes"/>
      <point x="851" y="863"/>
      <point x="759" y="935"/>
      <point x="683" y="935" type="curve" smooth="yes"/>
      <point x="583" y="935"/>
      <point x="355" y="871"/>
      <point x="239" y="575" type="curve"/>
      <point x="257" y="501" type="line"/>
      <point x="376" y="771"/>
      <point x="542" y="814"/>
      <point x="622" y="814" type="curve" smooth="yes"/>
      <point x="650" y="814"/>
      <point x="710" y="783"/>
      <point x="710" y="706" type="curve" smooth="yes"/>
      <point x="710" y="548"/>
      <point x="528" y="464"/>
      <point x="415" y="441" type="curve" smooth="yes"/>
      <point x="212" y="402" type="line"/>
    </contour>
  </outline>
</glyph>
<glyph name="LtnSmDHook" format="2">
  <advance width="969"/>
  <unicode hex="0257"/>
  <anchor x="374" y="-100" name="L"/>
  <anchor x="354" y="1000" name="U"/>
  <outline>
    <contour>
      <point x="1341" y="1403" type="curve"/>
      <point x="1300" y="1417"/>
      <point x="1239" y="1520"/>
      <point x="1122" y="1520" type="curve" smooth="yes"/>
      <point x="1040" y="1520"/>
      <point x="977" y="1479"/>
      <point x="907" y="1427" type="curve" smooth="yes"/>
      <point x="811" y="1356"/>
      <point x="754" y="1272"/>
      <point x="715" y="1065" type="curve" smooth="yes"/>
      <point x="676" y="856"/>
      <point x="608" y="373"/>
      <point x="608" y="299" type="curve" smooth="yes"/>
      <point x="608" y="39"/>
      <point x="645" y="-41"/>
      <point x="696" y="-41" type="curve" smooth="yes"/>
      <point x="741" y="-41"/>
      <point x="811" y="-8"/>
      <point x="924" y="68" type="curve"/>
      <point x="911" y="104" type="line"/>
      <point x="864" y="84"/>
      <point x="829" y="78"/>
      <point x="795" y="78" type="curve" smooth="yes"/>
      <point x="764" y="78"/>
      <point x="750" y="145"/>
      <point x="750" y="299" type="curve" smooth="yes"/>
      <point x="750" y="379"/>
      <point x="821" y="881"/>
      <point x="866" y="1116" type="curve" smooth="yes"/>
      <point x="909" y="1329"/>
      <point x="956" y="1417"/>
      <point x="1044" y="1417" type="curve" smooth="yes"/>
      <point x="1118" y="1417"/>
      <point x="1141" y="1305"/>
      <point x="1176" y="1305" type="curve" smooth="yes"/>
      <point x="1208" y="1305"/>
      <point x="1284" y="1362"/>
    </contour>
    <contour>
      <point x="813" y="811" type="curve"/>
      <point x="756" y="803"/>
      <point x="668" y="934"/>
      <point x="592" y="934" type="curve" smooth="yes"/>
      <point x="510" y="934"/>
      <point x="406" y="889"/>
      <point x="332" y="842" type="curve" smooth="yes"/>
      <point x="143" y="717"/>
      <point x="53" y="526"/>
      <point x="53" y="315" type="curve" smooth="yes"/>
      <point x="53" y="66"/>
      <point x="186" y="-41"/>
      <point x="276" y="-41" type="curve" smooth="yes"/>
      <point x="393" y="-41"/>
      <point x="520" y="115"/>
      <point x="610" y="285" type="curve"/>
      <point x="641" y="463" type="line"/>
      <point x="539" y="260"/>
      <point x="424" y="96"/>
      <point x="346" y="96" type="curve" smooth="yes"/>
      <point x="268" y="96"/>
      <point x="190" y="207"/>
      <point x="190" y="379" type="curve" smooth="yes"/>
      <point x="190" y="537"/>
      <point x="307" y="831"/>
      <point x="489" y="831" type="curve" smooth="yes"/>
      <point x="616" y="831"/>
      <point x="696" y="659"/>
      <point x="745" y="659" type="curve" smooth="yes"/>
      <point x="780" y="659"/>
      <point x="756" y="772"/>
    </contour>
  </outline>
</glyph>
<glyph name="LtnSmRevE" format="2">
  <advance width="844"/>
  <unicode hex="0258"/>
  <anchor x="347" y="-100" name="L"/>
  <anchor x="928" y="870" name="R"/>
  <anchor x="498" y="1000" name="U"/>
  <outline>
    <contour>
      <point x="100" y="544" type="curve"/>
      <point x="98" y="426"/>
      <point x="186" y="387"/>
      <point x="287" y="387" type="curve" smooth="yes"/>
      <point x="455" y="387"/>
      <point x="590" y="480"/>
      <point x="720" y="582" type="curve"/>
      <point x="730" y="690" type="line"/>
      <point x="624" y="570"/>
      <point x="439" y="486"/>
      <point x="354" y="486" type="curve" smooth="yes"/>
      <point x="293" y="486"/>
      <point x="250" y="513"/>
      <point x="250" y="614" type="curve" smooth="yes"/>
      <point x="250" y="741"/>
      <point x="377" y="828"/>
      <point x="459" y="828" type="curve" smooth="yes"/>
      <point x="579" y="828"/>
      <point x="638" y="670"/>
      <point x="638" y="506" type="curve" smooth="yes"/>
      <point x="638" y="255"/>
      <point x="515" y="88"/>
      <point x="355" y="88" type="curve" smooth="yes"/>
      <point x="298" y="88"/>
      <point x="187" y="103"/>
      <point x="73" y="211" type="curve"/>
      <point x="56" y="202"/>
      <point x="41" y="181"/>
      <point x="34" y="171" type="curve"/>
      <point x="143" y="-1"/>
      <point x="273" y="-41"/>
      <point x="355" y="-41" type="curve" smooth="yes"/>
      <point x="471" y="-41"/>
      <point x="586" y="47"/>
      <point x="677" y="189" type="curve" smooth="yes"/>
      <point x="729" y="271"/>
      <point x="789" y="453"/>
      <point x="789" y="597" type="curve" smooth="yes"/>
      <point x="789" y="761"/>
      <point x="721" y="936"/>
      <point x="533" y="936" type="curve" smooth="yes"/>
      <point x="332" y="936"/>
      <point x="100" y="705"/>
    </contour>
  </outline>
</glyph>
<glyph name="LtnSmSchwaHook" format="2">
  <advance width="1087"/>
  <unicode hex="025A"/>
  <anchor x="272" y="0" name="H"/>
  <anchor x="452" y="-100" name="L"/>
  <anchor x="352" y="0" name="O"/>
  <anchor x="648" y="1000" name="U"/>
  <outline>
    <contour>
      <point x="1056" y="904" type="curve" smooth="yes"/>
      <point x="1033" y="936" type="line"/>
      <point x="956" y="874"/>
      <point x="841" y="789"/>
      <point x="690" y="699" type="curve"/>
      <point x="705" y="625" type="line"/>
      <point x="778" y="668"/>
      <point x="844" y="706"/>
      <point x="885" y="728" type="curve"/>
      <point x="880" y="708"/>
      <point x="877" y="706"/>
      <point x="873" y="677" type="curve"/>
      <point x="861" y="591"/>
      <point x="898" y="569"/>
      <point x="928" y="569" type="curve" smooth="yes"/>
      <point x="973" y="569"/>
      <point x="1031" y="595"/>
      <point x="1125" y="666" type="curve" smooth="yes"/>
      <point x="1120" y="708" type="line"/>
      <point x="1063" y="680"/>
      <point x="1033" y="673"/>
      <point x="1011" y="672" type="curve"/>
      <point x="978" y="671"/>
      <point x="966" y="699"/>
      <point x="974" y="747" type="curve" smooth="yes"/>
      <point x="980" y="783"/>
      <point x="999" y="833"/>
    </contour>
    <contour>
      <point x="750" y="592" type="curve"/>
      <point x="750" y="844"/>
      <point x="596" y="936"/>
      <point x="508" y="936" type="curve" smooth="yes"/>
      <point x="412" y="936"/>
      <point x="305" y="905"/>
      <point x="86" y="715" type="curve"/>
      <point x="90" y="705"/>
      <point x="102" y="682"/>
      <point x="117" y="674" type="curve"/>
      <point x="279" y="803"/>
      <point x="379" y="819"/>
      <point x="436" y="819" type="curve" smooth="yes"/>
      <point x="514" y="819"/>
      <point x="608" y="692"/>
      <point x="608" y="518" type="curve" smooth="yes"/>
      <point x="608" y="371"/>
      <point x="539" y="193"/>
      <point x="442" y="113" type="curve" smooth="yes"/>
      <point x="401" y="80"/>
      <point x="348" y="63"/>
      <point x="315" y="63" type="curve" smooth="yes"/>
      <point x="268" y="63"/>
      <point x="223" y="96"/>
      <point x="223" y="180" type="curve" smooth="yes"/>
      <point x="223" y="279"/>
      <point x="259" y="389"/>
      <point x="670" y="615" type="curve"/>
      <point x="694" y="643"/>
      <point x="664" y="686"/>
      <point x="664" y="686" type="curve"/>
      <point x="145" y="431"/>
      <point x="63" y="252"/>
      <point x="63" y="135" type="curve" smooth="yes"/>
      <point x="63" y="49"/>
      <point x="117" y="-41"/>
      <point x="231" y="-41" type="curve" smooth="yes"/>
      <point x="332" y="-41"/>
      <point x="428" y="2"/>
      <point x="492" y="49" type="curve" smooth="yes"/>
      <point x="676" y="186"/>
      <point x="750" y="383"/>
    </contour>
  </outline>
</glyph>
<glyph name="LtnSmGHook" format="2">
  <advance width="911"/>
  <unicode hex="0260"/>
  <anchor x="296" y="-600" name="L"/>
  <anchor x="638" y="1640" name="U"/>
  <outline>
    <contour>
      <point x="271" y="-500" type="curve" smooth="yes"/>
      <point x="480" y="-500"/>
      <point x="711" y="-278"/>
      <point x="744" y="1" type="curve" smooth="yes"/>
      <point x="780" y="309"/>
      <point x="796" y="810"/>
      <point x="836" y="1041" type="curve" smooth="yes"/>
      <point x="850" y="1122"/>
      <point x="876" y="1230"/>
      <point x="945" y="1230" type="curve" smooth="yes"/>
      <point x="1019" y="1230"/>
      <point x="1042" y="1118"/>
      <point x="1077" y="1118" type="curve" smooth="yes"/>
      <point x="1109" y="1118"/>
      <point x="1184" y="1175"/>
      <point x="1241" y="1216" type="curve"/>
      <point x="1200" y="1230"/>
      <point x="1140" y="1333"/>
      <point x="1023" y="1333" type="curve" smooth="yes"/>
      <point x="967" y="1333"/>
      <point x="874" y="1288"/>
      <point x="818" y="1241" type="curve" smooth="yes"/>
      <point x="730" y="1168"/>
      <point x="703" y="1083"/>
      <point x="685" y="990" type="curve" smooth="yes"/>
      <point x="623" y="663"/>
      <point x="649" y="342"/>
      <point x="597" y="-48" type="curve" smooth="yes"/>
      <point x="570" y="-250"/>
      <point x="511" y="-389"/>
      <point x="347" y="-389" type="curve" smooth="yes"/>
      <point x="159" y="-389"/>
      <point x="126" y="-256"/>
      <point x="95" y="-256" type="curve" smooth="yes"/>
      <point x="77" y="-256"/>
      <point x="-5" y="-334"/>
      <point x="-5" y="-379" type="curve" smooth="yes"/>
      <point x="-5" y="-426"/>
      <point x="159" y="-500"/>
    </contour>
    <contour>
      <point x="266" y="-41" type="curve" smooth="yes"/>
      <point x="385" y="-41"/>
      <point x="547" y="170"/>
      <point x="631" y="338" type="curve"/>
      <point x="651" y="528" type="line"/>
      <point x="565" y="303"/>
      <point x="395" y="96"/>
      <point x="338" y="96" type="curve" smooth="yes"/>
      <point x="258" y="96"/>
      <point x="190" y="207"/>
      <point x="190" y="379" type="curve" smooth="yes"/>
      <point x="190" y="537"/>
      <point x="319" y="831"/>
      <point x="502" y="831" type="curve" smooth="yes"/>
      <point x="612" y="831"/>
      <point x="680" y="725"/>
      <point x="717" y="725" type="curve" smooth="yes"/>
      <point x="750" y="725"/>
      <point x="734" y="803"/>
      <point x="791" y="842" type="curve"/>
      <point x="744" y="848"/>
      <point x="692" y="936"/>
      <point x="602" y="936" type="curve" smooth="yes"/>
      <point x="520" y="936"/>
      <point x="418" y="891"/>
      <point x="344" y="842" type="curve" smooth="yes"/>
      <point x="147" y="711"/>
      <point x="51" y="516"/>
      <point x="51" y="305" type="curve" smooth="yes"/>
      <point x="51" y="55"/>
      <point x="178" y="-41"/>
    </contour>
  </outline>
</glyph>
<glyph name="LtnSmTurnedH" format="2">
  <advance width="981"/>
  <unicode hex="0265"/>
  <anchor x="307" y="-100" name="L"/>
  <anchor x="581" y="1000" name="U"/>
  <outline>
    <contour>
      <point x="51" y="803" type="line"/>
      <point x="104" y="820"/>
      <point x="140" y="827"/>
      <point x="157" y="827" type="curve" smooth="yes"/>
      <point x="183" y="827"/>
      <point x="195" y="808"/>
      <point x="195" y="760" type="curve" smooth="yes"/>
      <point x="195" y="649"/>
      <point x="110" y="274"/>
      <point x="110" y="135" type="curve" smooth="yes"/>
      <point x="110" y="6"/>
      <point x="163" y="-41"/>
      <point x="247" y="-41" type="curve" smooth="yes"/>
      <point x="366" y="-41"/>
      <point x="495" y="25"/>
      <point x="651" y="217" type="curve"/>
      <point x="627" y="72"/>
      <point x="572" y="-264"/>
      <point x="572" y="-359" type="curve" smooth="yes"/>
      <point x="572" y="-450"/>
      <point x="612" y="-500"/>
      <point x="649" y="-500" type="curve" smooth="yes"/>
      <point x="694" y="-500"/>
      <point x="800" y="-459"/>
      <point x="911" y="-387" type="curve"/>
      <point x="896" y="-350" type="line"/>
      <point x="856" y="-371"/>
      <point x="797" y="-383"/>
      <point x="766" y="-383" type="curve" smooth="yes"/>
      <point x="744" y="-383"/>
      <point x="726" y="-355"/>
      <point x="726" y="-284" type="curve" smooth="yes"/>
      <point x="726" y="-114"/>
      <point x="854" y="619"/>
      <point x="903" y="905" type="curve"/>
      <point x="870" y="936" type="line"/>
      <point x="837" y="918"/>
      <point x="762" y="889"/>
      <point x="727" y="870" type="curve"/>
      <point x="731" y="813"/>
      <point x="727" y="741"/>
      <point x="704" y="594" type="curve" smooth="yes"/>
      <point x="686" y="475"/>
      <point x="663" y="377"/>
      <point x="627" y="313" type="curve" smooth="yes"/>
      <point x="526" y="143"/>
      <point x="394" y="61"/>
      <point x="334" y="61" type="curve" smooth="yes"/>
      <point x="286" y="61"/>
      <point x="264" y="74"/>
      <point x="264" y="195" type="curve" smooth="yes"/>
      <point x="264" y="305"/>
      <point x="354" y="748"/>
      <point x="354" y="849" type="curve" smooth="yes"/>
      <point x="354" y="921"/>
      <point x="337" y="936"/>
      <point x="308" y="936" type="curve" smooth="yes"/>
      <point x="273" y="936"/>
      <point x="177" y="903"/>
      <point x="39" y="840" type="curve"/>
    </contour>
  </outline>
</glyph>
<glyph name="LtnSmIota" format="2">
  <advance width="504"/>
  <unicode hex="0269"/>
  <anchor x="230" y="0" name="H"/>
  <anchor x="217" y="-100" name="L"/>
  <anchor x="290" y="0" name="O"/>
  <anchor x="516" y="870" name="R"/>
  <anchor x="345" y="1000" name="U"/>
  <outline>
    <contour>
      <point x="504" y="182" type="curve"/>
      <point x="479" y="229" type="line"/>
      <point x="408" y="127"/>
      <point x="356" y="104"/>
      <point x="328" y="104" type="curve" smooth="yes"/>
      <point x="293" y="104"/>
      <point x="268" y="111"/>
      <point x="299" y="289" type="curve" smooth="yes"/>
      <point x="408" y="936" type="line"/>
      <point x="377" y="936" type="line"/>
      <point x="291" y="897"/>
      <point x="184" y="870"/>
      <point x="100" y="856" type="curve"/>
      <point x="94" y="817" type="line"/>
      <point x="219" y="805"/>
      <point x="240" y="784"/>
      <point x="215" y="649" type="curve" smooth="yes"/>
      <point x="135" y="190" type="line" smooth="yes"/>
      <point x="109" y="35"/>
      <point x="141" y="-41"/>
      <point x="231" y="-41" type="curve" smooth="yes"/>
      <point x="336" y="-41"/>
      <point x="428" y="45"/>
    </contour>
  </outline>
</glyph>
<glyph name="LtnSmLMiddleTilde" format="2">
  <advance width="643"/>
  <unicode hex="026B"/>
  <anchor x="234" y="-100" name="L"/>
  <anchor x="473" y="1640" name="U"/>
  <outline>
    <contour>
      <point x="517" y="72" type="curve"/>
      <point x="505" y="109" type="line"/>
      <point x="446" y="86"/>
      <point x="407" y="76"/>
      <point x="376" y="76" type="curve" smooth="yes"/>
      <point x="355" y="76"/>
      <point x="341" y="90"/>
      <point x="341" y="135" type="curve" smooth="yes"/>
      <point x="341" y="317"/>
      <point x="515" y="1231"/>
      <point x="515" y="1438" type="curve" smooth="yes"/>
      <point x="515" y="1499"/>
      <point x="491" y="1520"/>
      <point x="454" y="1520" type="curve" smooth="yes"/>
      <point x="419" y="1520"/>
      <point x="298" y="1475"/>
      <point x="185" y="1425" type="curve"/>
      <point x="200" y="1386" type="line"/>
      <point x="200" y="1386"/>
      <point x="282" y="1413"/>
      <point x="304" y="1413" type="curve" smooth="yes"/>
      <point x="329" y="1413"/>
      <point x="355" y="1407"/>
      <point x="355" y="1346" type="curve" smooth="yes"/>
      <point x="355" y="1159"/>
      <point x="183" y="211"/>
      <point x="183" y="78" type="curve" smooth="yes"/>
      <point x="183" y="0"/>
      <point x="218" y="-41"/>
      <point x="255" y="-41" type="curve" smooth="yes"/>
      <point x="323" y="-41"/>
      <point x="386" y="-10"/>
    </contour>
    <contour>
      <point x="673" y="865" type="curve"/>
      <point x="628" y="885" type="line"/>
      <point x="578" y="811"/>
      <point x="525" y="766"/>
      <point x="478" y="766" type="curve" smooth="yes"/>
      <point x="423" y="766"/>
      <point x="367" y="875"/>
      <point x="279" y="875" type="curve" smooth="yes"/>
      <point x="177" y="875"/>
      <point x="87" y="760"/>
      <point x="32" y="654" type="curve"/>
      <point x="75" y="633" type="line"/>
      <point x="130" y="707"/>
      <point x="177" y="752"/>
      <point x="224" y="752" type="curve" smooth="yes"/>
      <point x="294" y="752"/>
      <point x="343" y="643"/>
      <point x="427" y="643" type="curve" smooth="yes"/>
      <point x="531" y="643"/>
      <point x="617" y="758"/>
    </contour>
  </outline>
</glyph>
<glyph name="LtnSmLezh" format="2">
  <advance width="1186"/>
  <unicode hex="026E"/>
  <anchor x="459" y="-600" name="L"/>
  <anchor x="772" y="1640" name="U"/>
  <outline>
    <contour>
      <point x="597" y="280" type="line"/>
      <point x="569" y="372" type="line"/>
      <point x="370" y="123"/>
      <point x="317" y="93"/>
      <point x="286" y="93" type="curve" smooth="yes"/>
      <point x="265" y="93"/>
      <point x="260" y="100"/>
      <point x="260" y="135" type="curve" smooth="yes"/>
      <point x="260" y="317"/>
      <point x="434" y="1231"/>
      <point x="434" y="1438" type="curve" smooth="yes"/>
      <point x="434" y="1499"/>
      <point x="410" y="1520"/>
      <point x="373" y="1520" type="curve" smooth="yes"/>
      <point x="338" y="1520"/>
      <point x="217" y="1475"/>
      <point x="104" y="1425" type="curve"/>
      <point x="119" y="1386" type="line"/>
      <point x="154" y="1397"/>
      <point x="205" y="1413"/>
      <point x="223" y="1413" type="curve" smooth="yes"/>
      <point x="248" y="1413"/>
      <point x="274" y="1407"/>
      <point x="274" y="1346" type="curve" smooth="yes"/>
      <point x="274" y="1159"/>
      <point x="102" y="211"/>
      <point x="102" y="78" type="curve" smooth="yes"/>
      <point x="102" y="0"/>
      <point x="147" y="-41"/>
      <point x="184" y="-41" type="curve" smooth="yes"/>
      <point x="372" y="-41"/>
      <point x="492" y="200"/>
      <point x="626" y="271" type="curve"/>
    </contour>
    <contour>
      <point x="1114" y="885" type="curve"/>
      <point x="1093" y="915" type="line"/>
      <point x="455" y="915" type="line" smooth="yes"/>
      <point x="408" y="915"/>
      <point x="381" y="926"/>
      <point x="357" y="936" type="curve"/>
      <point x="346" y="879"/>
      <point x="318" y="793"/>
      <point x="293" y="674" type="curve"/>
      <point x="330" y="666" type="line"/>
      <point x="371" y="778"/>
      <point x="389" y="795"/>
      <point x="455" y="795" type="curve" smooth="yes"/>
      <point x="901" y="795" type="line"/>
      <point x="784" y="657"/>
      <point x="660" y="479"/>
      <point x="462" y="240" type="curve"/>
      <point x="629" y="301" type="line"/>
      <point x="781" y="496"/>
      <point x="937" y="690"/>
    </contour>
    <contour>
      <point x="838" y="-501"/>
      <point x="1065" y="-209"/>
      <point x="1065" y="80" type="curve" smooth="yes"/>
      <point x="1065" y="279"/>
      <point x="946" y="387"/>
      <point x="782" y="387" type="curve" smooth="yes"/>
      <point x="700" y="387"/>
      <point x="564" y="323"/>
      <point x="462" y="240" type="curve"/>
      <point x="466" y="229"/>
      <point x="477" y="209"/>
      <point x="489" y="201" type="curve"/>
      <point x="563" y="244"/>
      <point x="629" y="281"/>
      <point x="676" y="281" type="curve" smooth="yes"/>
      <point x="833" y="281"/>
      <point x="921" y="177"/>
      <point x="921" y="22" type="curve" smooth="yes"/>
      <point x="921" y="-117"/>
      <point x="855" y="-388"/>
      <point x="601" y="-388" type="curve" smooth="yes"/>
      <point x="455" y="-388"/>
      <point x="412" y="-263"/>
      <point x="375" y="-263" type="curve" smooth="yes"/>
      <point x="343" y="-263"/>
      <point x="273" y="-370"/>
      <point x="273" y="-384" type="curve" smooth="yes"/>
      <point x="273" y="-413"/>
      <point x="379" y="-501"/>
      <point x="519" y="-501" type="curve" smooth="yes"/>
    </contour>
  </outline>
</glyph>
<glyph name="LtnSmTurnedM" format="2">
  <advance width="1475"/>
  <unicode hex="026F"/>
  <anchor x="657" y="-100" name="L"/>
  <anchor x="1452" y="870" name="R"/>
  <anchor x="808" y="1000" name="U"/>
  <outline>
    <contour>
      <point x="51" y="803" type="line"/>
      <point x="110" y="819"/>
      <point x="139" y="827"/>
      <point x="158" y="827" type="curve" smooth="yes"/>
      <point x="181" y="827"/>
      <point x="195" y="809"/>
      <point x="195" y="760" type="curve" smooth="yes"/>
      <point x="195" y="649"/>
      <point x="110" y="287"/>
      <point x="110" y="135" type="curve" smooth="yes"/>
      <point x="110" y="6"/>
      <point x="171" y="-41"/>
      <point x="249" y="-41" type="curve" smooth="yes"/>
      <point x="349" y="-41"/>
      <point x="440" y="29"/>
      <point x="595" y="207" type="curve"/>
      <point x="593" y="178"/>
      <point x="591" y="160"/>
      <point x="591" y="135" type="curve" smooth="yes"/>
      <point x="591" y="47"/>
      <point x="628" y="-41"/>
      <point x="728" y="-41" type="curve" smooth="yes"/>
      <point x="837" y="-41"/>
      <point x="948" y="36"/>
      <point x="1106" y="227" type="curve"/>
      <point x="1106" y="175"/>
      <point x="1112" y="102"/>
      <point x="1117" y="74" type="curve" smooth="yes"/>
      <point x="1130" y="-2"/>
      <point x="1155" y="-41"/>
      <point x="1196" y="-41" type="curve" smooth="yes"/>
      <point x="1229" y="-41"/>
      <point x="1303" y="-17"/>
      <point x="1428" y="68" type="curve"/>
      <point x="1414" y="104" type="line"/>
      <point x="1359" y="84"/>
      <point x="1321" y="76"/>
      <point x="1299" y="76" type="curve" smooth="yes"/>
      <point x="1277" y="76"/>
      <point x="1248" y="110"/>
      <point x="1248" y="231" type="curve" smooth="yes"/>
      <point x="1248" y="336"/>
      <point x="1294" y="623"/>
      <point x="1351" y="905" type="curve"/>
      <point x="1318" y="936" type="line"/>
      <point x="1285" y="918"/>
      <point x="1210" y="889"/>
      <point x="1175" y="870" type="curve"/>
      <point x="1177" y="807"/>
      <point x="1173" y="721"/>
      <point x="1152" y="600" type="curve" smooth="yes"/>
      <point x="1130" y="471"/>
      <point x="1111" y="379"/>
      <point x="1056" y="293" type="curve" smooth="yes"/>
      <point x="954" y="129"/>
      <point x="847" y="71"/>
      <point x="802" y="71" type="curve" smooth="yes"/>
      <point x="771" y="71"/>
      <point x="743" y="84"/>
      <point x="743" y="195" type="curve" smooth="yes"/>
      <point x="743" y="293"/>
      <point x="798" y="633"/>
      <point x="857" y="905" type="curve"/>
      <point x="825" y="936" type="line"/>
      <point x="790" y="918"/>
      <point x="714" y="889"/>
      <point x="677" y="870" type="curve"/>
      <point x="681" y="805"/>
      <point x="677" y="721"/>
      <point x="659" y="600" type="curve" smooth="yes"/>
      <point x="638" y="473"/>
      <point x="626" y="387"/>
      <point x="567" y="295" type="curve" smooth="yes"/>
      <point x="462" y="131"/>
      <point x="362" y="71"/>
      <point x="302" y="71" type="curve" smooth="yes"/>
      <point x="283" y="71"/>
      <point x="259" y="84"/>
      <point x="259" y="176" type="curve" smooth="yes"/>
      <point x="259" y="299"/>
      <point x="354" y="741"/>
      <point x="354" y="852" type="curve" smooth="yes"/>
      <point x="354" y="924"/>
      <point x="344" y="936"/>
      <point x="305" y="936" type="curve" smooth="yes"/>
      <point x="278" y="936"/>
      <point x="171" y="903"/>
      <point x="39" y="840" type="curve"/>
    </contour>
  </outline>
</glyph>
<glyph name="LtnSmNLftHook" format="2">
  <advance width="1012"/>
  <unicode hex="0272"/>
  <anchor x="519" y="-100" name="L"/>
  <anchor x="568" y="1000" name="U"/>
  <outline>
    <contour>
      <point x="967" y="72" type="curve"/>
      <point x="952" y="109" type="line"/>
      <point x="897" y="86"/>
      <point x="858" y="76"/>
      <point x="827" y="76" type="curve" smooth="yes"/>
      <point x="803" y="76"/>
      <point x="791" y="90"/>
      <point x="791" y="135" type="curve" smooth="yes"/>
      <point x="791" y="246"/>
      <point x="881" y="623"/>
      <point x="881" y="762" type="curve" smooth="yes"/>
      <point x="881" y="891"/>
      <point x="836" y="936"/>
      <point x="752" y="936" type="curve" smooth="yes"/>
      <point x="633" y="936"/>
      <point x="483" y="860"/>
      <point x="338" y="678" type="curve"/>
      <point x="342" y="711"/>
      <point x="348" y="795"/>
      <point x="348" y="823" type="curve" smooth="yes"/>
      <point x="348" y="918"/>
      <point x="346" y="936"/>
      <point x="309" y="936" type="curve" smooth="yes"/>
      <point x="276" y="936"/>
      <point x="154" y="891"/>
      <point x="41" y="842" type="curve"/>
      <point x="55" y="803" type="line"/>
      <point x="55" y="803"/>
      <point x="139" y="829"/>
      <point x="162" y="829" type="curve" smooth="yes"/>
      <point x="186" y="829"/>
      <point x="199" y="823"/>
      <point x="199" y="762" type="curve" smooth="yes"/>
      <point x="199" y="668"/>
      <point x="133" y="154"/>
      <point x="98" y="-28" type="curve" smooth="yes"/>
      <point x="57" y="-235"/>
      <point x="2" y="-383"/>
      <point x="-115" y="-383" type="curve" smooth="yes"/>
      <point x="-232" y="-383"/>
      <point x="-268" y="-301"/>
      <point x="-291" y="-301" type="curve" smooth="yes"/>
      <point x="-318" y="-301"/>
      <point x="-397" y="-389"/>
      <point x="-397" y="-424" type="curve" smooth="yes"/>
      <point x="-397" y="-451"/>
      <point x="-297" y="-500"/>
      <point x="-221" y="-500" type="curve" smooth="yes"/>
      <point x="-176" y="-500"/>
      <point x="-70" y="-484"/>
      <point x="2" y="-424" type="curve" smooth="yes"/>
      <point x="151" y="-301"/>
      <point x="221" y="-174"/>
      <point x="250" y="27" type="curve"/>
      <point x="287" y="306"/>
      <point x="317" y="498"/>
      <point x="365" y="580" type="curve" smooth="yes"/>
      <point x="463" y="750"/>
      <point x="616" y="836"/>
      <point x="651" y="836" type="curve" smooth="yes"/>
      <point x="709" y="836"/>
      <point x="727" y="801"/>
      <point x="727" y="700" type="curve" smooth="yes"/>
      <point x="727" y="610"/>
      <point x="637" y="147"/>
      <point x="637" y="76" type="curve" smooth="yes"/>
      <point x="637" y="4"/>
      <point x="664" y="-41"/>
      <point x="711" y="-41" type="curve" smooth="yes"/>
      <point x="762" y="-41"/>
      <point x="846" y="0"/>
    </contour>
  </outline>
</glyph>
<glyph name="LtnSmNRetrHook" format="2">
  <advance width="1012"/>
  <unicode hex="0273"/>
  <anchor x="309" y="-100" name="L"/>
  <anchor x="575" y="1000" name="U"/>
  <outline>
    <contour>
      <point x="1082" y="-193" type="curve"/>
      <point x="1064" y="-158" type="line"/>
      <point x="1017" y="-174"/>
      <point x="959" y="-201"/>
      <point x="910" y="-228" type="curve"/>
      <point x="953" y="-305"/>
      <point x="906" y="-387"/>
      <point x="840" y="-387" type="curve" smooth="yes"/>
      <point x="783" y="-387"/>
      <point x="760" y="-320"/>
      <point x="760" y="-189" type="curve" smooth="yes"/>
      <point x="760" y="129"/>
      <point x="881" y="611"/>
      <point x="881" y="762" type="curve" smooth="yes"/>
      <point x="881" y="891"/>
      <point x="836" y="936"/>
      <point x="752" y="936" type="curve" smooth="yes"/>
      <point x="633" y="936"/>
      <point x="483" y="860"/>
      <point x="338" y="678" type="curve"/>
      <point x="342" y="711"/>
      <point x="348" y="795"/>
      <point x="348" y="823" type="curve" smooth="yes"/>
      <point x="348" y="918"/>
      <point x="346" y="936"/>
      <point x="309" y="936" type="curve" smooth="yes"/>
      <point x="276" y="936"/>
      <point x="154" y="891"/>
      <point x="41" y="842" type="curve"/>
      <point x="55" y="803" type="line"/>
      <point x="55" y="803"/>
      <point x="139" y="829"/>
      <point x="162" y="829" type="curve" smooth="yes"/>
      <point x="186" y="829"/>
      <point x="199" y="823"/>
      <point x="199" y="762" type="curve" smooth="yes"/>
      <point x="199" y="668"/>
      <point x="141" y="256"/>
      <point x="86" y="-10" type="curve"/>
      <point x="119" y="-41" type="line"/>
      <point x="152" y="-23"/>
      <point x="227" y="6"/>
      <point x="262" y="25" type="curve"/>
      <point x="260" y="104"/>
      <point x="264" y="182"/>
      <point x="285" y="301" type="curve" smooth="yes"/>
      <point x="307" y="430"/>
      <point x="328" y="516"/>
      <point x="365" y="580" type="curve" smooth="yes"/>
      <point x="465" y="750"/>
      <point x="616" y="836"/>
      <point x="651" y="836" type="curve" smooth="yes"/>
      <point x="709" y="836"/>
      <point x="727" y="801"/>
      <point x="727" y="700" type="curve" smooth="yes"/>
      <point x="727" y="584"/>
      <point x="613" y="73"/>
      <point x="613" y="-235" type="curve" smooth="yes"/>
      <point x="613" y="-397"/>
      <point x="646" y="-500"/>
      <point x="732" y="-500" type="curve" smooth="yes"/>
      <point x="883" y="-500"/>
      <point x="1088" y="-328"/>
    </contour>
  </outline>
</glyph>
<glyph name="LtnSmBarredO" format="2">
  <advance width="864"/>
  <unicode hex="0275"/>
  <anchor x="354" y="-100" name="L"/>
  <anchor x="921" y="870" name="R"/>
  <anchor x="505" y="1000" name="U"/>
  <outline>
    <contour>
      <point x="811" y="559" type="curve" smooth="yes"/>
      <point x="811" y="780"/>
      <point x="731" y="936"/>
      <point x="522" y="936" type="curve" smooth="yes"/>
      <point x="440" y="936"/>
      <point x="354" y="893"/>
      <point x="287" y="840" type="curve" smooth="yes"/>
      <point x="111" y="700"/>
      <point x="53" y="535"/>
      <point x="53" y="344" type="curve" smooth="yes"/>
      <point x="53" y="125"/>
      <point x="160" y="-41"/>
      <point x="346" y="-41" type="curve" smooth="yes"/>
      <point x="426" y="-41"/>
      <point x="512" y="6"/>
      <point x="582" y="63" type="curve" smooth="yes"/>
      <point x="731" y="186"/>
      <point x="811" y="381"/>
    </contour>
    <contour>
      <point x="662" y="420" type="line"/>
      <point x="643" y="262"/>
      <point x="569" y="72"/>
      <point x="414" y="72" type="curve" smooth="yes"/>
      <point x="291" y="72"/>
      <point x="192" y="223"/>
      <point x="197" y="420" type="curve"/>
    </contour>
    <contour>
      <point x="668" y="510" type="curve"/>
      <point x="205" y="510" type="line"/>
      <point x="228" y="660"/>
      <point x="299" y="819"/>
      <point x="453" y="819" type="curve" smooth="yes"/>
      <point x="588" y="819"/>
      <point x="666" y="709"/>
    </contour>
  </outline>
</glyph>
<glyph name="LtnSmPhi" format="2">
  <advance width="1065"/>
  <unicode hex="0278"/>
  <anchor x="386" y="-600" name="L"/>
  <anchor x="693" y="1640" name="U"/>
  <outline>
    <contour>
      <point x="1012" y="558" type="curve" smooth="yes"/>
      <point x="1012" y="779"/>
      <point x="913" y="935"/>
      <point x="632" y="935" type="curve" smooth="yes"/>
      <point x="521" y="935"/>
      <point x="391" y="880"/>
      <point x="317" y="828" type="curve" smooth="yes"/>
      <point x="134" y="699"/>
      <point x="53" y="534"/>
      <point x="53" y="344" type="curve" smooth="yes"/>
      <point x="53" y="125"/>
      <point x="181" y="-41"/>
      <point x="437" y="-41" type="curve" smooth="yes"/>
      <point x="559" y="-41"/>
      <point x="669" y="17"/>
      <point x="748" y="73" type="curve" smooth="yes"/>
      <point x="929" y="202"/>
      <point x="1012" y="381"/>
    </contour>
    <contour>
      <point x="874" y="503" type="curve" smooth="yes"/>
      <point x="874" y="340"/>
      <point x="746" y="67"/>
      <point x="503" y="67" type="curve" smooth="yes"/>
      <point x="296" y="67"/>
      <point x="192" y="221"/>
      <point x="192" y="399" type="curve" smooth="yes"/>
      <point x="192" y="568"/>
      <point x="312" y="823"/>
      <point x="566" y="823" type="curve" smooth="yes"/>
      <point x="787" y="823"/>
      <point x="874" y="706"/>
    </contour>
    <contour>
      <point x="739" y="1425" type="curve" smooth="yes"/>
      <point x="739" y="1496"/>
      <point x="721" y="1520"/>
      <point x="684" y="1520" type="curve" smooth="yes"/>
      <point x="651" y="1520"/>
      <point x="528" y="1475"/>
      <point x="416" y="1425" type="curve"/>
      <point x="428" y="1386" type="line"/>
      <point x="464" y="1398"/>
      <point x="518" y="1413"/>
      <point x="535" y="1413" type="curve" smooth="yes"/>
      <point x="559" y="1413"/>
      <point x="585" y="1407"/>
      <point x="585" y="1346" type="curve" smooth="yes"/>
      <point x="585" y="1191"/>
      <point x="537" y="904"/>
      <point x="487" y="597" type="curve" smooth="yes"/>
      <point x="416" y="161"/>
      <point x="334" y="-335"/>
      <point x="316" y="-471" type="curve"/>
      <point x="351" y="-500" type="line"/>
      <point x="384" y="-484"/>
      <point x="464" y="-458"/>
      <point x="500" y="-447" type="curve"/>
      <point x="463" y="-372"/>
      <point x="531" y="64"/>
      <point x="608" y="520" type="curve" smooth="yes"/>
      <point x="713" y="1140"/>
      <point x="739" y="1330"/>
    </contour>
  </outline>
</glyph>
<glyph name="LtnSmSHook" format="2">
  <advance width="701"/>
  <unicode hex="0282"/>
  <anchor x="214" y="-600" name="L"/>
  <anchor x="436" y="1000" name="U"/>
  <outline>
    <contour>
      <point x="698" y="844" type="curve"/>
      <point x="643" y="860"/>
      <point x="598" y="936"/>
      <point x="463" y="936" type="curve" smooth="yes"/>
      <point x="305" y="936"/>
      <point x="123" y="821"/>
      <point x="123" y="653" type="curve" smooth="yes"/>
      <point x="123" y="567"/>
      <point x="170" y="502"/>
      <point x="311" y="436" type="curve" smooth="yes"/>
      <point x="412" y="389"/>
      <point x="504" y="326"/>
      <point x="504" y="223" type="curve" smooth="yes"/>
      <point x="504" y="131"/>
      <point x="426" y="55"/>
      <point x="332" y="55" type="curve" smooth="yes"/>
      <point x="156" y="55"/>
      <point x="125" y="223"/>
      <point x="98" y="223" type="curve" smooth="yes"/>
      <point x="70" y="223"/>
      <point x="29" y="125"/>
      <point x="26" y="98" type="curve" smooth="yes"/>
      <point x="20" y="42"/>
      <point x="127" y="-41"/>
      <point x="252" y="-41" type="curve" smooth="yes"/>
      <point x="426" y="-41"/>
      <point x="635" y="104"/>
      <point x="635" y="289" type="curve" smooth="yes"/>
      <point x="635" y="430"/>
      <point x="516" y="508"/>
      <point x="406" y="559" type="curve" smooth="yes"/>
      <point x="299" y="608"/>
      <point x="258" y="662"/>
      <point x="258" y="709" type="curve" smooth="yes"/>
      <point x="258" y="795"/>
      <point x="336" y="852"/>
      <point x="410" y="852" type="curve" smooth="yes"/>
      <point x="498" y="852"/>
      <point x="537" y="741"/>
      <point x="571" y="741" type="curve" smooth="yes"/>
      <point x="590" y="741"/>
      <point x="645" y="784"/>
    </contour>
    <contour>
      <point x="371" y="-238" type="curve"/>
      <point x="359" y="-200" type="line"/>
      <point x="324" y="-194"/>
      <point x="187" y="-256"/>
      <point x="194" y="-267" type="curve" smooth="yes"/>
      <point x="222" y="-314"/>
      <point x="194" y="-406"/>
      <point x="125" y="-406" type="curve" smooth="yes"/>
      <point x="66" y="-406"/>
      <point x="44" y="-361"/>
      <point x="66" y="-200" type="curve" smooth="yes"/>
      <point x="102" y="63" type="line" smooth="yes"/>
      <point x="109" y="113"/>
      <point x="120" y="146"/>
      <point x="132" y="175" type="curve"/>
      <point x="90" y="115"/>
      <point x="72" y="139"/>
      <point x="26" y="97" type="curve"/>
      <point x="-20" y="-250" type="line" smooth="yes"/>
      <point x="-43" y="-423"/>
      <point x="9" y="-500"/>
      <point x="119" y="-500" type="curve" smooth="yes"/>
      <point x="266" y="-500"/>
      <point x="364" y="-338"/>
    </contour>
  </outline>
</glyph>
<glyph name="LtnSmSquatRevEsh" format="2">
  <advance width="684"/>
  <unicode hex="0285"/>
  <anchor x="286" y="-600" name="L"/>
  <anchor x="440" y="1000" name="U"/>
  <outline>
    <contour>
      <point x="442" y="-500" type="curve" smooth="yes"/>
      <point x="589" y="-500"/>
      <point x="784" y="-327"/>
      <point x="784" y="-193" type="curve"/>
      <point x="766" y="-158" type="line"/>
      <point x="748" y="-162"/>
      <point x="652" y="-204"/>
      <point x="612" y="-228" type="curve"/>
      <point x="652" y="-287"/>
      <point x="614" y="-387"/>
      <point x="542" y="-387" type="curve" smooth="yes"/>
      <point x="465" y="-387"/>
      <point x="461" y="-272"/>
      <point x="462" y="-201" type="curve" smooth="yes"/>
      <point x="465" y="24"/>
      <point x="581" y="430"/>
      <point x="605" y="682" type="curve" smooth="yes"/>
      <point x="626" y="907"/>
      <point x="512" y="931"/>
      <point x="429" y="931" type="curve" smooth="yes"/>
      <point x="366" y="931"/>
      <point x="209" y="876"/>
      <point x="121" y="777" type="curve"/>
      <point x="97" y="762"/>
      <point x="114" y="654"/>
      <point x="133" y="584" type="curve"/>
      <point x="172" y="584" type="line"/>
      <point x="196" y="677"/>
      <point x="250" y="812"/>
      <point x="348" y="812" type="curve" smooth="yes"/>
      <point x="429" y="812"/>
      <point x="475" y="765"/>
      <point x="459" y="619" type="curve" smooth="yes"/>
      <point x="439" y="432"/>
      <point x="321" y="7"/>
      <point x="316" y="-227" type="curve" smooth="yes"/>
      <point x="314" y="-318"/>
      <point x="319" y="-500"/>
    </contour>
  </outline>
</glyph>
<glyph name="LtnSmUpsilon" format="2">
  <advance width="887"/>
  <unicode hex="028A"/>
  <anchor x="370" y="0" name="H"/>
  <anchor x="362" y="-100" name="L"/>
  <anchor x="460" y="0" name="O"/>
  <anchor x="877" y="870" name="R"/>
  <anchor x="513" y="1000" name="U"/>
  <outline>
    <contour>
      <point x="877" y="905" type="line"/>
      <point x="569" y="905" type="line"/>
      <point x="539" y="815" type="line"/>
      <point x="618" y="758"/>
      <point x="666" y="641"/>
      <point x="666" y="498" type="curve" smooth="yes"/>
      <point x="666" y="340"/>
      <point x="610" y="74"/>
      <point x="412" y="74" type="curve" smooth="yes"/>
      <point x="289" y="74"/>
      <point x="195" y="205"/>
      <point x="195" y="356" type="curve" smooth="yes"/>
      <point x="195" y="543"/>
      <point x="285" y="702"/>
      <point x="432" y="815" type="curve"/>
      <point x="428" y="905" type="line"/>
      <point x="123" y="905" type="line"/>
      <point x="117" y="864" type="line"/>
      <point x="117" y="864"/>
      <point x="311" y="813"/>
      <point x="264" y="770" type="curve" smooth="yes"/>
      <point x="121" y="645"/>
      <point x="49" y="485"/>
      <point x="49" y="299" type="curve" smooth="yes"/>
      <point x="49" y="111"/>
      <point x="152" y="-41"/>
      <point x="362" y="-41" type="curve" smooth="yes"/>
      <point x="612" y="-41"/>
      <point x="801" y="258"/>
      <point x="801" y="487" type="curve" smooth="yes"/>
      <point x="801" y="594"/>
      <point x="768" y="688"/>
      <point x="696" y="770" type="curve" smooth="yes"/>
      <point x="659" y="811"/>
      <point x="870" y="864"/>
      <point x="870" y="864" type="curve"/>
    </contour>
  </outline>
</glyph>
<glyph name="LtnSmTurnedV" format="2">
  <advance width="918"/>
  <unicode hex="028C"/>
  <anchor x="665" y="0" name="H"/>
  <anchor x="385" y="-100" name="L"/>
  <anchor x="710" y="0" name="O"/>
  <anchor x="756" y="870" name="R"/>
  <anchor x="535" y="1000" name="U"/>
  <outline>
    <contour>
      <point x="20" y="43" type="curve"/>
      <point x="20" y="-20"/>
      <point x="47" y="-41"/>
      <point x="94" y="-41" type="curve" smooth="yes"/>
      <point x="139" y="-41"/>
      <point x="243" y="5"/>
      <point x="326" y="55" type="curve"/>
      <point x="308" y="90" type="line"/>
      <point x="279" y="79"/>
      <point x="249" y="70"/>
      <point x="227" y="70" type="curve" smooth="yes"/>
      <point x="190" y="70"/>
      <point x="159" y="72"/>
      <point x="159" y="98" type="curve" smooth="yes"/>
      <point x="159" y="166"/>
      <point x="260" y="424"/>
      <point x="458" y="745" type="curve"/>
      <point x="458" y="694"/>
      <point x="544" y="188"/>
      <point x="573" y="86" type="curve" smooth="yes"/>
      <point x="600" y="-8"/>
      <point x="613" y="-41"/>
      <point x="655" y="-41" type="curve" smooth="yes"/>
      <point x="698" y="-41"/>
      <point x="761" y="-19"/>
      <point x="891" y="68" type="curve"/>
      <point x="877" y="104" type="line"/>
      <point x="831" y="85"/>
      <point x="795" y="76"/>
      <point x="767" y="76" type="curve" smooth="yes"/>
      <point x="744" y="76"/>
      <point x="733" y="84"/>
      <point x="714" y="150" type="curve" smooth="yes"/>
      <point x="680" y="272"/>
      <point x="610" y="680"/>
      <point x="583" y="905" type="curve"/>
      <point x="551" y="936" type="line"/>
      <point x="524" y="924"/>
      <point x="479" y="905"/>
      <point x="456" y="893" type="curve"/>
      <point x="129" y="367"/>
      <point x="20" y="129"/>
    </contour>
  </outline>
</glyph>
<glyph name="LtnSmTurnedW" format="2">
  <advance width="1306"/>
  <unicode hex="028D"/>
  <anchor x="560" y="-100" name="L"/>
  <anchor x="711" y="1000" name="U"/>
  <outline>
    <contour>
      <point x="20" y="35" type="curve"/>
      <point x="20" y="-31"/>
      <point x="59" y="-41"/>
      <point x="94" y="-41" type="curve" smooth="yes"/>
      <point x="132" y="-41"/>
      <point x="208" y="-5"/>
      <point x="300" y="49" type="curve"/>
      <point x="282" y="86" type="line"/>
      <point x="253" y="73"/>
      <point x="210" y="61"/>
      <point x="191" y="61" type="curve" smooth="yes"/>
      <point x="161" y="61"/>
      <point x="141" y="68"/>
      <point x="141" y="96" type="curve" smooth="yes"/>
      <point x="141" y="197"/>
      <point x="182" y="378"/>
      <point x="383" y="747" type="curve"/>
      <point x="397" y="607"/>
      <point x="430" y="419"/>
      <point x="450" y="294" type="curve" smooth="yes"/>
      <point x="471" y="173"/>
      <point x="512" y="-41"/>
      <point x="528" y="-41" type="curve" smooth="yes"/>
      <point x="557" y="-41"/>
      <point x="616" y="-4"/>
      <point x="655" y="31" type="curve"/>
      <point x="667" y="217"/>
      <point x="794" y="521"/>
      <point x="901" y="728" type="curve"/>
      <point x="907" y="628"/>
      <point x="956" y="206"/>
      <point x="981" y="95" type="curve" smooth="yes"/>
      <point x="1003" y="-1"/>
      <point x="1022" y="-41"/>
      <point x="1059" y="-41" type="curve" smooth="yes"/>
      <point x="1103" y="-41"/>
      <point x="1160" y="-16"/>
      <point x="1287" y="68" type="curve"/>
      <point x="1273" y="104" type="line"/>
      <point x="1223" y="82"/>
      <point x="1186" y="76"/>
      <point x="1163" y="76" type="curve" smooth="yes"/>
      <point x="1139" y="76"/>
      <point x="1125" y="82"/>
      <point x="1110" y="149" type="curve"/>
      <point x="1075" y="284"/>
      <point x="1044" y="679"/>
      <point x="1015" y="904" type="curve"/>
      <point x="983" y="935" type="line"/>
      <point x="956" y="923"/>
      <point x="907" y="896"/>
      <point x="884" y="884" type="curve"/>
      <point x="749" y="656"/>
      <point x="606" y="288"/>
      <point x="602" y="204" type="curve"/>
      <point x="567" y="327"/>
      <point x="520" y="679"/>
      <point x="491" y="904" type="curve"/>
      <point x="458" y="935" type="line"/>
      <point x="432" y="923"/>
      <point x="389" y="904"/>
      <point x="366" y="892" type="curve"/>
      <point x="71" y="356"/>
      <point x="20" y="121"/>
    </contour>
  </outline>
</glyph>
<glyph name="LtnSmTurnedY" format="2">
  <advance width="948"/>
  <unicode hex="028E"/>
  <anchor x="448" y="-100" name="L"/>
  <anchor x="686" y="1580" name="U"/>
  <outline>
    <contour>
      <point x="401" y="848" type="line"/>
      <point x="448" y="580"/>
      <point x="536" y="254"/>
      <point x="596" y="86" type="curve" smooth="yes"/>
      <point x="628" y="-6"/>
      <point x="645" y="-41"/>
      <point x="692" y="-41" type="curve" smooth="yes"/>
      <point x="724" y="-41"/>
      <point x="803" y="-13"/>
      <point x="921" y="68" type="curve"/>
      <point x="907" y="104" type="line"/>
      <point x="869" y="87"/>
      <point x="821" y="76"/>
      <point x="797" y="76" type="curve" smooth="yes"/>
      <point x="774" y="76"/>
      <point x="768" y="82"/>
      <point x="737" y="150" type="curve" smooth="yes"/>
      <point x="677" y="277"/>
      <point x="573" y="721"/>
      <point x="534" y="952" type="curve"/>
      <point x="501" y="981" type="line"/>
    </contour>
    <contour>
      <point x="20" y="35" type="curve"/>
      <point x="20" y="-31"/>
      <point x="57" y="-41"/>
      <point x="102" y="-41" type="curve" smooth="yes"/>
      <point x="137" y="-41"/>
      <point x="230" y="-1"/>
      <point x="326" y="54" type="curve"/>
      <point x="308" y="91" type="line"/>
      <point x="269" y="74"/>
      <point x="230" y="68"/>
      <point x="207" y="68" type="curve" smooth="yes"/>
      <point x="187" y="68"/>
      <point x="155" y="72"/>
      <point x="155" y="104" type="curve" smooth="yes"/>
      <point x="155" y="184"/>
      <point x="333" y="559"/>
      <point x="471" y="821" type="curve" smooth="yes"/>
      <point x="610" y="1083"/>
      <point x="728" y="1239"/>
      <point x="857" y="1239" type="curve" smooth="yes"/>
      <point x="906" y="1239"/>
      <point x="936" y="1239"/>
      <point x="1000" y="1196" type="curve"/>
      <point x="1037" y="1215"/>
      <point x="1094" y="1313"/>
      <point x="1094" y="1344" type="curve" smooth="yes"/>
      <point x="1094" y="1366"/>
      <point x="1029" y="1395"/>
      <point x="949" y="1395" type="curve" smooth="yes"/>
      <point x="721" y="1395"/>
      <point x="550" y="1161"/>
      <point x="372" y="813" type="curve" smooth="yes"/>
      <point x="112" y="301"/>
      <point x="20" y="125"/>
    </contour>
  </outline>
</glyph>
<glyph name="LtnSmEzhCurl" format="2">
  <advance width="816"/>
  <unicode hex="0293"/>
  <anchor x="248" y="-600" name="L"/>
  <anchor x="468" y="1000" name="U"/>
  <outline>
    <contour>
      <point x="701" y="-33" type="curve" smooth="yes"/>
      <point x="708" y="8"/>
      <point x="711" y="46"/>
      <point x="711" y="81" type="curve" smooth="yes"/>
      <point x="711" y="280"/>
      <point x="595" y="387"/>
      <point x="432" y="387" type="curve" smooth="yes"/>
      <point x="348" y="387"/>
      <point x="227" y="327"/>
      <point x="113" y="242" type="curve"/>
      <point x="116" y="234"/>
      <point x="129" y="207"/>
      <point x="139" y="201" type="curve"/>
      <point x="224" y="259"/>
      <point x="296" y="281"/>
      <point x="344" y="281" type="curve" smooth="yes"/>
      <point x="498" y="281"/>
      <point x="572" y="150"/>
      <point x="572" y="16" type="curve" smooth="yes"/>
      <point x="572" y="-16"/>
      <point x="568" y="-50"/>
      <point x="561" y="-83" type="curve" smooth="yes"/>
      <point x="518" y="-280"/>
      <point x="418" y="-396"/>
      <point x="277" y="-396" type="curve" smooth="yes"/>
      <point x="148" y="-396"/>
      <point x="70" y="-310"/>
      <point x="70" y="-224" type="curve" smooth="yes"/>
      <point x="70" y="-145"/>
      <point x="136" y="-85"/>
      <point x="211" y="-85" type="curve" smooth="yes"/>
      <point x="436" y="-85"/>
      <point x="478" y="-401"/>
      <point x="752" y="-494" type="curve"/>
      <point x="795" y="-441" type="line"/>
      <point x="529" y="-323"/>
      <point x="500" y="0"/>
      <point x="221" y="0" type="curve" smooth="yes"/>
      <point x="75" y="0"/>
      <point x="-50" y="-117"/>
      <point x="-50" y="-261" type="curve" smooth="yes"/>
      <point x="-50" y="-408"/>
      <point x="76" y="-500"/>
      <point x="229" y="-500" type="curve" smooth="yes"/>
      <point x="428" y="-500"/>
      <point x="655" y="-309"/>
    </contour>
    <contour>
      <point x="764" y="885" type="curve"/>
      <point x="743" y="915" type="line"/>
      <point x="256" y="915" type="line" smooth="yes"/>
      <point x="215" y="915"/>
      <point x="179" y="928"/>
      <point x="158" y="936" type="curve"/>
      <point x="147" y="879"/>
      <point x="119" y="793"/>
      <point x="94" y="674" type="curve"/>
      <point x="131" y="666" type="line"/>
      <point x="172" y="778"/>
      <point x="190" y="795"/>
      <point x="256" y="795" type="curve" smooth="yes"/>
      <point x="551" y="795" type="line"/>
      <point x="434" y="657"/>
      <point x="311" y="481"/>
      <point x="113" y="242" type="curve"/>
      <point x="279" y="301" type="line"/>
      <point x="393" y="451"/>
      <point x="603" y="713"/>
    </contour>
  </outline>
</glyph>
<glyph name="LtnInvGlottalStop" format="2">
  <advance width="789"/>
  <unicode hex="0296"/>
  <anchor x="329" y="-100" name="L"/>
  <anchor x="568" y="1640" name="U"/>
  <outline>
    <contour>
      <point x="314" y="1490" type="line"/>
      <point x="309" y="1448" type="line"/>
      <point x="409" y="1428"/>
      <point x="454" y="1409"/>
      <point x="451" y="1388" type="curve" smooth="yes"/>
      <point x="395" y="975"/>
      <point x="394" y="954"/>
      <point x="394" y="934" type="curve" smooth="yes"/>
      <point x="394" y="688"/>
      <point x="597" y="550"/>
      <point x="597" y="361" type="curve" smooth="yes"/>
      <point x="597" y="238"/>
      <point x="518" y="54"/>
      <point x="377" y="54" type="curve" smooth="yes"/>
      <point x="248" y="54"/>
      <point x="184" y="146"/>
      <point x="184" y="285" type="curve" smooth="yes"/>
      <point x="184" y="302"/>
      <point x="185" y="319"/>
      <point x="187" y="337" type="curve"/>
      <point x="182" y="338"/>
      <point x="177" y="338"/>
      <point x="171" y="338" type="curve" smooth="yes"/>
      <point x="114" y="338"/>
      <point x="32" y="314"/>
      <point x="32" y="274" type="curve" smooth="yes"/>
      <point x="32" y="149"/>
      <point x="64" y="-41"/>
      <point x="317" y="-41" type="curve" smooth="yes"/>
      <point x="542" y="-41"/>
      <point x="744" y="165"/>
      <point x="744" y="399" type="curve" smooth="yes"/>
      <point x="744" y="623"/>
      <point x="543" y="757"/>
      <point x="543" y="980" type="curve" smooth="yes"/>
      <point x="543" y="996"/>
      <point x="544" y="1013"/>
      <point x="594" y="1388" type="curve" smooth="yes"/>
      <point x="597" y="1407"/>
      <point x="654" y="1430"/>
      <point x="754" y="1448" type="curve"/>
      <point x="759" y="1490" type="line"/>
    </contour>
  </outline>
</glyph>
<glyph name="LtnSmCapB" format="2">
  <advance width="915"/>
  <unicode hex="0299"/>
  <anchor x="366" y="-100" name="L"/>
  <anchor x="517" y="1000" name="U"/>
  <outline>
    <contour>
      <point x="646" y="-10"/>
      <point x="801" y="91"/>
      <point x="801" y="276" type="curve" smooth="yes"/>
      <point x="801" y="402"/>
      <point x="724" y="497"/>
      <point x="607" y="520" type="curve"/>
      <point x="713" y="566"/>
      <point x="783" y="625"/>
      <point x="783" y="739" type="curve" smooth="yes"/>
      <point x="783" y="851"/>
      <point x="674" y="936"/>
      <point x="472" y="936" type="curve" smooth="yes"/>
      <point x="352" y="936"/>
      <point x="208" y="913"/>
      <point x="118" y="891" type="curve"/>
      <point x="118" y="836" type="line"/>
      <point x="214" y="849"/>
      <point x="328" y="854"/>
      <point x="415" y="854" type="curve" smooth="yes"/>
      <point x="598" y="854"/>
      <point x="639" y="791"/>
      <point x="639" y="719" type="curve" smooth="yes"/>
      <point x="639" y="587"/>
      <point x="540" y="536"/>
      <point x="368" y="536" type="curve" smooth="yes"/>
      <point x="305" y="536" type="line"/>
      <point x="301" y="444" type="line"/>
      <point x="345" y="452"/>
      <point x="397" y="461"/>
      <point x="450" y="461" type="curve" smooth="yes"/>
      <point x="607" y="461"/>
      <point x="651" y="366"/>
      <point x="651" y="265" type="curve" smooth="yes"/>
      <point x="651" y="134"/>
      <point x="546" y="71"/>
      <point x="409" y="71" type="curve" smooth="yes"/>
      <point x="342" y="71"/>
      <point x="305" y="82"/>
      <point x="271" y="98" type="curve"/>
      <point x="64" y="0" type="line"/>
      <point x="174" y="-4"/>
      <point x="346" y="-10"/>
      <point x="417" y="-10" type="curve" smooth="yes"/>
    </contour>
    <contour>
      <point x="370" y="0" type="line"/>
      <point x="374" y="32" type="line"/>
      <point x="296" y="44"/>
      <point x="278" y="89"/>
      <point x="280" y="101" type="curve" smooth="yes"/>
      <point x="389" y="892" type="line"/>
      <point x="245" y="876" type="line"/>
      <point x="137" y="101" type="line" smooth="yes"/>
      <point x="135" y="89"/>
      <point x="83" y="59"/>
      <point x="5" y="42" type="curve"/>
      <point x="0" y="0" type="line"/>
    </contour>
  </outline>
</glyph>
<glyph name="LtnSmQHook" format="2">
  <advance width="918"/>
  <unicode hex="02A0"/>
  <anchor x="265" y="-100" name="L"/>
  <anchor x="525" y="1130" name="U"/>
  <outline>
    <contour>
      <point x="523" y="-500" type="line"/>
      <point x="556" y="-484"/>
      <point x="640" y="-459"/>
      <point x="676" y="-447" type="curve"/>
      <point x="631" y="-342"/>
      <point x="796" y="606"/>
      <point x="860" y="946" type="curve" smooth="yes"/>
      <point x="880" y="1052"/>
      <point x="919" y="1230"/>
      <point x="988" y="1230" type="curve" smooth="yes"/>
      <point x="1062" y="1230"/>
      <point x="1085" y="1118"/>
      <point x="1120" y="1118" type="curve" smooth="yes"/>
      <point x="1152" y="1118"/>
      <point x="1227" y="1175"/>
      <point x="1284" y="1216" type="curve"/>
      <point x="1243" y="1230"/>
      <point x="1183" y="1333"/>
      <point x="1066" y="1333" type="curve" smooth="yes"/>
      <point x="997" y="1333"/>
      <point x="936" y="1295"/>
      <point x="871" y="1241" type="curve" smooth="yes"/>
      <point x="765" y="1153"/>
      <point x="732" y="985"/>
      <point x="702" y="819" type="curve" smooth="yes"/>
      <point x="628" y="411"/>
      <point x="530" y="-191"/>
      <point x="488" y="-471" type="curve"/>
    </contour>
    <contour>
      <point x="276" y="-41" type="curve" smooth="yes"/>
      <point x="383" y="-41"/>
      <point x="512" y="107"/>
      <point x="606" y="263" type="curve"/>
      <point x="639" y="449" type="line"/>
      <point x="547" y="281"/>
      <point x="420" y="96"/>
      <point x="348" y="96" type="curve" smooth="yes"/>
      <point x="270" y="96"/>
      <point x="182" y="207"/>
      <point x="182" y="379" type="curve" smooth="yes"/>
      <point x="182" y="537"/>
      <point x="330" y="831"/>
      <point x="512" y="831" type="curve" smooth="yes"/>
      <point x="633" y="831"/>
      <point x="713" y="721"/>
      <point x="748" y="721" type="curve" smooth="yes"/>
      <point x="780" y="721"/>
      <point x="772" y="809"/>
      <point x="829" y="848" type="curve"/>
      <point x="784" y="854"/>
      <point x="702" y="936"/>
      <point x="612" y="936" type="curve" smooth="yes"/>
      <point x="528" y="936"/>
      <point x="428" y="891"/>
      <point x="354" y="842" type="curve" smooth="yes"/>
      <point x="166" y="719"/>
      <point x="53" y="516"/>
      <point x="53" y="305" type="curve" smooth="yes"/>
      <point x="53" y="55"/>
      <point x="188" y="-41"/>
    </contour>
  </outline>
</glyph>
<glyph name="LtnSmLZDigraph" format="2">
  <advance width="1057"/>
  <unicode hex="02AB"/>
  <anchor x="476" y="-100" name="L"/>
  <anchor x="684" y="1640" name="U"/>
  <outline>
    <contour>
      <point x="436" y="78" type="curve"/>
      <point x="409" y="172" type="line"/>
      <point x="349" y="91"/>
      <point x="326" y="76"/>
      <point x="295" y="76" type="curve" smooth="yes"/>
      <point x="274" y="76"/>
      <point x="260" y="90"/>
      <point x="260" y="135" type="curve" smooth="yes"/>
      <point x="260" y="317"/>
      <point x="434" y="1231"/>
      <point x="434" y="1438" type="curve" smooth="yes"/>
      <point x="434" y="1499"/>
      <point x="410" y="1520"/>
      <point x="373" y="1520" type="curve" smooth="yes"/>
      <point x="338" y="1520"/>
      <point x="217" y="1475"/>
      <point x="104" y="1425" type="curve"/>
      <point x="119" y="1386" type="line"/>
      <point x="119" y="1386"/>
      <point x="201" y="1413"/>
      <point x="223" y="1413" type="curve" smooth="yes"/>
      <point x="248" y="1413"/>
      <point x="274" y="1407"/>
      <point x="274" y="1346" type="curve" smooth="yes"/>
      <point x="274" y="1159"/>
      <point x="102" y="211"/>
      <point x="102" y="78" type="curve" smooth="yes"/>
      <point x="102" y="0"/>
      <point x="137" y="-41"/>
      <point x="174" y="-41" type="curve" smooth="yes"/>
      <point x="242" y="-41"/>
      <point x="305" y="-4"/>
    </contour>
    <contour>
      <point x="1057" y="885" type="curve"/>
      <point x="1037" y="915" type="line"/>
      <point x="452" y="915" type="line" smooth="yes"/>
      <point x="405" y="915"/>
      <point x="379" y="930"/>
      <point x="354" y="936" type="curve"/>
      <point x="344" y="879"/>
      <point x="315" y="793"/>
      <point x="290" y="674" type="curve"/>
      <point x="329" y="666" type="line"/>
      <point x="368" y="778"/>
      <point x="389" y="795"/>
      <point x="452" y="795" type="curve" smooth="yes"/>
      <point x="850" y="795" type="line"/>
      <point x="734" y="657"/>
      <point x="476" y="242"/>
      <point x="277" y="2" type="curve"/>
      <point x="295" y="-5" type="line"/>
      <point x="396" y="46"/>
      <point x="443" y="47"/>
      <point x="486" y="47" type="curve" smooth="yes"/>
      <point x="570" y="47"/>
      <point x="672" y="-20"/>
      <point x="803" y="-20" type="curve" smooth="yes"/>
      <point x="934" y="-20"/>
      <point x="961" y="27"/>
      <point x="1035" y="193" type="curve"/>
      <point x="1000" y="213" type="line"/>
      <point x="947" y="111"/>
      <point x="904" y="104"/>
      <point x="879" y="104" type="curve" smooth="yes"/>
      <point x="781" y="104"/>
      <point x="646" y="166"/>
      <point x="592" y="166" type="curve" smooth="yes"/>
      <point x="549" y="166"/>
      <point x="510" y="150"/>
      <point x="510" y="150" type="curve"/>
      <point x="721" y="420"/>
      <point x="838" y="649"/>
    </contour>
  </outline>
</glyph>
<glyph name="ModSmHHook" format="2">
  <advance width="708"/>
  <unicode hex="02B1"/>
  <anchor x="362" y="540" name="L"/>
  <anchor x="506" y="1580" name="U"/>
  <outline>
    <contour>
      <point x="111" y="583" type="line"/>
      <point x="134" y="594"/>
      <point x="207" y="622"/>
      <point x="231" y="633" type="curve"/>
      <point x="229" y="667"/>
      <point x="231" y="700"/>
      <point x="247" y="789" type="curve" smooth="yes"/>
      <point x="260" y="860"/>
      <point x="276" y="919"/>
      <point x="301" y="957" type="curve"/>
      <point x="372" y="1059"/>
      <point x="462" y="1098"/>
      <point x="485" y="1098" type="curve" smooth="yes"/>
      <point x="526" y="1098"/>
      <point x="534" y="1069"/>
      <point x="534" y="1018" type="curve" smooth="yes"/>
      <point x="534" y="964"/>
      <point x="475" y="696"/>
      <point x="475" y="654" type="curve" smooth="yes"/>
      <point x="475" y="610"/>
      <point x="500" y="583"/>
      <point x="527" y="583" type="curve" smooth="yes"/>
      <point x="566" y="583"/>
      <point x="630" y="608"/>
      <point x="716" y="651" type="curve"/>
      <point x="706" y="683" type="line"/>
      <point x="671" y="671"/>
      <point x="654" y="664"/>
      <point x="628" y="664" type="curve" smooth="yes"/>
      <point x="617" y="664"/>
      <point x="603" y="672"/>
      <point x="603" y="699" type="curve" smooth="yes"/>
      <point x="603" y="766"/>
      <point x="663" y="981"/>
      <point x="663" y="1064" type="curve" smooth="yes"/>
      <point x="663" y="1141"/>
      <point x="640" y="1170"/>
      <point x="571" y="1170" type="curve" smooth="yes"/>
      <point x="488" y="1170"/>
      <point x="395" y="1142"/>
      <point x="286" y="1027" type="curve"/>
      <point x="316" y="1179" type="line" smooth="yes"/>
      <point x="352" y="1375"/>
      <point x="402" y="1448"/>
      <point x="484" y="1448" type="curve" smooth="yes"/>
      <point x="535" y="1448"/>
      <point x="564" y="1381"/>
      <point x="588" y="1381" type="curve" smooth="yes"/>
      <point x="613" y="1381"/>
      <point x="666" y="1425"/>
      <point x="706" y="1450" type="curve"/>
      <point x="677" y="1458"/>
      <point x="620" y="1520"/>
      <point x="538" y="1520" type="curve" smooth="yes"/>
      <point x="480" y="1520"/>
      <point x="416" y="1495"/>
      <point x="367" y="1464" type="curve" smooth="yes"/>
      <point x="248" y="1388"/>
      <point x="211" y="1278"/>
      <point x="188" y="1147" type="curve" smooth="yes"/>
      <point x="169" y="1036"/>
      <point x="121" y="768"/>
      <point x="88" y="602" type="curve"/>
    </contour>
  </outline>
</glyph>
<glyph name="ModSmJ" format="2">
  <advance width="395"/>
  <unicode hex="02B2"/>
  <anchor x="122" y="258" name="L"/>
  <anchor x="317" y="1216" name="U"/>
  <outline>
    <contour>
      <point x="-57" y="308" type="curve" smooth="yes"/>
      <point x="-19" y="308"/>
      <point x="59" y="319"/>
      <point x="110" y="354" type="curve" smooth="yes"/>
      <point x="186" y="405"/>
      <point x="261" y="460"/>
      <point x="299" y="648" type="curve" smooth="yes"/>
      <point x="317" y="747"/>
      <point x="327" y="837"/>
      <point x="334" y="892" type="curve" smooth="yes"/>
      <point x="339" y="943"/>
      <point x="361" y="1104"/>
      <point x="361" y="1130" type="curve" smooth="yes"/>
      <point x="361" y="1164"/>
      <point x="348" y="1170"/>
      <point x="322" y="1170" type="curve" smooth="yes"/>
      <point x="300" y="1170"/>
      <point x="207" y="1143"/>
      <point x="127" y="1112" type="curve"/>
      <point x="138" y="1080" type="line"/>
      <point x="138" y="1080"/>
      <point x="182" y="1094"/>
      <point x="198" y="1094" type="curve" smooth="yes"/>
      <point x="214" y="1094"/>
      <point x="227" y="1091"/>
      <point x="227" y="1054" type="curve" smooth="yes"/>
      <point x="227" y="1028"/>
      <point x="214" y="918"/>
      <point x="209" y="879" type="curve" smooth="yes"/>
      <point x="204" y="833"/>
      <point x="193" y="733"/>
      <point x="169" y="615" type="curve" smooth="yes"/>
      <point x="138" y="465"/>
      <point x="89" y="388"/>
      <point x="20" y="388" type="curve" smooth="yes"/>
      <point x="-62" y="388"/>
      <point x="-88" y="437"/>
      <point x="-103" y="437" type="curve" smooth="yes"/>
      <point x="-122" y="437"/>
      <point x="-180" y="375"/>
      <point x="-180" y="354" type="curve" smooth="yes"/>
      <point x="-180" y="337"/>
      <point x="-108" y="308"/>
    </contour>
    <contour>
      <point x="317" y="1252" type="curve" smooth="yes"/>
      <point x="374" y="1252"/>
      <point x="414" y="1306"/>
      <point x="414" y="1355" type="curve" smooth="yes"/>
      <point x="414" y="1387"/>
      <point x="392" y="1408"/>
      <point x="358" y="1408" type="curve" smooth="yes"/>
      <point x="300" y="1408"/>
      <point x="262" y="1351"/>
      <point x="262" y="1304" type="curve" smooth="yes"/>
      <point x="262" y="1272"/>
      <point x="283" y="1252"/>
    </contour>
  </outline>
</glyph>
<glyph name="ModSmTrndR" format="2">
  <advance width="528"/>
  <unicode hex="02B4"/>
  <anchor x="286" y="540" name="L"/>
  <anchor x="382" y="1216" name="U"/>
  <outline>
    <contour>
      <point x="374" y="583" type="curve" smooth="yes"/>
      <point x="419" y="583"/>
      <point x="472" y="606"/>
      <point x="547" y="649" type="curve"/>
      <point x="537" y="680" type="line"/>
      <point x="503" y="668"/>
      <point x="491" y="664"/>
      <point x="467" y="664" type="curve" smooth="yes"/>
      <point x="446" y="664"/>
      <point x="431" y="698"/>
      <point x="431" y="760" type="curve" smooth="yes"/>
      <point x="431" y="839"/>
      <point x="488" y="1049"/>
      <point x="488" y="1119" type="curve" smooth="yes"/>
      <point x="488" y="1156"/>
      <point x="482" y="1170"/>
      <point x="456" y="1170" type="curve" smooth="yes"/>
      <point x="422" y="1170"/>
      <point x="331" y="1143"/>
      <point x="251" y="1112" type="curve"/>
      <point x="262" y="1080" type="line"/>
      <point x="262" y="1080"/>
      <point x="309" y="1094"/>
      <point x="325" y="1094" type="curve" smooth="yes"/>
      <point x="341" y="1094"/>
      <point x="358" y="1091"/>
      <point x="358" y="1054" type="curve" smooth="yes"/>
      <point x="358" y="995"/>
      <point x="311" y="838"/>
      <point x="311" y="754" type="curve" smooth="yes"/>
      <point x="311" y="616"/>
      <point x="343" y="583"/>
    </contour>
    <contour>
      <point x="110" y="583" type="curve" smooth="yes"/>
      <point x="170" y="583"/>
      <point x="234" y="606"/>
      <point x="324" y="764" type="curve"/>
      <point x="330" y="807"/>
      <point x="359" y="858"/>
      <point x="335" y="915" type="curve"/>
      <point x="295" y="800"/>
      <point x="222" y="685"/>
      <point x="159" y="685" type="curve" smooth="yes"/>
      <point x="118" y="685"/>
      <point x="98" y="708"/>
      <point x="84" y="708" type="curve" smooth="yes"/>
      <point x="70" y="708"/>
      <point x="10" y="627"/>
      <point x="10" y="617" type="curve" smooth="yes"/>
      <point x="10" y="609"/>
      <point x="70" y="583"/>
    </contour>
  </outline>
</glyph>
<glyph name="ModSmTrndRHook" format="2">
  <advance width="527"/>
  <unicode hex="02B5"/>
  <anchor x="264" y="258" name="L"/>
  <anchor x="408" y="1216" name="U"/>
  <outline>
    <contour>
      <point x="401" y="308" type="curve" smooth="yes"/>
      <point x="507" y="308"/>
      <point x="650" y="414"/>
      <point x="646" y="495" type="curve"/>
      <point x="633" y="519" type="line"/>
      <point x="600" y="510"/>
      <point x="550" y="490"/>
      <point x="516" y="474" type="curve"/>
      <point x="546" y="428"/>
      <point x="522" y="386"/>
      <point x="477" y="386" type="curve" smooth="yes"/>
      <point x="438" y="386"/>
      <point x="402" y="423"/>
      <point x="402" y="497" type="curve" smooth="yes"/>
      <point x="402" y="770"/>
      <point x="488" y="1043"/>
      <point x="488" y="1119" type="curve" smooth="yes"/>
      <point x="488" y="1156"/>
      <point x="482" y="1170"/>
      <point x="456" y="1170" type="curve" smooth="yes"/>
      <point x="422" y="1170"/>
      <point x="331" y="1143"/>
      <point x="251" y="1112" type="curve"/>
      <point x="262" y="1080" type="line"/>
      <point x="262" y="1080"/>
      <point x="309" y="1094"/>
      <point x="325" y="1094" type="curve" smooth="yes"/>
      <point x="341" y="1094"/>
      <point x="358" y="1091"/>
      <point x="358" y="1054" type="curve" smooth="yes"/>
      <point x="358" y="995"/>
      <point x="283" y="698"/>
      <point x="283" y="475" type="curve" smooth="yes"/>
      <point x="283" y="379"/>
      <point x="342" y="308"/>
    </contour>
    <contour>
      <point x="110" y="583" type="curve" smooth="yes"/>
      <point x="170" y="583"/>
      <point x="234" y="599"/>
      <point x="324" y="757" type="curve"/>
      <point x="330" y="800"/>
      <point x="362" y="860"/>
      <point x="338" y="917" type="curve"/>
      <point x="298" y="802"/>
      <point x="222" y="685"/>
      <point x="159" y="685" type="curve" smooth="yes"/>
      <point x="118" y="685"/>
      <point x="98" y="708"/>
      <point x="84" y="708" type="curve" smooth="yes"/>
      <point x="70" y="708"/>
      <point x="10" y="627"/>
      <point x="10" y="617" type="curve" smooth="yes"/>
      <point x="10" y="609"/>
      <point x="70" y="583"/>
    </contour>
  </outline>
</glyph>
<glyph name="ModSmW" format="2">
  <advance width="902"/>
  <unicode hex="02B7"/>
  <anchor x="475" y="540" name="L"/>
  <anchor x="569" y="1216" name="U"/>
  <outline>
    <contour>
      <point x="255" y="583" type="line"/>
      <point x="274" y="591"/>
      <point x="329" y="607"/>
      <point x="345" y="614" type="curve"/>
      <point x="439" y="751"/>
      <point x="528" y="947"/>
      <point x="531" y="997" type="curve"/>
      <point x="556" y="923"/>
      <point x="580" y="737"/>
      <point x="600" y="602" type="curve"/>
      <point x="623" y="583" type="line"/>
      <point x="641" y="591"/>
      <point x="691" y="602"/>
      <point x="707" y="609" type="curve"/>
      <point x="917" y="942"/>
      <point x="950" y="1060"/>
      <point x="950" y="1124" type="curve" smooth="yes"/>
      <point x="950" y="1164"/>
      <point x="922" y="1170"/>
      <point x="891" y="1170" type="curve" smooth="yes"/>
      <point x="871" y="1170"/>
      <point x="815" y="1160"/>
      <point x="751" y="1128" type="curve"/>
      <point x="763" y="1095" type="line"/>
      <point x="783" y="1101"/>
      <point x="793" y="1104"/>
      <point x="806" y="1104" type="curve" smooth="yes"/>
      <point x="831" y="1104"/>
      <point x="845" y="1094"/>
      <point x="845" y="1077" type="curve" smooth="yes"/>
      <point x="845" y="1017"/>
      <point x="830" y="938"/>
      <point x="689" y="716" type="curve"/>
      <point x="680" y="800"/>
      <point x="663" y="893"/>
      <point x="649" y="968" type="curve" smooth="yes"/>
      <point x="634" y="1041"/>
      <point x="605" y="1170"/>
      <point x="594" y="1170" type="curve" smooth="yes"/>
      <point x="574" y="1170"/>
      <point x="512" y="1147"/>
      <point x="485" y="1126" type="curve"/>
      <point x="477" y="1015"/>
      <point x="402" y="852"/>
      <point x="327" y="728" type="curve"/>
      <point x="323" y="788"/>
      <point x="294" y="1021"/>
      <point x="277" y="1087" type="curve" smooth="yes"/>
      <point x="261" y="1145"/>
      <point x="252" y="1170"/>
      <point x="226" y="1170" type="curve" smooth="yes"/>
      <point x="191" y="1170"/>
      <point x="127" y="1143"/>
      <point x="48" y="1112" type="curve"/>
      <point x="60" y="1080" type="line"/>
      <point x="60" y="1080"/>
      <point x="103" y="1094"/>
      <point x="119" y="1094" type="curve" smooth="yes"/>
      <point x="136" y="1094"/>
      <point x="157" y="1088"/>
      <point x="169" y="1045" type="curve" smooth="yes"/>
      <point x="192" y="964"/>
      <point x="213" y="737"/>
      <point x="233" y="602" type="curve"/>
    </contour>
  </outline>
</glyph>
<glyph name="ModApos" format="2">
  <advance width="317"/>
  <unicode hex="02BC"/>
  <outline>
    <contour>
      <point x="378" y="1332" type="curve"/>
      <point x="391" y="1398"/>
      <point x="382" y="1466"/>
      <point x="322" y="1496" type="curve"/>
      <point x="285" y="1500"/>
      <point x="152" y="1457"/>
      <point x="129" y="1431" type="curve"/>
      <point x="134" y="1391" type="line"/>
      <point x="228" y="1391"/>
      <point x="255" y="1331"/>
      <point x="241" y="1262" type="curve" smooth="yes"/>
      <point x="228" y="1203"/>
      <point x="195" y="1152"/>
      <point x="138" y="1102" type="curve"/>
      <point x="168" y="1071" type="line"/>
      <point x="282" y="1134"/>
      <point x="358" y="1243"/>
    </contour>
  </outline>
</glyph>
<glyph name="ModRtArrwhd" format="2">
  <advance width="720"/>
  <unicode hex="02C3"/>
  <outline>
    <contour>
      <point x="720" y="1200" type="curve"/>
      <point x="706" y="1220" type="line"/>
      <point x="251" y="1420" type="line"/>
      <point x="232" y="1404"/>
      <point x="209" y="1387"/>
      <point x="184" y="1368" type="curve"/>
      <point x="191" y="1336" type="line"/>
      <point x="685" y="1120" type="line"/>
      <point x="697" y="1141"/>
      <point x="711" y="1177"/>
    </contour>
    <contour>
      <point x="720" y="1200" type="curve"/>
      <point x="706" y="1220" type="line"/>
      <point x="155" y="1004" type="line"/>
      <point x="145" y="985"/>
      <point x="131" y="946"/>
      <point x="122" y="925" type="curve"/>
      <point x="137" y="905" type="line"/>
      <point x="685" y="1120" type="line"/>
      <point x="697" y="1141"/>
      <point x="711" y="1177"/>
    </contour>
  </outline>
</glyph>
<glyph name="ModUpArrwhd" format="2">
  <advance width="608"/>
  <unicode hex="02C4"/>
  <outline>
    <contour>
      <point x="455" y="1436" type="line"/>
      <point x="432" y="1425"/>
      <point x="392" y="1400"/>
      <point x="370" y="1380" type="curve"/>
      <point x="100" y="903" type="line"/>
      <point x="111" y="886" type="line"/>
      <point x="128" y="893"/>
      <point x="179" y="914"/>
      <point x="198" y="931" type="curve"/>
      <point x="390" y="1276" type="line"/>
      <point x="509" y="903" type="line"/>
      <point x="528" y="886" type="line"/>
      <point x="555" y="897"/>
      <point x="588" y="915"/>
      <point x="608" y="931" type="curve"/>
    </contour>
  </outline>
</glyph>
<glyph name="ModUpTack" format="2">
  <advance width="668"/>
  <unicode hex="02D4"/>
  <outline>
    <contour>
      <point x="60" y="254" type="curve"/>
      <point x="78" y="228" type="line"/>
      <point x="533" y="228" type="line"/>
      <point x="549" y="254"/>
      <point x="557" y="266"/>
      <point x="568" y="293" type="curve"/>
      <point x="551" y="316" type="line"/>
      <point x="93" y="316" type="line"/>
      <point x="79" y="295"/>
      <point x="70" y="280"/>
    </contour>
    <contour>
      <point x="327" y="637" type="curve"/>
      <point x="272" y="274" type="line"/>
      <point x="293" y="250" type="line"/>
      <point x="317" y="259"/>
      <point x="337" y="267"/>
      <point x="360" y="282" type="curve"/>
      <point x="415" y="645" type="line"/>
      <point x="395" y="667" type="line"/>
      <point x="372" y="659"/>
      <point x="353" y="652"/>
    </contour>
  </outline>
</glyph>
<glyph name="ModDwnTack" format="2">
  <advance width="668"/>
  <unicode hex="02D5"/>
  <outline>
    <contour>
      <point x="608" y="626" type="curve"/>
      <point x="590" y="652" type="line"/>
      <point x="135" y="652" type="line"/>
      <point x="119" y="626"/>
      <point x="111" y="614"/>
      <point x="100" y="587" type="curve"/>
      <point x="117" y="564" type="line"/>
      <point x="575" y="564" type="line"/>
      <point x="589" y="585"/>
      <point x="598" y="600"/>
    </contour>
    <contour>
      <point x="341" y="243" type="curve"/>
      <point x="396" y="606" type="line"/>
      <point x="375" y="630" type="line"/>
      <point x="351" y="621"/>
      <point x="331" y="613"/>
      <point x="308" y="598" type="curve"/>
      <point x="253" y="235" type="line"/>
      <point x="273" y="213" type="line"/>
      <point x="296" y="221"/>
      <point x="315" y="228"/>
    </contour>
  </outline>
</glyph>
<glyph name="Breve" format="2">
  <advance width="624"/>
  <unicode hex="02D8"/>
  <anchor x="417" y="1320" name="U"/>
  <outline>
    <contour>
      <point x="708" y="1335" type="curve"/>
      <point x="695" y="1360"/>
      <point x="683" y="1368"/>
      <point x="665" y="1378" type="curve"/>
      <point x="589" y="1231"/>
      <point x="478" y="1179"/>
      <point x="394" y="1179" type="curve" smooth="yes"/>
      <point x="318" y="1179"/>
      <point x="222" y="1231"/>
      <point x="185" y="1378" type="curve"/>
      <point x="165" y="1368"/>
      <point x="148" y="1358"/>
      <point x="130" y="1335" type="curve"/>
      <point x="175" y="1122"/>
      <point x="265" y="1050"/>
      <point x="382" y="1050" type="curve" smooth="yes"/>
      <point x="488" y="1050"/>
      <point x="609" y="1120"/>
    </contour>
  </outline>
</glyph>
<glyph name="DotAbv" format="2">
  <advance width="336"/>
  <unicode hex="02D9"/>
  <outline>
    <contour>
      <point x="351" y="1262" type="curve"/>
      <point x="351" y="1307"/>
      <point x="327" y="1333"/>
      <point x="286" y="1333" type="curve" smooth="yes"/>
      <point x="212" y="1333"/>
      <point x="163" y="1247"/>
      <point x="163" y="1176" type="curve" smooth="yes"/>
      <point x="163" y="1131"/>
      <point x="187" y="1106"/>
      <point x="228" y="1106" type="curve" smooth="yes"/>
      <point x="304" y="1106"/>
      <point x="351" y="1188"/>
    </contour>
  </outline>
</glyph>
<glyph name="Ogonek" format="2">
  <advance width="377"/>
  <unicode hex="02DB"/>
  <anchor x="84" y="-600" name="L"/>
  <outline>
    <contour>
      <point x="293" y="-301" type="curve"/>
      <point x="274" y="-266" type="line"/>
      <point x="219" y="-317"/>
      <point x="172" y="-340"/>
      <point x="143" y="-340" type="curve" smooth="yes"/>
      <point x="104" y="-340"/>
      <point x="76" y="-322"/>
      <point x="76" y="-287" type="curve" smooth="yes"/>
      <point x="76" y="-172"/>
      <point x="212" y="-49"/>
      <point x="311" y="19" type="curve"/>
      <point x="261" y="25" type="line"/>
      <point x="122" y="-52"/>
      <point x="-43" y="-178"/>
      <point x="-43" y="-332" type="curve" smooth="yes"/>
      <point x="-43" y="-420"/>
      <point x="14" y="-446"/>
      <point x="76" y="-446" type="curve" smooth="yes"/>
      <point x="143" y="-446"/>
      <point x="231" y="-373"/>
    </contour>
  </outline>
</glyph>
<glyph name="ModSmGamma" format="2">
  <advance width="655"/>
  <unicode hex="02E0"/>
  <anchor x="295" y="258" name="L"/>
  <anchor x="427" y="1216" name="U"/>
  <outline>
    <contour>
      <point x="294" y="308" type="curve" smooth="yes"/>
      <point x="380" y="308"/>
      <point x="498" y="406"/>
      <point x="498" y="506" type="curve" smooth="yes"/>
      <point x="498" y="702"/>
      <point x="387" y="901"/>
      <point x="292" y="1093" type="curve" smooth="yes"/>
      <point x="264" y="1147"/>
      <point x="247" y="1170"/>
      <point x="224" y="1170" type="curve" smooth="yes"/>
      <point x="201" y="1170"/>
      <point x="122" y="1143"/>
      <point x="43" y="1112" type="curve"/>
      <point x="51" y="1080" type="line"/>
      <point x="51" y="1080"/>
      <point x="93" y="1094"/>
      <point x="110" y="1094" type="curve" smooth="yes"/>
      <point x="123" y="1094"/>
      <point x="145" y="1085"/>
      <point x="167" y="1045" type="curve" smooth="yes"/>
      <point x="255" y="896"/>
      <point x="391" y="628"/>
      <point x="391" y="474" type="curve" smooth="yes"/>
      <point x="391" y="393"/>
      <point x="347" y="372"/>
      <point x="317" y="372" type="curve" smooth="yes"/>
      <point x="299" y="372"/>
      <point x="280" y="386"/>
      <point x="280" y="421" type="curve" smooth="yes"/>
      <point x="280" y="461"/>
      <point x="287" y="486"/>
      <point x="434" y="699" type="curve" smooth="yes"/>
      <point x="649" y="1006"/>
      <point x="687" y="1070"/>
      <point x="687" y="1124" type="curve"/>
      <point x="687" y="1164"/>
      <point x="651" y="1170"/>
      <point x="620" y="1170" type="curve" smooth="yes"/>
      <point x="587" y="1170"/>
      <point x="536" y="1156"/>
      <point x="468" y="1123" type="curve"/>
      <point x="482" y="1091" type="line"/>
      <point x="508" y="1101"/>
      <point x="518" y="1104"/>
      <point x="535" y="1104" type="curve" smooth="yes"/>
      <point x="560" y="1104"/>
      <point x="573" y="1092"/>
      <point x="573" y="1073" type="curve" smooth="yes"/>
      <point x="573" y="1025"/>
      <point x="462" y="850"/>
      <point x="344" y="688" type="curve" smooth="yes"/>
      <point x="199" y="490"/>
      <point x="174" y="445"/>
      <point x="174" y="398" type="curve" smooth="yes"/>
      <point x="174" y="362"/>
      <point x="197" y="308"/>
    </contour>
  </outline>
</glyph>
<glyph name="ModSmX" format="2">
  <advance width="631"/>
  <unicode hex="02E3"/>
  <anchor x="312" y="540" name="L"/>
  <anchor x="405" y="1216" name="U"/>
  <outline>
    <contour>
      <point x="487" y="583" type="curve" smooth="yes"/>
      <point x="533" y="583"/>
      <point x="578" y="603"/>
      <point x="659" y="651" type="curve"/>
      <point x="647" y="683" type="line"/>
      <point x="613" y="668"/>
      <point x="584" y="664"/>
      <point x="562" y="664" type="curve" smooth="yes"/>
      <point x="468" y="664"/>
      <point x="345" y="1170"/>
      <point x="241" y="1170" type="curve" smooth="yes"/>
      <point x="212" y="1170"/>
      <point x="137" y="1146"/>
      <point x="59" y="1112" type="curve"/>
      <point x="69" y="1079" type="line"/>
      <point x="69" y="1079"/>
      <point x="140" y="1094"/>
      <point x="156" y="1094" type="curve" smooth="yes"/>
      <point x="253" y="1094"/>
      <point x="364" y="583"/>
    </contour>
    <contour>
      <point x="31" y="583" type="line"/>
      <point x="65" y="592"/>
      <point x="133" y="598"/>
      <point x="167" y="602" type="curve"/>
      <point x="241" y="698"/>
      <point x="318" y="781"/>
      <point x="357" y="829" type="curve"/>
      <point x="358" y="847"/>
      <point x="324" y="883"/>
      <point x="324" y="883" type="curve"/>
      <point x="241" y="796"/>
      <point x="106" y="673"/>
      <point x="15" y="604" type="curve"/>
    </contour>
    <contour>
      <point x="400" y="854" type="curve"/>
      <point x="579" y="1022"/>
      <point x="680" y="1105"/>
      <point x="680" y="1138" type="curve"/>
      <point x="680" y="1155"/>
      <point x="674" y="1170"/>
      <point x="620" y="1170" type="curve" smooth="yes"/>
      <point x="597" y="1170"/>
      <point x="536" y="1166"/>
      <point x="475" y="1155" type="curve"/>
      <point x="476" y="1120" type="line"/>
      <point x="516" y="1122"/>
      <point x="524" y="1118"/>
      <point x="524" y="1106" type="curve" smooth="yes"/>
      <point x="524" y="1078"/>
      <point x="449" y="988"/>
      <point x="365" y="906" type="curve"/>
      <point x="363" y="887"/>
      <point x="400" y="854"/>
    </contour>
  </outline>
</glyph>
